<mxfile host="Electron" agent="Mozilla/5.0 (Windows NT 10.0; Win64; x64) AppleWebKit/537.36 (KHTML, like Gecko) draw.io/26.0.4 Chrome/128.0.6613.186 Electron/32.2.5 Safari/537.36" version="26.0.4">
  <diagram name="Seite-1" id="2_PFGbZ4jDWjoBrt2Cnf">
    <mxGraphModel dx="1003" dy="690" grid="1" gridSize="10" guides="1" tooltips="1" connect="1" arrows="1" fold="1" page="1" pageScale="1" pageWidth="827" pageHeight="1169" math="0" shadow="0">
      <root>
        <mxCell id="0" />
        <mxCell id="1" parent="0" />
        <mxCell id="kEc9KFisju1fdd3IJIr3-1" value="" style="rounded=0;whiteSpace=wrap;html=1;" parent="1" vertex="1">
          <mxGeometry x="140" y="180" width="550" height="380" as="geometry" />
        </mxCell>
        <mxCell id="QGmrxwMYpgoLUNAI2-Of-2" style="edgeStyle=orthogonalEdgeStyle;rounded=0;orthogonalLoop=1;jettySize=auto;html=1;entryX=0.5;entryY=0;entryDx=0;entryDy=0;" parent="1" source="Df29_Mr0B61EmgmB0qkO-1" target="Df29_Mr0B61EmgmB0qkO-3" edge="1">
          <mxGeometry relative="1" as="geometry" />
        </mxCell>
        <mxCell id="Df29_Mr0B61EmgmB0qkO-1" value="&lt;div&gt;&lt;br&gt;&lt;/div&gt;" style="shape=note;whiteSpace=wrap;html=1;backgroundOutline=1;darkOpacity=0.05;fillColor=#f5f5f5;strokeColor=#666666;gradientColor=#b3b3b3;" parent="1" vertex="1">
          <mxGeometry x="160" y="220" width="150" height="80" as="geometry" />
        </mxCell>
        <mxCell id="Df29_Mr0B61EmgmB0qkO-2" value="Template&amp;nbsp;&lt;span style=&quot;background-color: transparent; color: light-dark(rgb(0, 0, 0), rgb(255, 255, 255));&quot;&gt;Document&lt;/span&gt;" style="text;html=1;align=center;verticalAlign=middle;resizable=0;points=[];autosize=1;strokeColor=none;fillColor=none;" parent="1" vertex="1">
          <mxGeometry x="170" y="190" width="130" height="30" as="geometry" />
        </mxCell>
        <mxCell id="Df29_Mr0B61EmgmB0qkO-3" value="&lt;div&gt;Template&lt;/div&gt;&lt;div&gt;Engine&lt;/div&gt;" style="rounded=1;whiteSpace=wrap;html=1;fillColor=#dae8fc;strokeColor=#6c8ebf;gradientColor=#7ea6e0;" parent="1" vertex="1">
          <mxGeometry x="160" y="340" width="150" height="60" as="geometry" />
        </mxCell>
        <mxCell id="Df29_Mr0B61EmgmB0qkO-4" value="" style="shape=cylinder3;whiteSpace=wrap;html=1;boundedLbl=1;backgroundOutline=1;size=6.428571428571388;fillColor=#fff2cc;strokeColor=#d6b656;gradientColor=#ffd966;" parent="1" vertex="1">
          <mxGeometry x="381" y="340" width="69" height="60" as="geometry" />
        </mxCell>
        <mxCell id="Df29_Mr0B61EmgmB0qkO-7" value="" style="endArrow=classic;html=1;rounded=0;exitX=0;exitY=0.5;exitDx=0;exitDy=0;exitPerimeter=0;entryX=1;entryY=0.5;entryDx=0;entryDy=0;" parent="1" source="Df29_Mr0B61EmgmB0qkO-4" target="Df29_Mr0B61EmgmB0qkO-3" edge="1">
          <mxGeometry width="50" height="50" relative="1" as="geometry">
            <mxPoint x="250" y="280" as="sourcePoint" />
            <mxPoint x="250" y="330" as="targetPoint" />
          </mxGeometry>
        </mxCell>
        <mxCell id="Df29_Mr0B61EmgmB0qkO-10" value="Data" style="text;html=1;align=center;verticalAlign=middle;resizable=0;points=[];autosize=1;strokeColor=none;fillColor=none;" parent="1" vertex="1">
          <mxGeometry x="389" y="362" width="50" height="30" as="geometry" />
        </mxCell>
        <mxCell id="Df29_Mr0B61EmgmB0qkO-11" value="Intermediate Result" style="text;html=1;align=center;verticalAlign=middle;resizable=0;points=[];autosize=1;strokeColor=none;fillColor=none;" parent="1" vertex="1">
          <mxGeometry x="170" y="520" width="130" height="30" as="geometry" />
        </mxCell>
        <mxCell id="ASamMJnDjekAxI7duclg-6" value="&lt;div&gt;&lt;b style=&quot;background-color: transparent; color: light-dark(rgb(0, 0, 0), rgb(255, 255, 255));&quot;&gt;${placeholder}&lt;/b&gt;&lt;br&gt;&lt;/div&gt;" style="text;html=1;align=center;verticalAlign=middle;whiteSpace=wrap;rounded=0;" parent="1" vertex="1">
          <mxGeometry x="160" y="270" width="150" height="30" as="geometry" />
        </mxCell>
        <mxCell id="ASamMJnDjekAxI7duclg-7" value="&lt;div&gt;&lt;br&gt;&lt;/div&gt;" style="shape=note;whiteSpace=wrap;html=1;backgroundOutline=1;darkOpacity=0.05;fillColor=#f5f5f5;strokeColor=#666666;gradientColor=#b3b3b3;" parent="1" vertex="1">
          <mxGeometry x="160" y="440" width="150" height="80" as="geometry" />
        </mxCell>
        <mxCell id="ASamMJnDjekAxI7duclg-9" value="&lt;div&gt;&lt;b style=&quot;background-color: transparent; color: light-dark(rgb(0, 0, 0), rgb(255, 255, 255));&quot;&gt;Potion&lt;/b&gt;&lt;br&gt;&lt;/div&gt;" style="text;html=1;align=center;verticalAlign=middle;whiteSpace=wrap;rounded=0;" parent="1" vertex="1">
          <mxGeometry x="160" y="490" width="150" height="30" as="geometry" />
        </mxCell>
        <mxCell id="ASamMJnDjekAxI7duclg-10" style="edgeStyle=orthogonalEdgeStyle;rounded=0;orthogonalLoop=1;jettySize=auto;html=1;entryX=0.5;entryY=0;entryDx=0;entryDy=0;entryPerimeter=0;" parent="1" source="Df29_Mr0B61EmgmB0qkO-3" target="ASamMJnDjekAxI7duclg-7" edge="1">
          <mxGeometry relative="1" as="geometry" />
        </mxCell>
        <mxCell id="nG6xrg7lqNMgTBw8rrxf-1" value="" style="shape=image;verticalLabelPosition=bottom;labelBackgroundColor=default;verticalAlign=top;aspect=fixed;imageAspect=0;image=data:image/svg+xml,PHN2ZyB4bWxuczp4bGluaz0iaHR0cDovL3d3dy53My5vcmcvMTk5OS94bGluayIgeG1sbnM9Imh0dHA6Ly93d3cudzMub3JnLzIwMDAvc3ZnIiBpZD0ic3ZnMjY3NiIgaGVpZ2h0PSI0OCIgd2lkdGg9IjQ4IiB2ZXJzaW9uPSIxLjEiIHZpZXdCb3g9IjAgMCA0OCA0OCI+JiN4YTsgIDxkZWZzIGlkPSJkZWZzMjY3OCI+JiN4YTsgICAgPGxpbmVhckdyYWRpZW50IGlkPSJsaW5lYXJHcmFkaWVudDY2MTAiPiYjeGE7ICAgICAgPHN0b3Agb2Zmc2V0PSIwIiBzdHlsZT0ic3RvcC1jb2xvcjojZDIxNjE2O3N0b3Atb3BhY2l0eToxIiBpZD0ic3RvcDY2MTIiLz4mI3hhOyAgICAgIDxzdG9wIG9mZnNldD0iMC41IiBzdHlsZT0ic3RvcC1jb2xvcjojZTcxZTFlO3N0b3Atb3BhY2l0eTowLjQ5ODAzOTIyIiBpZD0ic3RvcDY2MTgiLz4mI3hhOyAgICAgIDxzdG9wIG9mZnNldD0iMSIgc3R5bGU9InN0b3AtY29sb3I6I2QyMTYxNjtzdG9wLW9wYWNpdHk6MSIgaWQ9InN0b3A2NjE0Ii8+JiN4YTsgICAgPC9saW5lYXJHcmFkaWVudD4mI3hhOyAgICA8bGluZWFyR3JhZGllbnQgaWQ9ImxpbmVhckdyYWRpZW50NjU4OCI+JiN4YTsgICAgICA8c3RvcCBvZmZzZXQ9IjAiIHN0eWxlPSJzdG9wLWNvbG9yOiNiOTEzMTM7c3RvcC1vcGFjaXR5OjEiIGlkPSJzdG9wNjU5MCIvPiYjeGE7ICAgICAgPHN0b3Agb2Zmc2V0PSIxIiBzdHlsZT0ic3RvcC1jb2xvcjojZDExNjE2O3N0b3Atb3BhY2l0eToxIiBpZD0ic3RvcDY1OTIiLz4mI3hhOyAgICA8L2xpbmVhckdyYWRpZW50PiYjeGE7ICAgIDxsaW5lYXJHcmFkaWVudCBpZD0ibGluZWFyR3JhZGllbnQzMTczIj4mI3hhOyAgICAgIDxzdG9wIG9mZnNldD0iMCIgc3R5bGU9InN0b3AtY29sb3I6IzcyOWZjZjtzdG9wLW9wYWNpdHk6MSIgaWQ9InN0b3AzMTc1Ii8+JiN4YTsgICAgICA8c3RvcCBvZmZzZXQ9IjEiIHN0eWxlPSJzdG9wLWNvbG9yOiM3MjlmY2Y7c3RvcC1vcGFjaXR5OjAiIGlkPSJzdG9wMzE3NyIvPiYjeGE7ICAgIDwvbGluZWFyR3JhZGllbnQ+JiN4YTsgICAgPGxpbmVhckdyYWRpZW50IGlkPSJsaW5lYXJHcmFkaWVudDkwODciPiYjeGE7ICAgICAgPHN0b3Agb2Zmc2V0PSIwIiBzdHlsZT0ic3RvcC1jb2xvcjojZmZmZmZmO3N0b3Atb3BhY2l0eToxIiBpZD0ic3RvcDkwODkiLz4mI3hhOyAgICAgIDxzdG9wIG9mZnNldD0iMSIgc3R5bGU9InN0b3AtY29sb3I6I2YyZjJmMjtzdG9wLW9wYWNpdHk6MCIgaWQ9InN0b3A5MDkxIi8+JiN4YTsgICAgPC9saW5lYXJHcmFkaWVudD4mI3hhOyAgICA8bGluZWFyR3JhZGllbnQgaWQ9ImxpbmVhckdyYWRpZW50OTA3NSI+JiN4YTsgICAgICA8c3RvcCBvZmZzZXQ9IjAiIHN0eWxlPSJzdG9wLWNvbG9yOiNjZGNkY2Q7c3RvcC1vcGFjaXR5OjEiIGlkPSJzdG9wOTA3NyIvPiYjeGE7ICAgICAgPHN0b3Agb2Zmc2V0PSIwLjcwODMwNjczIiBzdHlsZT0ic3RvcC1jb2xvcjojZmZmZmZmO3N0b3Atb3BhY2l0eTowLjMxNjIzOTMzIiBpZD0ic3RvcDkwNzkiLz4mI3hhOyAgICAgIDxzdG9wIG9mZnNldD0iMSIgc3R5bGU9InN0b3AtY29sb3I6I2Q2ZDZkNjtzdG9wLW9wYWNpdHk6MSIgaWQ9InN0b3A5MDgxIi8+JiN4YTsgICAgPC9saW5lYXJHcmFkaWVudD4mI3hhOyAgICA8bGluZWFyR3JhZGllbnQgaWQ9ImxpbmVhckdyYWRpZW50OTAxMSI+JiN4YTsgICAgICA8c3RvcCBvZmZzZXQ9IjAiIHN0eWxlPSJzdG9wLWNvbG9yOiM3MjlmY2Y7c3RvcC1vcGFjaXR5OjEiIGlkPSJzdG9wOTAxMyIvPiYjeGE7ICAgICAgPHN0b3Agb2Zmc2V0PSIwLjUiIHN0eWxlPSJzdG9wLWNvbG9yOiM0OTgzYzE7c3RvcC1vcGFjaXR5OjAuNDk4MDM5MjIiIGlkPSJzdG9wOTAyMSIvPiYjeGE7ICAgICAgPHN0b3Agb2Zmc2V0PSIxIiBzdHlsZT0ic3RvcC1jb2xvcjojNzI5ZmNmO3N0b3Atb3BhY2l0eToxIiBpZD0ic3RvcDkwMTUiLz4mI3hhOyAgICA8L2xpbmVhckdyYWRpZW50PiYjeGE7ICAgIDxsaW5lYXJHcmFkaWVudCBpZD0ibGluZWFyR3JhZGllbnQ4OTgwIj4mI3hhOyAgICAgIDxzdG9wIG9mZnNldD0iMCIgc3R5bGU9InN0b3AtY29sb3I6IzYwOTJjOTtzdG9wLW9wYWNpdHk6MSIgaWQ9InN0b3A4OTgyIi8+JiN4YTsgICAgICA8c3RvcCBvZmZzZXQ9IjEiIHN0eWxlPSJzdG9wLWNvbG9yOiM3MDlkY2U7c3RvcC1vcGFjaXR5OjAuNjgzNzYwNyIgaWQ9InN0b3A4OTg0Ii8+JiN4YTsgICAgPC9saW5lYXJHcmFkaWVudD4mI3hhOyAgICA8bGluZWFyR3JhZGllbnQgaWQ9ImxpbmVhckdyYWRpZW50ODcyNiI+JiN4YTsgICAgICA8c3RvcCBvZmZzZXQ9IjAiIHN0eWxlPSJzdG9wLWNvbG9yOiNmZmZmZmY7c3RvcC1vcGFjaXR5OjAiIGlkPSJzdG9wODcyOCIvPiYjeGE7ICAgICAgPHN0b3Agb2Zmc2V0PSIwLjYxNzYzMDc4IiBzdHlsZT0ic3RvcC1jb2xvcjojZmZmZmZmO3N0b3Atb3BhY2l0eTowIiBpZD0ic3RvcDg3MzAiLz4mI3hhOyAgICAgIDxzdG9wIG9mZnNldD0iMC43NDU5NzA5IiBzdHlsZT0ic3RvcC1jb2xvcjojZmZmZmZmO3N0b3Atb3BhY2l0eToxIiBpZD0ic3RvcDg3MzIiLz4mI3hhOyAgICAgIDxzdG9wIG9mZnNldD0iMSIgc3R5bGU9InN0b3AtY29sb3I6I2ZmZmZmZjtzdG9wLW9wYWNpdHk6MCIgaWQ9InN0b3A4NzM0Ii8+JiN4YTsgICAgPC9saW5lYXJHcmFkaWVudD4mI3hhOyAgICA8bGluZWFyR3JhZGllbnQgaWQ9ImxpbmVhckdyYWRpZW50ODY3MSI+JiN4YTsgICAgICA8c3RvcCBvZmZzZXQ9IjAiIHN0eWxlPSJzdG9wLWNvbG9yOiNkYWRhZDY7c3RvcC1vcGFjaXR5OjEiIGlkPSJzdG9wODY3MyIvPiYjeGE7ICAgICAgPHN0b3Agb2Zmc2V0PSIwLjUiIHN0eWxlPSJzdG9wLWNvbG9yOiNlNGU0ZTE7c3RvcC1vcGFjaXR5OjAuNDk4MDM5MjIiIGlkPSJzdG9wOTA4MyIvPiYjeGE7ICAgICAgPHN0b3Agb2Zmc2V0PSIxIiBzdHlsZT0ic3RvcC1jb2xvcjojZGFkYWQ2O3N0b3Atb3BhY2l0eToxIiBpZD0ic3RvcDg2NzUiLz4mI3hhOyAgICA8L2xpbmVhckdyYWRpZW50PiYjeGE7ICAgIDxsaW5lYXJHcmFkaWVudCBpZD0ibGluZWFyR3JhZGllbnQ4NjYxIj4mI3hhOyAgICAgIDxzdG9wIG9mZnNldD0iMCIgc3R5bGU9InN0b3AtY29sb3I6I2NkY2RjZDtzdG9wLW9wYWNpdHk6MSIgaWQ9InN0b3A4NjYzIi8+JiN4YTsgICAgICA8c3RvcCBvZmZzZXQ9IjAuNSIgc3R5bGU9InN0b3AtY29sb3I6I2ZmZmZmZjtzdG9wLW9wYWNpdHk6MC4zMTYyMzkzMyIgaWQ9InN0b3A4NjY5Ii8+JiN4YTsgICAgICA8c3RvcCBvZmZzZXQ9IjEiIHN0eWxlPSJzdG9wLWNvbG9yOiNkNmQ2ZDY7c3RvcC1vcGFjaXR5OjEiIGlkPSJzdG9wODY2NSIvPiYjeGE7ICAgIDwvbGluZWFyR3JhZGllbnQ+JiN4YTsgICAgPGZpbHRlciBpZD0iZmlsdGVyMzM5NSIgY29sb3ItaW50ZXJwb2xhdGlvbi1maWx0ZXJzPSJzUkdCIiBoZWlnaHQ9IjIuNDE4MzAwMiIgd2lkdGg9IjEuMTEzNzk3MSIgeT0iLTAuNzA5MTUwMDgiIHg9Ii0wLjA1Njg5ODU0NSI+JiN4YTsgICAgICA8ZmVHYXVzc2lhbkJsdXIgc3RkRGV2aWF0aW9uPSIwLjk3OTgwNzI5IiBpZD0iZmVHYXVzc2lhbkJsdXIzMzk3Ii8+JiN4YTsgICAgPC9maWx0ZXI+JiN4YTsgICAgPHJhZGlhbEdyYWRpZW50IGdyYWRpZW50VHJhbnNmb3JtPSJtYXRyaXgoMC4zNDk3ODgwMSwwLjAwNTMxMDczLC0wLjAwMzU5NDA5LDAuMTQ0NTQ0NzksMTUuNTgwMjEyLDE3LjAwOTQ4OSkiIGdyYWRpZW50VW5pdHM9InVzZXJTcGFjZU9uVXNlIiB4bGluazpocmVmPSIjbGluZWFyR3JhZGllbnQ4NzI2IiBpZD0icmFkaWFsR3JhZGllbnQ4NjgzIiBmeT0iLTAuNzIzNDA0MDUiIGZ4PSIyMy44ODE3OTIiIHI9IjE1LjQ3NTE5NSIgY3k9Ii0wLjcyMzQwNDA1IiBjeD0iMjMuODgxNzkyIi8+JiN4YTsgICAgPGxpbmVhckdyYWRpZW50IGdyYWRpZW50VHJhbnNmb3JtPSJ0cmFuc2xhdGUoMCwxKSIgZ3JhZGllbnRVbml0cz0idXNlclNwYWNlT25Vc2UiIHhsaW5rOmhyZWY9IiNsaW5lYXJHcmFkaWVudDkwNzUiIGlkPSJsaW5lYXJHcmFkaWVudDg3MTQiIHkyPSI2Ljg0Mzc1IiB4Mj0iMjcuODQzNzUiIHkxPSI3LjE4NzUiIHgxPSIyNSIvPiYjeGE7ICAgIDxsaW5lYXJHcmFkaWVudCBncmFkaWVudFVuaXRzPSJ1c2VyU3BhY2VPblVzZSIgeGxpbms6aHJlZj0iI2xpbmVhckdyYWRpZW50ODY3MSIgaWQ9ImxpbmVhckdyYWRpZW50ODcyMiIgeTI9IjguOTUzNTIyNyIgeDI9IjIzLjg3MTI4MyIgeTE9IjguMjUwNDY3MyIgeDE9IjE5Ljk1OTk4OCIvPiYjeGE7ICAgIDxyYWRpYWxHcmFkaWVudCBncmFkaWVudFRyYW5zZm9ybT0ibWF0cml4KC0wLjM3NjcxMDg4LC0wLjI1NzE3NzY3LDAuMTUxMTM3OTMsLTAuMjIxMzg0NjksMzEuMzg2NTQsNTIuOTIxMDA1KSIgZ3JhZGllbnRVbml0cz0idXNlclNwYWNlT25Vc2UiIHhsaW5rOmhyZWY9IiNsaW5lYXJHcmFkaWVudDg2NzEiIGlkPSJyYWRpYWxHcmFkaWVudDg3NTAiIGZ5PSIzOS41MDI1OTgiIGZ4PSIyNy42NTg4MjciIHI9IjE3LjI1NDYxMiIgY3k9IjM5LjUwMjU5OCIgY3g9IjI3LjY1ODgyNyIvPiYjeGE7ICAgIDxsaW5lYXJHcmFkaWVudCBncmFkaWVudFRyYW5zZm9ybT0idHJhbnNsYXRlKDAsMSkiIGdyYWRpZW50VW5pdHM9InVzZXJTcGFjZU9uVXNlIiB4bGluazpocmVmPSIjbGluZWFyR3JhZGllbnQ4NjYxIiBpZD0ibGluZWFyR3JhZGllbnQ4NzUyIiB5Mj0iMjMuMzAxMTkxIiB4Mj0iMzEuNjAzMTA3IiB5MT0iMjQuMDk2Njg3IiB4MT0iMjAuOTkzMDg4Ii8+JiN4YTsgICAgPHJhZGlhbEdyYWRpZW50IGdyYWRpZW50VHJhbnNmb3JtPSJtYXRyaXgoMC44MTQwMjc1MywwLjAzMDE0OTIyLC0wLjAwOTM0OTEzLDAuMjUyNDI3NjYsNC42MjkzNDg3LDE5LjM1Nzk0NSkiIGdyYWRpZW50VW5pdHM9InVzZXJTcGFjZU9uVXNlIiB4bGluazpocmVmPSIjbGluZWFyR3JhZGllbnQ4OTgwIiBpZD0icmFkaWFsR3JhZGllbnQ5MDk3IiBmeT0iMjYuNjIzNzIyIiBmeD0iMjAuNjA0MTA3IiByPSI4LjcwOTY1MzkiIGN5PSIyNi42MjM3MjIiIGN4PSIyMC42MDQxMDciLz4mI3hhOyAgICA8bGluZWFyR3JhZGllbnQgZ3JhZGllbnRVbml0cz0idXNlclNwYWNlT25Vc2UiIHhsaW5rOmhyZWY9IiNsaW5lYXJHcmFkaWVudDMxNzMiIGlkPSJsaW5lYXJHcmFkaWVudDMxNzkiIHkyPSIxOS4zNzUiIHgyPSItOC4wNjI1IiB5MT0iMTkuNzUiIHgxPSItMTIuNSIvPiYjeGE7ICAgIDxsaW5lYXJHcmFkaWVudCBpZD0ibGluZWFyR3JhZGllbnQ4OTgwLTgwMSI+JiN4YTsgICAgICA8c3RvcCBvZmZzZXQ9IjAiIHN0eWxlPSJzdG9wLWNvbG9yOiM2MDkyYzk7c3RvcC1vcGFjaXR5OjEiIGlkPSJzdG9wMzM2OCIvPiYjeGE7ICAgICAgPHN0b3Agb2Zmc2V0PSIxIiBzdHlsZT0ic3RvcC1jb2xvcjojNzA5ZGNlO3N0b3Atb3BhY2l0eTowLjY4Mzc2MDciIGlkPSJzdG9wMzM3MCIvPiYjeGE7ICAgIDwvbGluZWFyR3JhZGllbnQ+JiN4YTsgICAgPGxpbmVhckdyYWRpZW50IGdyYWRpZW50VW5pdHM9InVzZXJTcGFjZU9uVXNlIiB4bGluazpocmVmPSIjbGluZWFyR3JhZGllbnQ5MDg3IiBpZD0ibGluZWFyR3JhZGllbnQ1NjQxIiB5Mj0iMzUuMDUxMTA1IiB4Mj0iMjUuMTQ2NDg0IiB5MT0iMzguOTQwMTkzIiB4MT0iMjUuMjc5MDY4Ii8+JiN4YTsgICAgPHJhZGlhbEdyYWRpZW50IGdyYWRpZW50VHJhbnNmb3JtPSJtYXRyaXgoMC40MzQ3ODA4NSwtMC4xMDg2OTUyNSwwLjA2MTg2NTc1LDAuMjQ3NDYyOTQsMTAuNTY0Mzg5LDIyLjU3MjYxNikiIGdyYWRpZW50VW5pdHM9InVzZXJTcGFjZU9uVXNlIiB4bGluazpocmVmPSIjbGluZWFyR3JhZGllbnQ2NTg4IiBpZD0icmFkaWFsR3JhZGllbnQ2NjAyIiBmeT0iMjcuOTQ5NjYzIiBmeD0iMjEuNzUiIHI9IjguNjI1MDM1MyIgY3k9IjI3Ljk0OTY2MyIgY3g9IjIxLjc1Ii8+JiN4YTsgICAgPGxpbmVhckdyYWRpZW50IGdyYWRpZW50VW5pdHM9InVzZXJTcGFjZU9uVXNlIiB4bGluazpocmVmPSIjbGluZWFyR3JhZGllbnQ2NjEwIiBpZD0ibGluZWFyR3JhZGllbnQ2NjE2IiB5Mj0iMzEuMjA2MjE1IiB4Mj0iMzMuMDU3MjQiIHkxPSIzMi44ODU1OTMiIHgxPSIyNS4zNjc0NTYiLz4mI3hhOyAgPC9kZWZzPiYjeGE7ICA8bWV0YWRhdGEgaWQ9Im1ldGFkYXRhMjY4MSI+JiN4YTsgICAgJiN4YTsgICAgICAmI3hhOyAgICAgICAgaW1hZ2Uvc3ZnK3htbCYjeGE7ICAgICAgICAmI3hhOyAgICAgICAgJiN4YTsgICAgICAgICYjeGE7ICAgICAgICBNYXkyMDA3JiN4YTsgICAgICAgICYjeGE7ICAgICAgICAgICYjeGE7ICAgICAgICAgICAgRi5CZWxsYWljaGUgJmx0O2ZyZWRlcmljLmJlbGxhaWNoZUBnbWFpbC5jb20mZ3Q7JiN4YTsgICAgICAgICAgJiN4YTsgICAgICAgICYjeGE7ICAgICAgICAmI3hhOyAgICAgICAgICAmI3hhOyAgICAgICAgICAgIGphciYjeGE7ICAgICAgICAgICYjeGE7ICAgICAgICAmI3hhOyAgICAgICAgJiN4YTsgICAgICAgICAgJiN4YTsgICAgICAgICAgICBCYXNlZCBvbiBBbmRyw6kgV3lyd2EgYXJ0d29yayYjeGE7ICAgICAgICAgICYjeGE7ICAgICAgICAmI3hhOyAgICAgICYjeGE7ICAgICAgJiN4YTsgICAgICAgICYjeGE7ICAgICAgICAmI3hhOyAgICAgICAgJiN4YTsgICAgICAgICYjeGE7ICAgICAgICAmI3hhOyAgICAgICAgJiN4YTsgICAgICAmI3hhOyAgICAmI3hhOyAgPC9tZXRhZGF0YT4mI3hhOyAgPGcgc3R5bGU9ImRpc3BsYXk6aW5saW5lIiBpZD0ibGF5ZXI0Ij4mI3hhOyAgICA8cGF0aCBzdHlsZT0ib3BhY2l0eTowLjQ7Y29sb3I6IzAwMDAwMDtmaWxsOiMwMDAwMDA7ZmlsbC1vcGFjaXR5OjE7ZmlsbC1ydWxlOmV2ZW5vZGQ7c3Ryb2tlOm5vbmU7c3Ryb2tlLXdpZHRoOjE7bWFya2VyOm5vbmU7dmlzaWJpbGl0eTp2aXNpYmxlO2Rpc3BsYXk6aW5saW5lO292ZXJmbG93OnZpc2libGU7ZmlsdGVyOnVybCgjZmlsdGVyMzM5NSk7ZW5hYmxlLWJhY2tncm91bmQ6YWNjdW11bGF0ZSIgaWQ9InBhdGgzMzQxIiB0cmFuc2Zvcm09Im1hdHJpeCgwLjkxOTYyMzYsMCwwLDIuMTUyMTA5OSwyLjIzNzY0MjIsLTQ3Ljk4MDQzKSIgZD0ibSA0NC40MDE5NjYsNDEuNTcwMjA2IGEgMjAuNjY0MzAzLDEuNjU3OTk3IDAgMSAxIC00MS4zMjg2MDU2LDAgMjAuNjY0MzAzLDEuNjU3OTk3IDAgMSAxIDQxLjMyODYwNTYsMCB6Ii8+JiN4YTsgIDwvZz4mI3hhOyAgPGcgc3R5bGU9ImRpc3BsYXk6aW5saW5lIiBpZD0ibGF5ZXI2Ij4mI3hhOyAgICA8cGF0aCBzdHlsZT0ib3BhY2l0eTowLjU7ZmlsbDp1cmwoI2xpbmVhckdyYWRpZW50ODc1Mik7ZmlsbC1vcGFjaXR5OjE7c3Ryb2tlOm5vbmU7ZGlzcGxheTppbmxpbmUiIGlkPSJwYXRoNzc4NCIgZD0ibSAxOS4yMjgzOTEsNS42MDIzODUzIGMgLTAuOTU0MzIzLDAuMjUgLTEuNDI5NzQ5LDMuMzAzNjgzNSAwLjQ3NzE2LDMuNSBsIDAsNy45OTk5OTk3IC05Ljk4OTQ2MDUsMTYuOTE3Njk3IEMgOC41MjE3NzYxLDM2LjA0MjcxOSA3LjE5MTgxMTEsMzkuMjAzODgzIDExLjE0NDU2Niw0MS4yMDg2MzIgMTMuNjk3NzU0LDQyLjI3MTkxMiAxOC4yMzU1Niw0MyAyNCw0MyBjIDUuNzY0NDQxLDAgMTAuMzAyMjQ2LC0wLjcyODA4OCAxMi44NTU0MzQsLTEuNzkxMzY4IDMuOTUyNzU1LC0yLjAwNDc0OSAyLjYyMjc5LC01LjE2NTkxMyAxLjQyODQ3NiwtNy4xODg1NSBsIC05Ljk4OTQ2MiwtMTYuOTE3Njk3IDAsLTggYyAxLjkwNjkxMSwtMC4xOTYzMTY1IDEuNDMxNDg1LC0zLjI1IDAuNDc3MTYyLC0zLjUiLz4mI3hhOyAgICA8cGF0aCBzdHlsZT0ib3BhY2l0eTowLjU7ZmlsbDp1cmwoI3JhZGlhbEdyYWRpZW50ODc1MCk7ZmlsbC1vcGFjaXR5OjE7c3Ryb2tlOiNmZmZmZmY7c3Ryb2tlLXdpZHRoOjE7c3Ryb2tlLWxpbmVjYXA6cm91bmQ7c3Ryb2tlLWxpbmVqb2luOnJvdW5kO3N0cm9rZS1taXRlcmxpbWl0OjQ7c3Ryb2tlLW9wYWNpdHk6MC41O2Rpc3BsYXk6aW5saW5lIiBpZD0icGF0aDM2ODMiIGQ9Ik0gMzguMzE0ODM1LDM3Ljk5OTk5OSBDIDM4LjMxNDgzNSw0MC4yMDkxMzggMzMuOTA1ODY1LDQyIDI0LDQyIDE0LjAwMDM4NCw0MiA5LjY4NTE2NTIsNDAuMjA5MTM4IDkuNjg1MTY1MiwzNy45OTk5OTkgOS42ODUxNjUyLDM1Ljc5MDg2IDE2LjA5NDEzNSwzMy45OTk5OTggMjQsMzMuOTk5OTk4IGMgNy45MDU4NjQsMCAxNC4zMTQ4MzUsMS43OTA4NjIgMTQuMzE0ODM1LDQuMDAwMDAxIHoiLz4mI3hhOyAgPC9nPiYjeGE7ICA8ZyBzdHlsZT0iZGlzcGxheTppbmxpbmUiIGlkPSJsYXllcjUiPiYjeGE7ICAgIDxwYXRoIHN0eWxlPSJvcGFjaXR5OjAuODtmaWxsOnVybCgjbGluZWFyR3JhZGllbnQ2NjE2KTtmaWxsLW9wYWNpdHk6MTtzdHJva2U6bm9uZTtkaXNwbGF5OmlubGluZSIgaWQ9InBhdGg4OTUyIiBkPSJtIDE0LDI3LjU5Mzc1IC0zLjI4MTI1LDUuNjg3NSBDIDkuMDY5OTcyNiwzNi4xNDkzNzYgOC42NjQ3OTkzLDM3LjA4ODM1MyA5LjEyNSwzOC41IGMgMC42MTA5NDI3LDEuODc0MDQyIDMuMTI1LDQgMTQuMzc1LDQgOC42ODE3NTQsMCAxNC4yMjkyNDcsLTAuODk0MDg3IDE1LjQwNjI1LC0zLjkzNzUgMC40MTE2OCwtMS4wNjQ0OTMgLTAuMDA1MywtMi42ODQ4MTggLTAuODEyNSwtNC4wMzEyNSBsIC00LjEyNSwtNi45MDYyNSBjIC0wLjEyMDI0LDAuMTgyNTYgLTAuMjQ4NjUzLDAuMzcyMTc2IC0wLjQzNzUsMC41MzEyNSAtMC40NDMxMjMsMC4zNzMyNjIgLTEuMTAxMzMxLDAuNzEwMTQyIC0xLjkzNzUsMC45Njg3NSAtMS42NzIzMzcsMC41MTcyMTcgLTQuMTQ3NTY3LDAuODEyNSAtNy41OTM3NSwwLjgxMjUgLTMuNDc4NDMsMCAtNS45NjAxMjMsLTAuMjk0OTk4IC03LjYyNSwtMC44MTI1IEMgMTUuNTQyNTYxLDI4Ljg2NjI1MSAxNC45MDY5NzQsMjguNTMwMjA4IDE0LjQ2ODc1LDI4LjE1NjI1IDE0LjI2OTQ5LDI3Ljk4NjIxMyAxNC4xMjMxNTksMjcuNzkwMzE2IDE0LDI3LjU5Mzc1IHoiLz4mI3hhOyAgICA8cGF0aCBzdHlsZT0iZm9udC1zaXplOm1lZGl1bTtmb250LXN0eWxlOm5vcm1hbDtmb250LXZhcmlhbnQ6bm9ybWFsO2ZvbnQtd2VpZ2h0Om5vcm1hbDtmb250LXN0cmV0Y2g6bm9ybWFsO3RleHQtaW5kZW50OjA7dGV4dC1hbGlnbjpzdGFydDt0ZXh0LWRlY29yYXRpb246bm9uZTtsaW5lLWhlaWdodDpub3JtYWw7bGV0dGVyLXNwYWNpbmc6bm9ybWFsO3dvcmQtc3BhY2luZzpub3JtYWw7dGV4dC10cmFuc2Zvcm06bm9uZTtkaXJlY3Rpb246bHRyO2Jsb2NrLXByb2dyZXNzaW9uOnRiO3dyaXRpbmctbW9kZTpsci10Yjt0ZXh0LWFuY2hvcjpzdGFydDtiYXNlbGluZS1zaGlmdDpiYXNlbGluZTtvcGFjaXR5OjAuNTtjb2xvcjojMDAwMDAwO2ZpbGw6I2QyMTYxNjtmaWxsLW9wYWNpdHk6MC42NjUwOTQyOTtmaWxsLXJ1bGU6bm9uemVybztzdHJva2U6bm9uZTtzdHJva2Utd2lkdGg6MC45Mzc3OTM3OTttYXJrZXI6bm9uZTt2aXNpYmlsaXR5OnZpc2libGU7ZGlzcGxheTppbmxpbmU7b3ZlcmZsb3c6dmlzaWJsZTtlbmFibGUtYmFja2dyb3VuZDphY2N1bXVsYXRlO2ZvbnQtZmFtaWx5OlNhbnM7LWlua3NjYXBlLWZvbnQtc3BlY2lmaWNhdGlvbjpTYW5zIiBpZD0icGF0aDg5NjUiIGQ9Im0gMjQsMjMuNzUwOTU4IGMgLTIuNzU5Mjg5LDAgLTUuMjQ1NjczLDAuMzEyNDQxIC03LjA3OTA1NywwLjgyNDc0NSAtMC45MTY2OTMsMC4yNTYxNTEgLTEuNjg3MTg0LDAuNTY2Nzk0IC0yLjIzMzY4MywwLjkyNzgzNyAtMC41NDY0OTksMC4zNjEwNDQgLTAuOTI3ODM4LDAuODAxMjY0IC0wLjkyNzgzOCwxLjM0MDIxIDAsMC40ODc3MDQgMC4yODM0MjgsMC45MzE4ODkgMC43MjE2NTIsMS4zMDU4NDUgMC40MzgyMjQsMC4zNzM5NTggMS4wNTc2LDAuNzAzNDUzIDEuODkwMDM5LDAuOTYyMjAyIDEuNjY0ODc3LDAuNTE3NTAyIDQuMTUwNDU3LDAuODI0NzQ1IDcuNjI4ODg3LDAuODI0NzQ1IDMuNDQ2MTgzLDAgNS45MjIxODUsLTAuMzA3NTI4IDcuNTk0NTIyLC0wLjgyNDc0NSAwLjgzNjE2OSwtMC4yNTg2MDggMS40ODEyODEsLTAuNTg4OTQgMS45MjQ0MDQsLTAuOTYyMjAyIDAuNDQzMTIyLC0wLjM3MzI2MSAwLjcyMTY1MiwtMC44MTU4NDcgMC43MjE2NTIsLTEuMzA1ODQ1IDAsLTAuNTM4OTQ2IC0wLjM4MTMzOSwtMC45NzkxNjYgLTAuOTI3ODM4LC0xLjM0MDIxIEMgMzIuNzY2MjQxLDI1LjE0MjQ5NyAzMS45OTU3NSwyNC44MzE4NTQgMzEuMDc5MDU3LDI0LjU3NTcwMyAyOS4yNDU2NzMsMjQuMDYzMzk5IDI2Ljc1OTI4OSwyMy43NTA5NTggMjQsMjMuNzUwOTU4IHoiLz4mI3hhOyAgICA8cGF0aCBzdHlsZT0iZm9udC1zaXplOm1lZGl1bTtmb250LXN0eWxlOm5vcm1hbDtmb250LXZhcmlhbnQ6bm9ybWFsO2ZvbnQtd2VpZ2h0Om5vcm1hbDtmb250LXN0cmV0Y2g6bm9ybWFsO3RleHQtaW5kZW50OjA7dGV4dC1hbGlnbjpzdGFydDt0ZXh0LWRlY29yYXRpb246bm9uZTtsaW5lLWhlaWdodDpub3JtYWw7bGV0dGVyLXNwYWNpbmc6bm9ybWFsO3dvcmQtc3BhY2luZzpub3JtYWw7dGV4dC10cmFuc2Zvcm06bm9uZTtkaXJlY3Rpb246bHRyO2Jsb2NrLXByb2dyZXNzaW9uOnRiO3dyaXRpbmctbW9kZTpsci10Yjt0ZXh0LWFuY2hvcjpzdGFydDtiYXNlbGluZS1zaGlmdDpiYXNlbGluZTtvcGFjaXR5OjAuODtjb2xvcjojMDAwMDAwO2ZpbGw6dXJsKCNyYWRpYWxHcmFkaWVudDY2MDIpO2ZpbGwtb3BhY2l0eToxO2ZpbGwtcnVsZTpub256ZXJvO3N0cm9rZTpub25lO3N0cm9rZS13aWR0aDowLjkzNzc5Mzc5O21hcmtlcjpub25lO3Zpc2liaWxpdHk6dmlzaWJsZTtkaXNwbGF5OmlubGluZTtvdmVyZmxvdzp2aXNpYmxlO2VuYWJsZS1iYWNrZ3JvdW5kOmFjY3VtdWxhdGU7Zm9udC1mYW1pbHk6U2FuczstaW5rc2NhcGUtZm9udC1zcGVjaWZpY2F0aW9uOlNhbnMiIGlkPSJwYXRoODk1NCIgZD0ibSAyNCwyNC42NDI1NTEgYyAyLjQ0MDcyNiwwIDQuNjUzNDMsMC4yNzk3NTggNi4yMzAyNzQsMC43MjAzNzUgMC43ODg0MjIsMC4yMjAzMDkgMS40MTk2OCwwLjQ4ODE0MyAxLjgzMDE0MiwwLjc1OTMxNCAwLjQxMDQ2MiwwLjI3MTE3MSAwLjU2NDYxOSwwLjUxNzU0IDAuNTY0NjE5LDAuNzIwMzc1IDAsMC4yNDY5MTUgLTAuMTE5NDcsMC40Nzk2NzggLTAuNDI4MzMxLDAuNzM5ODQ1IC0wLjMwODg2MiwwLjI2MDE2OCAtMC44MTM0NSwwLjUyMTc0OSAtMS41MTg2MywwLjczOTg0NiAtMS40MTAzNTgsMC40MzYxOTMgLTMuNjA5ODY2LDAuNzIwMzc1IC02LjY3ODA3NCwwLjcyMDM3NSAtMy4wOTc1NzgsMCAtNS4zMTQ1MzksLTAuMjg0NDM3IC02LjcxNzAxMywtMC43MjAzNzUgLTAuNzAxMjM3LC0wLjIxNzk2OSAtMS4xOTUwMTUsLTAuNDgwMzA0IC0xLjQ5OTE2LC0wLjczOTg0NiAtMC4zMDQxNDUsLTAuMjU5NTQxIC0wLjQwODg2MiwtMC40OTA4NjIgLTAuNDA4ODYyLC0wLjczOTg0NSAwLC0wLjIwMjgzNSAwLjE1NDE1NywtMC40NDkyMDQgMC41NjQ2MTksLTAuNzIwMzc1IDAuNDEwNDYyLC0wLjI3MTE3MSAxLjA0MTcyLC0wLjUzOTAwNSAxLjgzMDE0MiwtMC43NTkzMTQgQyAxOS4zNDY1NywyNC45MjIzMDkgMjEuNTU5Mjc0LDI0LjY0MjU1MSAyNCwyNC42NDI1NTEgeiIvPiYjeGE7ICA8L2c+JiN4YTsgIDxnIHN0eWxlPSJkaXNwbGF5OmlubGluZSIgaWQ9ImxheWVyMSI+JiN4YTsgICAgPHBhdGggc3R5bGU9ImZvbnQtc2l6ZTptZWRpdW07Zm9udC1zdHlsZTpub3JtYWw7Zm9udC12YXJpYW50Om5vcm1hbDtmb250LXdlaWdodDpub3JtYWw7Zm9udC1zdHJldGNoOm5vcm1hbDt0ZXh0LWluZGVudDowO3RleHQtYWxpZ246c3RhcnQ7dGV4dC1kZWNvcmF0aW9uOm5vbmU7bGluZS1oZWlnaHQ6bm9ybWFsO2xldHRlci1zcGFjaW5nOm5vcm1hbDt3b3JkLXNwYWNpbmc6bm9ybWFsO3RleHQtdHJhbnNmb3JtOm5vbmU7ZGlyZWN0aW9uOmx0cjtibG9jay1wcm9ncmVzc2lvbjp0Yjt3cml0aW5nLW1vZGU6bHItdGI7dGV4dC1hbmNob3I6c3RhcnQ7YmFzZWxpbmUtc2hpZnQ6YmFzZWxpbmU7b3BhY2l0eTowLjU7Y29sb3I6IzAwMDAwMDtmaWxsOnVybCgjbGluZWFyR3JhZGllbnQ1NjQxKTtmaWxsLW9wYWNpdHk6MTtmaWxsLXJ1bGU6bm9uemVybztzdHJva2U6bm9uZTtzdHJva2Utd2lkdGg6MC45Mzc3OTM3OTttYXJrZXI6bm9uZTt2aXNpYmlsaXR5OnZpc2libGU7ZGlzcGxheTppbmxpbmU7b3ZlcmZsb3c6dmlzaWJsZTtlbmFibGUtYmFja2dyb3VuZDphY2N1bXVsYXRlO2ZvbnQtZmFtaWx5OlNhbnM7LWlua3NjYXBlLWZvbnQtc3BlY2lmaWNhdGlvbjpTYW5zIiBpZD0icGF0aDg2ODciIGQ9Im0gMjQsMzMuNTMxMjUgYyAtMy45ODgzMzgsMCAtNy41OTk5ODcsMC40NDcwMDUgLTEwLjI1LDEuMTg3NSAtMS4zMjUwMDcsMC4zNzAyNDcgLTIuMzk3NTc5LDAuODIxODkgLTMuMTg3NSwxLjM0Mzc1IEMgOS43NzI1Nzg4LDM2LjU4NDM2IDkuMjE4NzUsMzcuMjIwOTk0IDkuMjE4NzUsMzggYyAwLDAuNzA0OTM4IDAuMzY2NTgxNiwxLjM2NTcyNCAxLDEuOTA2MjUgMC42MzM0MTgsMC41NDA1MjYgMS41NDY3NzUsMS4wMDA5OTYgMi43NSwxLjM3NSAyLjQwNjQ1LDAuNzQ4MDA4IDYuMDAzNDUsMS4xODc1IDExLjAzMTI1LDEuMTg3NSA0Ljk4MTE4OSwwIDguNTgyNzY2LC0wLjQzOTkwMyAxMSwtMS4xODc1IDEuMjA4NjE3LC0wLjM3Mzc5OSAyLjE0MDc1MSwtMC44MzU0NzkgMi43ODEyNSwtMS4zNzUgMC42NDA0OTksLTAuNTM5NTIxIDEsLTEuMTk3OTk2IDEsLTEuOTA2MjUgMCwtMC43NzkwMDYgLTAuNTUzODI5LC0xLjQxNTY0IC0xLjM0Mzc1LC0xLjkzNzUgQyAzNi42NDc1NzksMzUuNTQwNjQgMzUuNTc1MDA3LDM1LjA4ODk5NyAzNC4yNSwzNC43MTg3NSAzMS41OTk5ODcsMzMuOTc4MjU1IDI3Ljk4ODMzNywzMy41MzEyNSAyNCwzMy41MzEyNSB6IG0gMCwwLjkzNzUgYyAzLjkxNzUyNywwIDcuNDY5MDYyLDAuNDQ5MDI5IDEwLDEuMTU2MjUgMS4yNjU0NjksMC4zNTM2MTEgMi4yNzg2ODEsMC43ODM1MDMgMi45Mzc1LDEuMjE4NzUgMC42NTg4MTksMC40MzUyNDcgMC45MDYyNSwwLjgzMDY4NiAwLjkwNjI1LDEuMTU2MjUgMCwwLjM5NjMxNSAtMC4xOTE3NTgsMC43Njk5MTQgLTAuNjg3NSwxLjE4NzUgLTAuNDk1NzQyLDAuNDE3NTg2IC0xLjMwNTY0MSwwLjgzNzQ0MSAtMi40Mzc1LDEuMTg3NSBDIDMyLjQ1NTAzMiw0MS4wNzUxMTggMjguOTI0Njc2LDQxLjUzMTI1IDI0LDQxLjUzMTI1IDE5LjAyODE4NCw0MS41MzEyNSAxNS40Njk4MTMsNDEuMDc0NzA4IDEzLjIxODc1LDQwLjM3NSAxMi4wOTMyMTgsNDAuMDI1MTQ2IDExLjMwMDY3MywzOS42MDQwODEgMTAuODEyNSwzOS4xODc1IDEwLjMyNDMyNywzOC43NzA5MTkgMTAuMTU2MjUsMzguMzk5NjMyIDEwLjE1NjI1LDM4IGMgMCwtMC4zMjU1NjQgMC4yNDc0MzEsLTAuNzIxMDAzIDAuOTA2MjUsLTEuMTU2MjUgMC42NTg4MTksLTAuNDM1MjQ3IDEuNjcyMDMxLC0wLjg2NTEzOSAyLjkzNzUsLTEuMjE4NzUgMi41MzA5MzgsLTAuNzA3MjIxIDYuMDgyNDczLC0xLjE1NjI1IDEwLC0xLjE1NjI1IHoiLz4mI3hhOyAgICA8cGF0aCBzdHlsZT0iZmlsbDp1cmwoI2xpbmVhckdyYWRpZW50ODcyMik7ZmlsbC1vcGFjaXR5OjE7c3Ryb2tlOiM4ODhhODU7c3Ryb2tlLXdpZHRoOjEuNDQwNjg5MjE7c3Ryb2tlLWxpbmVjYXA6cm91bmQ7c3Ryb2tlLWxpbmVqb2luOnJvdW5kO3N0cm9rZS1taXRlcmxpbWl0OjQ7c3Ryb2tlLW9wYWNpdHk6MTtzdHJva2UtZGFzaGFycmF5Om5vbmU7ZGlzcGxheTppbmxpbmUiIGlkPSJwYXRoMzc4NS0wIiB0cmFuc2Zvcm09Im1hdHJpeCgwLjYyMjc0NDgxLDAsMCwwLjc3MzY1ODQ4LDguOTIxNTExOSwtMC41NzYwOTYzKSIgZD0ibSAzMi40MjU4OTcsOC41IGEgOC4yMTI5NDg4LDEuNSAwIDEgMSAtMTYuNDI1ODk4LDAgOC4yMTI5NDg4LDEuNSAwIDEgMSAxNi40MjU4OTgsMCB6Ii8+JiN4YTsgICAgPHBhdGggc3R5bGU9ImZpbGw6IzAwMDAwMDtmaWxsLW9wYWNpdHk6MC4wMzc3MzU4MjtzdHJva2U6bm9uZSIgaWQ9InBhdGg4NjM4IiBkPSJtIDEyLjIxOTY4OSw0MS4wODkyNDMgYyAtMS41MDI2MDIsLTAuNzk1NDk1IC0wLjkwNTk4LC0zLjIyNjE3NSAwLjMzMTQ1OCwtNC45OTM5NDIgMS4yMzc0MzcsLTEuNzY3NzY3IDguODY5MTY2LC0xNy4zMjQxMTYgOS4zMTExMDcsLTE4LjM4NDc3NiBsIDAsLTguNzQwMTgzMiAxLjkyODA4MiwwLjExOTg2ODUgMC4wNDQxOSw4Ljk2NDA2NDcgYyAwLDAgLTMuNjg3NzM2LDEzLjY1ODg4MyAtNS42MDQ0MjcsMjAuNjQ4NDgyIC0wLjMyMDMxMiwxLjE2ODA4MiAtMS4yODE2MzEsMi4yOTgwOTggMC4yNjUxNjUsMy42MjM5MjMgLTMuMjcwMzY5LC0wLjQ2NDAzOSAtNC4wODc5NjMsLTAuNTUyNDI3IC02LjI3NTU3NSwtMS4yMzc0MzcgeiIvPiYjeGE7ICAgIDxwYXRoIHN0eWxlPSJmaWxsOiMwMDAwMDA7ZmlsbC1vcGFjaXR5OjAuMDU2NjAzNzY7c3Ryb2tlOm5vbmUiIGlkPSJwYXRoODY0MCIgZD0ibSAzNy4wNzA0Miw0MC4zMzM4ODEgYyAxLjUwMDU4OSwtMC43OTg3ODkgMC44Mzk2ODksLTMuMzE0NTYzIC0wLjM5Nzc0OSwtNS4wODIzMyAtMS4yMzc0MzcsLTEuNzY3NzY3IC04Ljg2OTE2NiwtMTcuMzI0MTE2IC05LjMxMTEwNywtMTguMzg0Nzc2IGwgMCwtOC4wNjgzMDgyIC0wLjk0MzcwNywwLjE2Njc0MzUgLTAuMDI4NTcsOC4yNDUzMTQ3IGMgMCwwIDUuMTU2NDg2LDEzLjgxNTEzMyA3LjA3MzE3NywyMC44MDQ3MzIgMC4zMjAzMTIsMS4xNjgwODIgMS4yODE2MzEsMi4yOTgwOTggLTAuMjY1MTY1LDMuNjIzOTIzIDMuMjcwMzY5LC0wLjQ2NDAzOSAxLjg0OTU5OCwtMC4yMjgxNDUgMy44NzMxMjEsLTEuMzA1Mjk5IHoiLz4mI3hhOyAgICA8cGF0aCBzdHlsZT0ib3BhY2l0eTowLjU7ZmlsbDpub25lO3N0cm9rZTojZDNkN2NmO3N0cm9rZS13aWR0aDoxO3N0cm9rZS1saW5lY2FwOnJvdW5kO3N0cm9rZS1saW5lam9pbjpyb3VuZDtzdHJva2UtbWl0ZXJsaW1pdDo0O3N0cm9rZS1vcGFjaXR5OjE7c3Ryb2tlLWRhc2hhcnJheTpub25lIiBpZD0icGF0aDM4MzUiIGQ9Im0gMjguMjk0NDQ4LDkuMTAyMzg1IGMgLTEuNTgzMDUsMC4yNzEwNDM3IC0yLjA1NTU4LDAuNDk2MzIzNCAtNC4yOTAyMjcsMC40OTYzMjM0IC0yLjIzNDY0NiwwIC0yLjk1NDkyLC0wLjI4NjEwMzggLTQuMzE0Mjk1LC0wLjQ0OTQ0ODEiLz4mI3hhOyAgICA8cGF0aCBzdHlsZT0ib3BhY2l0eTowLjc1O2ZpbGw6bm9uZTtzdHJva2U6dXJsKCNyYWRpYWxHcmFkaWVudDg2ODMpO3N0cm9rZS13aWR0aDoyO3N0cm9rZS1saW5lY2FwOnJvdW5kO3N0cm9rZS1saW5lam9pbjpyb3VuZDtzdHJva2UtbWl0ZXJsaW1pdDo0O3N0cm9rZS1vcGFjaXR5OjE7c3Ryb2tlLWRhc2hhcnJheTpub25lIiBpZD0icGF0aDc3OTUiIGQ9Im0gMjguMDE4NTI4LDE3LjYzNDQzMiBjIC0wLjkzMzE3NiwwLjgyODQyNyAtMy4yNDUyMTgsMC45MTk4NDMgLTQuMDc0NjI3LDAuOTE5ODQzIC0wLjk0MjUyMywwIC0yLjI5MzExMSwwLjA2MzI2IC00LjA3NDYyOCwtMC44MzE0NTUiLz4mI3hhOyAgICA8cGF0aCBzdHlsZT0ib3BhY2l0eTowLjE7ZmlsbDpub25lO3N0cm9rZTojZmZmZmZmO3N0cm9rZS13aWR0aDoxLjk5OTk5OTg4O3N0cm9rZS1saW5lY2FwOnJvdW5kO3N0cm9rZS1saW5lam9pbjpyb3VuZDtzdHJva2UtbWl0ZXJsaW1pdDo0O3N0cm9rZS1vcGFjaXR5OjE7c3Ryb2tlLWRhc2hhcnJheTpub25lIiBpZD0icGF0aDg3MzYiIGQ9Im0gMzguNTc5NDg0LDM2LjMwODkzOCBjIC0zLjMyMzU4NSwxLjg5Njc4MyAtMTEuNjgzMTE2LDIuNjA2MDkxIC0xNC42MzcxMjYsMi42MDYwOTEgLTMuMzU2ODc1LDAgLTguMDQyMTA4LC0wLjM1NTE1OSAtMTQuMzg3MTMwMywtMi40MDM3MTYiLz4mI3hhOyAgICA8cGF0aCBzdHlsZT0ib3BhY2l0eTowLjU7ZmlsbDp1cmwoI2xpbmVhckdyYWRpZW50ODcxNCk7ZmlsbC1vcGFjaXR5OjE7c3Ryb2tlOm5vbmUiIGlkPSJwYXRoODcwNCIgZD0ibSAxOC45Mzc1LDYuODEyNDk5OSBjIC0wLjE1NjI1LDEuMjM0Mzc1IC0wLjA1MDkxLDEuNjM1MDc2NCAxLjI1LDEuODkwNjI1IDEuMzA2MDI4LDAuMjU2NTUyOSAyLjE3MTU3OCwwLjM1NTYwNTQgMy43NDk3MDMsMC4zODY4NTU0IDAuOTg5NjE3LDAuMDE5NTk2IDIuODAxODg0LC0wLjE0ODgzNyAzLjgzNTQ5OCwtMC4zODAzOTgxIEMgMjguNTc2MzU2LDguNTI5NTM4OCAyOC44MTE1NjksOC4zNjkyNDQ5IDI5LjAwNTUyNCw4LjA0ODc3MDUgMjkuMzA0Mjk1LDcuNTU1MTA3OSAyOS4xNzQ4ODEsNy4wMjM4MyAyOS4wOTg0ODQsNi44MDUwOCAyOC4wOTU2NDEsNy4zODQzMTU0IDI2LjIzNDM3LDcuNzAzMTI0OSAyMy44MTI0OTUsNy42NTYyNDk5IDIxLjM5MDYyLDcuNjA5Mzc0OSAxOS41NzgxMiw3LjI0OTk5OTkgMTguOTM3NSw2LjgxMjQ5OTkgeiIvPiYjeGE7ICAgIDxwYXRoIHN0eWxlPSJvcGFjaXR5OjAuMTtmaWxsOm5vbmU7c3Ryb2tlOiMyZTM0MzY7c3Ryb2tlLXdpZHRoOjEuOTk5OTk5ODg7c3Ryb2tlLWxpbmVjYXA6cm91bmQ7c3Ryb2tlLWxpbmVqb2luOnJvdW5kO3N0cm9rZS1taXRlcmxpbWl0OjQ7c3Ryb2tlLW9wYWNpdHk6MTtzdHJva2UtZGFzaGFycmF5Om5vbmUiIGlkPSJwYXRoOTAzMCIgZD0ibSAzOC41Nzk0ODQsMzguMzQxODcgYyAtMy4zMjM1ODUsMS44OTY3ODMgLTExLjY4MzExNiwyLjUxNzcwMyAtMTQuNjM3MTI2LDIuNTE3NzAzIC0zLjM1Njg3NSwwIC04LjA0MjEwOCwtMC4yNjY3NzEgLTE0LjM4NzEzMDMsLTIuMzE1MzI4Ii8+JiN4YTsgICAgPHBhdGggc3R5bGU9ImZpbGw6bm9uZTtzdHJva2U6Izg4OGE4NTtzdHJva2Utd2lkdGg6MC45OTk5OTk4OHB4O3N0cm9rZS1saW5lY2FwOmJ1dHQ7c3Ryb2tlLWxpbmVqb2luOm1pdGVyO3N0cm9rZS1vcGFjaXR5OjE7ZGlzcGxheTppbmxpbmUiIGlkPSJwYXRoODY4NSIgZD0ibSAxOS4yMjgzOTEsNS42MDIzODUzIGMgLTAuOTU0MzIzLDAuMjUgLTEuNDk2MDQsMy4wMzg1MTg1IDAuNDc3MTYsMy41IGwgMCw3Ljk5OTk5OTcgLTkuOTg5NDYwNSwxNi45MTc2OTcgQyA4LjUyMTc3NjEsMzYuMDQyNzE5IDcuMTkxODExMSwzOS4yMDM4ODMgMTEuMTQ0NTY2LDQxLjIwODYzMiAxMy42OTc3NTQsNDIuMjcxOTEyIDE4LjIzNTU2LDQzIDI0LDQzIGMgNS43NjQ0NDEsMCAxMC4zMDIyNDYsLTAuNzI4MDg4IDEyLjg1NTQzNCwtMS43OTEzNjggMy45NTI3NTUsLTIuMDA0NzQ5IDIuNjIyNzksLTUuMTY1OTEzIDEuNDI4NDc2LC03LjE4ODU1IGwgLTkuOTg5NDYyLC0xNi45MTc2OTcgMCwtOCBjIDIuMTI3ODgyLC0wLjU0OTg2OTkgMS40MzE0ODUsLTMuMjUgMC40NzcxNjIsLTMuNSIvPiYjeGE7ICA8L2c+JiN4YTs8L3N2Zz4=;" parent="1" vertex="1">
          <mxGeometry x="211" y="444" width="48" height="48" as="geometry" />
        </mxCell>
        <mxCell id="nG6xrg7lqNMgTBw8rrxf-2" value="" style="shape=image;verticalLabelPosition=bottom;labelBackgroundColor=default;verticalAlign=top;aspect=fixed;imageAspect=0;image=data:image/svg+xml,PHN2ZyB4bWxuczp4bGluaz0iaHR0cDovL3d3dy53My5vcmcvMTk5OS94bGluayIgeG1sbnM9Imh0dHA6Ly93d3cudzMub3JnLzIwMDAvc3ZnIiBpZD0ic3ZnMjY3NiIgaGVpZ2h0PSI0OCIgd2lkdGg9IjQ4IiB2ZXJzaW9uPSIxLjEiIHZpZXdCb3g9IjAgMCA0OCA0OCI+JiN4YTsgIDxkZWZzIGlkPSJkZWZzMjY3OCI+JiN4YTsgICAgPGxpbmVhckdyYWRpZW50IGlkPSJsaW5lYXJHcmFkaWVudDY2MTAiPiYjeGE7ICAgICAgPHN0b3Agb2Zmc2V0PSIwIiBzdHlsZT0ic3RvcC1jb2xvcjojZDIxNjE2O3N0b3Atb3BhY2l0eToxIiBpZD0ic3RvcDY2MTIiLz4mI3hhOyAgICAgIDxzdG9wIG9mZnNldD0iMC41IiBzdHlsZT0ic3RvcC1jb2xvcjojZTcxZTFlO3N0b3Atb3BhY2l0eTowLjQ5ODAzOTIyIiBpZD0ic3RvcDY2MTgiLz4mI3hhOyAgICAgIDxzdG9wIG9mZnNldD0iMSIgc3R5bGU9InN0b3AtY29sb3I6I2QyMTYxNjtzdG9wLW9wYWNpdHk6MSIgaWQ9InN0b3A2NjE0Ii8+JiN4YTsgICAgPC9saW5lYXJHcmFkaWVudD4mI3hhOyAgICA8bGluZWFyR3JhZGllbnQgaWQ9ImxpbmVhckdyYWRpZW50NjU4OCI+JiN4YTsgICAgICA8c3RvcCBvZmZzZXQ9IjAiIHN0eWxlPSJzdG9wLWNvbG9yOiNiOTEzMTM7c3RvcC1vcGFjaXR5OjEiIGlkPSJzdG9wNjU5MCIvPiYjeGE7ICAgICAgPHN0b3Agb2Zmc2V0PSIxIiBzdHlsZT0ic3RvcC1jb2xvcjojZDExNjE2O3N0b3Atb3BhY2l0eToxIiBpZD0ic3RvcDY1OTIiLz4mI3hhOyAgICA8L2xpbmVhckdyYWRpZW50PiYjeGE7ICAgIDxsaW5lYXJHcmFkaWVudCBpZD0ibGluZWFyR3JhZGllbnQzMTczIj4mI3hhOyAgICAgIDxzdG9wIG9mZnNldD0iMCIgc3R5bGU9InN0b3AtY29sb3I6IzcyOWZjZjtzdG9wLW9wYWNpdHk6MSIgaWQ9InN0b3AzMTc1Ii8+JiN4YTsgICAgICA8c3RvcCBvZmZzZXQ9IjEiIHN0eWxlPSJzdG9wLWNvbG9yOiM3MjlmY2Y7c3RvcC1vcGFjaXR5OjAiIGlkPSJzdG9wMzE3NyIvPiYjeGE7ICAgIDwvbGluZWFyR3JhZGllbnQ+JiN4YTsgICAgPGxpbmVhckdyYWRpZW50IGlkPSJsaW5lYXJHcmFkaWVudDkwODciPiYjeGE7ICAgICAgPHN0b3Agb2Zmc2V0PSIwIiBzdHlsZT0ic3RvcC1jb2xvcjojZmZmZmZmO3N0b3Atb3BhY2l0eToxIiBpZD0ic3RvcDkwODkiLz4mI3hhOyAgICAgIDxzdG9wIG9mZnNldD0iMSIgc3R5bGU9InN0b3AtY29sb3I6I2YyZjJmMjtzdG9wLW9wYWNpdHk6MCIgaWQ9InN0b3A5MDkxIi8+JiN4YTsgICAgPC9saW5lYXJHcmFkaWVudD4mI3hhOyAgICA8bGluZWFyR3JhZGllbnQgaWQ9ImxpbmVhckdyYWRpZW50OTA3NSI+JiN4YTsgICAgICA8c3RvcCBvZmZzZXQ9IjAiIHN0eWxlPSJzdG9wLWNvbG9yOiNjZGNkY2Q7c3RvcC1vcGFjaXR5OjEiIGlkPSJzdG9wOTA3NyIvPiYjeGE7ICAgICAgPHN0b3Agb2Zmc2V0PSIwLjcwODMwNjczIiBzdHlsZT0ic3RvcC1jb2xvcjojZmZmZmZmO3N0b3Atb3BhY2l0eTowLjMxNjIzOTMzIiBpZD0ic3RvcDkwNzkiLz4mI3hhOyAgICAgIDxzdG9wIG9mZnNldD0iMSIgc3R5bGU9InN0b3AtY29sb3I6I2Q2ZDZkNjtzdG9wLW9wYWNpdHk6MSIgaWQ9InN0b3A5MDgxIi8+JiN4YTsgICAgPC9saW5lYXJHcmFkaWVudD4mI3hhOyAgICA8bGluZWFyR3JhZGllbnQgaWQ9ImxpbmVhckdyYWRpZW50OTAxMSI+JiN4YTsgICAgICA8c3RvcCBvZmZzZXQ9IjAiIHN0eWxlPSJzdG9wLWNvbG9yOiM3MjlmY2Y7c3RvcC1vcGFjaXR5OjEiIGlkPSJzdG9wOTAxMyIvPiYjeGE7ICAgICAgPHN0b3Agb2Zmc2V0PSIwLjUiIHN0eWxlPSJzdG9wLWNvbG9yOiM0OTgzYzE7c3RvcC1vcGFjaXR5OjAuNDk4MDM5MjIiIGlkPSJzdG9wOTAyMSIvPiYjeGE7ICAgICAgPHN0b3Agb2Zmc2V0PSIxIiBzdHlsZT0ic3RvcC1jb2xvcjojNzI5ZmNmO3N0b3Atb3BhY2l0eToxIiBpZD0ic3RvcDkwMTUiLz4mI3hhOyAgICA8L2xpbmVhckdyYWRpZW50PiYjeGE7ICAgIDxsaW5lYXJHcmFkaWVudCBpZD0ibGluZWFyR3JhZGllbnQ4OTgwIj4mI3hhOyAgICAgIDxzdG9wIG9mZnNldD0iMCIgc3R5bGU9InN0b3AtY29sb3I6IzYwOTJjOTtzdG9wLW9wYWNpdHk6MSIgaWQ9InN0b3A4OTgyIi8+JiN4YTsgICAgICA8c3RvcCBvZmZzZXQ9IjEiIHN0eWxlPSJzdG9wLWNvbG9yOiM3MDlkY2U7c3RvcC1vcGFjaXR5OjAuNjgzNzYwNyIgaWQ9InN0b3A4OTg0Ii8+JiN4YTsgICAgPC9saW5lYXJHcmFkaWVudD4mI3hhOyAgICA8bGluZWFyR3JhZGllbnQgaWQ9ImxpbmVhckdyYWRpZW50ODcyNiI+JiN4YTsgICAgICA8c3RvcCBvZmZzZXQ9IjAiIHN0eWxlPSJzdG9wLWNvbG9yOiNmZmZmZmY7c3RvcC1vcGFjaXR5OjAiIGlkPSJzdG9wODcyOCIvPiYjeGE7ICAgICAgPHN0b3Agb2Zmc2V0PSIwLjYxNzYzMDc4IiBzdHlsZT0ic3RvcC1jb2xvcjojZmZmZmZmO3N0b3Atb3BhY2l0eTowIiBpZD0ic3RvcDg3MzAiLz4mI3hhOyAgICAgIDxzdG9wIG9mZnNldD0iMC43NDU5NzA5IiBzdHlsZT0ic3RvcC1jb2xvcjojZmZmZmZmO3N0b3Atb3BhY2l0eToxIiBpZD0ic3RvcDg3MzIiLz4mI3hhOyAgICAgIDxzdG9wIG9mZnNldD0iMSIgc3R5bGU9InN0b3AtY29sb3I6I2ZmZmZmZjtzdG9wLW9wYWNpdHk6MCIgaWQ9InN0b3A4NzM0Ii8+JiN4YTsgICAgPC9saW5lYXJHcmFkaWVudD4mI3hhOyAgICA8bGluZWFyR3JhZGllbnQgaWQ9ImxpbmVhckdyYWRpZW50ODY3MSI+JiN4YTsgICAgICA8c3RvcCBvZmZzZXQ9IjAiIHN0eWxlPSJzdG9wLWNvbG9yOiNkYWRhZDY7c3RvcC1vcGFjaXR5OjEiIGlkPSJzdG9wODY3MyIvPiYjeGE7ICAgICAgPHN0b3Agb2Zmc2V0PSIwLjUiIHN0eWxlPSJzdG9wLWNvbG9yOiNlNGU0ZTE7c3RvcC1vcGFjaXR5OjAuNDk4MDM5MjIiIGlkPSJzdG9wOTA4MyIvPiYjeGE7ICAgICAgPHN0b3Agb2Zmc2V0PSIxIiBzdHlsZT0ic3RvcC1jb2xvcjojZGFkYWQ2O3N0b3Atb3BhY2l0eToxIiBpZD0ic3RvcDg2NzUiLz4mI3hhOyAgICA8L2xpbmVhckdyYWRpZW50PiYjeGE7ICAgIDxsaW5lYXJHcmFkaWVudCBpZD0ibGluZWFyR3JhZGllbnQ4NjYxIj4mI3hhOyAgICAgIDxzdG9wIG9mZnNldD0iMCIgc3R5bGU9InN0b3AtY29sb3I6I2NkY2RjZDtzdG9wLW9wYWNpdHk6MSIgaWQ9InN0b3A4NjYzIi8+JiN4YTsgICAgICA8c3RvcCBvZmZzZXQ9IjAuNSIgc3R5bGU9InN0b3AtY29sb3I6I2ZmZmZmZjtzdG9wLW9wYWNpdHk6MC4zMTYyMzkzMyIgaWQ9InN0b3A4NjY5Ii8+JiN4YTsgICAgICA8c3RvcCBvZmZzZXQ9IjEiIHN0eWxlPSJzdG9wLWNvbG9yOiNkNmQ2ZDY7c3RvcC1vcGFjaXR5OjEiIGlkPSJzdG9wODY2NSIvPiYjeGE7ICAgIDwvbGluZWFyR3JhZGllbnQ+JiN4YTsgICAgPGZpbHRlciBpZD0iZmlsdGVyMzM5NSIgY29sb3ItaW50ZXJwb2xhdGlvbi1maWx0ZXJzPSJzUkdCIiBoZWlnaHQ9IjIuNDE4MzAwMiIgd2lkdGg9IjEuMTEzNzk3MSIgeT0iLTAuNzA5MTUwMDgiIHg9Ii0wLjA1Njg5ODU0NSI+JiN4YTsgICAgICA8ZmVHYXVzc2lhbkJsdXIgc3RkRGV2aWF0aW9uPSIwLjk3OTgwNzI5IiBpZD0iZmVHYXVzc2lhbkJsdXIzMzk3Ii8+JiN4YTsgICAgPC9maWx0ZXI+JiN4YTsgICAgPHJhZGlhbEdyYWRpZW50IGdyYWRpZW50VHJhbnNmb3JtPSJtYXRyaXgoMC4zNDk3ODgwMSwwLjAwNTMxMDczLC0wLjAwMzU5NDA5LDAuMTQ0NTQ0NzksMTUuNTgwMjEyLDE3LjAwOTQ4OSkiIGdyYWRpZW50VW5pdHM9InVzZXJTcGFjZU9uVXNlIiB4bGluazpocmVmPSIjbGluZWFyR3JhZGllbnQ4NzI2IiBpZD0icmFkaWFsR3JhZGllbnQ4NjgzIiBmeT0iLTAuNzIzNDA0MDUiIGZ4PSIyMy44ODE3OTIiIHI9IjE1LjQ3NTE5NSIgY3k9Ii0wLjcyMzQwNDA1IiBjeD0iMjMuODgxNzkyIi8+JiN4YTsgICAgPGxpbmVhckdyYWRpZW50IGdyYWRpZW50VHJhbnNmb3JtPSJ0cmFuc2xhdGUoMCwxKSIgZ3JhZGllbnRVbml0cz0idXNlclNwYWNlT25Vc2UiIHhsaW5rOmhyZWY9IiNsaW5lYXJHcmFkaWVudDkwNzUiIGlkPSJsaW5lYXJHcmFkaWVudDg3MTQiIHkyPSI2Ljg0Mzc1IiB4Mj0iMjcuODQzNzUiIHkxPSI3LjE4NzUiIHgxPSIyNSIvPiYjeGE7ICAgIDxsaW5lYXJHcmFkaWVudCBncmFkaWVudFVuaXRzPSJ1c2VyU3BhY2VPblVzZSIgeGxpbms6aHJlZj0iI2xpbmVhckdyYWRpZW50ODY3MSIgaWQ9ImxpbmVhckdyYWRpZW50ODcyMiIgeTI9IjguOTUzNTIyNyIgeDI9IjIzLjg3MTI4MyIgeTE9IjguMjUwNDY3MyIgeDE9IjE5Ljk1OTk4OCIvPiYjeGE7ICAgIDxyYWRpYWxHcmFkaWVudCBncmFkaWVudFRyYW5zZm9ybT0ibWF0cml4KC0wLjM3NjcxMDg4LC0wLjI1NzE3NzY3LDAuMTUxMTM3OTMsLTAuMjIxMzg0NjksMzEuMzg2NTQsNTIuOTIxMDA1KSIgZ3JhZGllbnRVbml0cz0idXNlclNwYWNlT25Vc2UiIHhsaW5rOmhyZWY9IiNsaW5lYXJHcmFkaWVudDg2NzEiIGlkPSJyYWRpYWxHcmFkaWVudDg3NTAiIGZ5PSIzOS41MDI1OTgiIGZ4PSIyNy42NTg4MjciIHI9IjE3LjI1NDYxMiIgY3k9IjM5LjUwMjU5OCIgY3g9IjI3LjY1ODgyNyIvPiYjeGE7ICAgIDxsaW5lYXJHcmFkaWVudCBncmFkaWVudFRyYW5zZm9ybT0idHJhbnNsYXRlKDAsMSkiIGdyYWRpZW50VW5pdHM9InVzZXJTcGFjZU9uVXNlIiB4bGluazpocmVmPSIjbGluZWFyR3JhZGllbnQ4NjYxIiBpZD0ibGluZWFyR3JhZGllbnQ4NzUyIiB5Mj0iMjMuMzAxMTkxIiB4Mj0iMzEuNjAzMTA3IiB5MT0iMjQuMDk2Njg3IiB4MT0iMjAuOTkzMDg4Ii8+JiN4YTsgICAgPHJhZGlhbEdyYWRpZW50IGdyYWRpZW50VHJhbnNmb3JtPSJtYXRyaXgoMC44MTQwMjc1MywwLjAzMDE0OTIyLC0wLjAwOTM0OTEzLDAuMjUyNDI3NjYsNC42MjkzNDg3LDE5LjM1Nzk0NSkiIGdyYWRpZW50VW5pdHM9InVzZXJTcGFjZU9uVXNlIiB4bGluazpocmVmPSIjbGluZWFyR3JhZGllbnQ4OTgwIiBpZD0icmFkaWFsR3JhZGllbnQ5MDk3IiBmeT0iMjYuNjIzNzIyIiBmeD0iMjAuNjA0MTA3IiByPSI4LjcwOTY1MzkiIGN5PSIyNi42MjM3MjIiIGN4PSIyMC42MDQxMDciLz4mI3hhOyAgICA8bGluZWFyR3JhZGllbnQgZ3JhZGllbnRVbml0cz0idXNlclNwYWNlT25Vc2UiIHhsaW5rOmhyZWY9IiNsaW5lYXJHcmFkaWVudDMxNzMiIGlkPSJsaW5lYXJHcmFkaWVudDMxNzkiIHkyPSIxOS4zNzUiIHgyPSItOC4wNjI1IiB5MT0iMTkuNzUiIHgxPSItMTIuNSIvPiYjeGE7ICAgIDxsaW5lYXJHcmFkaWVudCBpZD0ibGluZWFyR3JhZGllbnQ4OTgwLTgwMSI+JiN4YTsgICAgICA8c3RvcCBvZmZzZXQ9IjAiIHN0eWxlPSJzdG9wLWNvbG9yOiM2MDkyYzk7c3RvcC1vcGFjaXR5OjEiIGlkPSJzdG9wMzM2OCIvPiYjeGE7ICAgICAgPHN0b3Agb2Zmc2V0PSIxIiBzdHlsZT0ic3RvcC1jb2xvcjojNzA5ZGNlO3N0b3Atb3BhY2l0eTowLjY4Mzc2MDciIGlkPSJzdG9wMzM3MCIvPiYjeGE7ICAgIDwvbGluZWFyR3JhZGllbnQ+JiN4YTsgICAgPGxpbmVhckdyYWRpZW50IGdyYWRpZW50VW5pdHM9InVzZXJTcGFjZU9uVXNlIiB4bGluazpocmVmPSIjbGluZWFyR3JhZGllbnQ5MDg3IiBpZD0ibGluZWFyR3JhZGllbnQ1NjQxIiB5Mj0iMzUuMDUxMTA1IiB4Mj0iMjUuMTQ2NDg0IiB5MT0iMzguOTQwMTkzIiB4MT0iMjUuMjc5MDY4Ii8+JiN4YTsgICAgPHJhZGlhbEdyYWRpZW50IGdyYWRpZW50VHJhbnNmb3JtPSJtYXRyaXgoMC40MzQ3ODA4NSwtMC4xMDg2OTUyNSwwLjA2MTg2NTc1LDAuMjQ3NDYyOTQsMTAuNTY0Mzg5LDIyLjU3MjYxNikiIGdyYWRpZW50VW5pdHM9InVzZXJTcGFjZU9uVXNlIiB4bGluazpocmVmPSIjbGluZWFyR3JhZGllbnQ2NTg4IiBpZD0icmFkaWFsR3JhZGllbnQ2NjAyIiBmeT0iMjcuOTQ5NjYzIiBmeD0iMjEuNzUiIHI9IjguNjI1MDM1MyIgY3k9IjI3Ljk0OTY2MyIgY3g9IjIxLjc1Ii8+JiN4YTsgICAgPGxpbmVhckdyYWRpZW50IGdyYWRpZW50VW5pdHM9InVzZXJTcGFjZU9uVXNlIiB4bGluazpocmVmPSIjbGluZWFyR3JhZGllbnQ2NjEwIiBpZD0ibGluZWFyR3JhZGllbnQ2NjE2IiB5Mj0iMzEuMjA2MjE1IiB4Mj0iMzMuMDU3MjQiIHkxPSIzMi44ODU1OTMiIHgxPSIyNS4zNjc0NTYiLz4mI3hhOyAgPC9kZWZzPiYjeGE7ICA8bWV0YWRhdGEgaWQ9Im1ldGFkYXRhMjY4MSI+JiN4YTsgICAgJiN4YTsgICAgICAmI3hhOyAgICAgICAgaW1hZ2Uvc3ZnK3htbCYjeGE7ICAgICAgICAmI3hhOyAgICAgICAgJiN4YTsgICAgICAgICYjeGE7ICAgICAgICBNYXkyMDA3JiN4YTsgICAgICAgICYjeGE7ICAgICAgICAgICYjeGE7ICAgICAgICAgICAgRi5CZWxsYWljaGUgJmx0O2ZyZWRlcmljLmJlbGxhaWNoZUBnbWFpbC5jb20mZ3Q7JiN4YTsgICAgICAgICAgJiN4YTsgICAgICAgICYjeGE7ICAgICAgICAmI3hhOyAgICAgICAgICAmI3hhOyAgICAgICAgICAgIGphciYjeGE7ICAgICAgICAgICYjeGE7ICAgICAgICAmI3hhOyAgICAgICAgJiN4YTsgICAgICAgICAgJiN4YTsgICAgICAgICAgICBCYXNlZCBvbiBBbmRyw6kgV3lyd2EgYXJ0d29yayYjeGE7ICAgICAgICAgICYjeGE7ICAgICAgICAmI3hhOyAgICAgICYjeGE7ICAgICAgJiN4YTsgICAgICAgICYjeGE7ICAgICAgICAmI3hhOyAgICAgICAgJiN4YTsgICAgICAgICYjeGE7ICAgICAgICAmI3hhOyAgICAgICAgJiN4YTsgICAgICAmI3hhOyAgICAmI3hhOyAgPC9tZXRhZGF0YT4mI3hhOyAgPGcgc3R5bGU9ImRpc3BsYXk6aW5saW5lIiBpZD0ibGF5ZXI0Ij4mI3hhOyAgICA8cGF0aCBzdHlsZT0ib3BhY2l0eTowLjQ7Y29sb3I6IzAwMDAwMDtmaWxsOiMwMDAwMDA7ZmlsbC1vcGFjaXR5OjE7ZmlsbC1ydWxlOmV2ZW5vZGQ7c3Ryb2tlOm5vbmU7c3Ryb2tlLXdpZHRoOjE7bWFya2VyOm5vbmU7dmlzaWJpbGl0eTp2aXNpYmxlO2Rpc3BsYXk6aW5saW5lO292ZXJmbG93OnZpc2libGU7ZmlsdGVyOnVybCgjZmlsdGVyMzM5NSk7ZW5hYmxlLWJhY2tncm91bmQ6YWNjdW11bGF0ZSIgaWQ9InBhdGgzMzQxIiB0cmFuc2Zvcm09Im1hdHJpeCgwLjkxOTYyMzYsMCwwLDIuMTUyMTA5OSwyLjIzNzY0MjIsLTQ3Ljk4MDQzKSIgZD0ibSA0NC40MDE5NjYsNDEuNTcwMjA2IGEgMjAuNjY0MzAzLDEuNjU3OTk3IDAgMSAxIC00MS4zMjg2MDU2LDAgMjAuNjY0MzAzLDEuNjU3OTk3IDAgMSAxIDQxLjMyODYwNTYsMCB6Ii8+JiN4YTsgIDwvZz4mI3hhOyAgPGcgc3R5bGU9ImRpc3BsYXk6aW5saW5lIiBpZD0ibGF5ZXI2Ij4mI3hhOyAgICA8cGF0aCBzdHlsZT0ib3BhY2l0eTowLjU7ZmlsbDp1cmwoI2xpbmVhckdyYWRpZW50ODc1Mik7ZmlsbC1vcGFjaXR5OjE7c3Ryb2tlOm5vbmU7ZGlzcGxheTppbmxpbmUiIGlkPSJwYXRoNzc4NCIgZD0ibSAxOS4yMjgzOTEsNS42MDIzODUzIGMgLTAuOTU0MzIzLDAuMjUgLTEuNDI5NzQ5LDMuMzAzNjgzNSAwLjQ3NzE2LDMuNSBsIDAsNy45OTk5OTk3IC05Ljk4OTQ2MDUsMTYuOTE3Njk3IEMgOC41MjE3NzYxLDM2LjA0MjcxOSA3LjE5MTgxMTEsMzkuMjAzODgzIDExLjE0NDU2Niw0MS4yMDg2MzIgMTMuNjk3NzU0LDQyLjI3MTkxMiAxOC4yMzU1Niw0MyAyNCw0MyBjIDUuNzY0NDQxLDAgMTAuMzAyMjQ2LC0wLjcyODA4OCAxMi44NTU0MzQsLTEuNzkxMzY4IDMuOTUyNzU1LC0yLjAwNDc0OSAyLjYyMjc5LC01LjE2NTkxMyAxLjQyODQ3NiwtNy4xODg1NSBsIC05Ljk4OTQ2MiwtMTYuOTE3Njk3IDAsLTggYyAxLjkwNjkxMSwtMC4xOTYzMTY1IDEuNDMxNDg1LC0zLjI1IDAuNDc3MTYyLC0zLjUiLz4mI3hhOyAgICA8cGF0aCBzdHlsZT0ib3BhY2l0eTowLjU7ZmlsbDp1cmwoI3JhZGlhbEdyYWRpZW50ODc1MCk7ZmlsbC1vcGFjaXR5OjE7c3Ryb2tlOiNmZmZmZmY7c3Ryb2tlLXdpZHRoOjE7c3Ryb2tlLWxpbmVjYXA6cm91bmQ7c3Ryb2tlLWxpbmVqb2luOnJvdW5kO3N0cm9rZS1taXRlcmxpbWl0OjQ7c3Ryb2tlLW9wYWNpdHk6MC41O2Rpc3BsYXk6aW5saW5lIiBpZD0icGF0aDM2ODMiIGQ9Ik0gMzguMzE0ODM1LDM3Ljk5OTk5OSBDIDM4LjMxNDgzNSw0MC4yMDkxMzggMzMuOTA1ODY1LDQyIDI0LDQyIDE0LjAwMDM4NCw0MiA5LjY4NTE2NTIsNDAuMjA5MTM4IDkuNjg1MTY1MiwzNy45OTk5OTkgOS42ODUxNjUyLDM1Ljc5MDg2IDE2LjA5NDEzNSwzMy45OTk5OTggMjQsMzMuOTk5OTk4IGMgNy45MDU4NjQsMCAxNC4zMTQ4MzUsMS43OTA4NjIgMTQuMzE0ODM1LDQuMDAwMDAxIHoiLz4mI3hhOyAgPC9nPiYjeGE7ICA8ZyBzdHlsZT0iZGlzcGxheTppbmxpbmUiIGlkPSJsYXllcjUiPiYjeGE7ICAgIDxwYXRoIHN0eWxlPSJvcGFjaXR5OjAuODtmaWxsOnVybCgjbGluZWFyR3JhZGllbnQ2NjE2KTtmaWxsLW9wYWNpdHk6MTtzdHJva2U6bm9uZTtkaXNwbGF5OmlubGluZSIgaWQ9InBhdGg4OTUyIiBkPSJtIDE0LDI3LjU5Mzc1IC0zLjI4MTI1LDUuNjg3NSBDIDkuMDY5OTcyNiwzNi4xNDkzNzYgOC42NjQ3OTkzLDM3LjA4ODM1MyA5LjEyNSwzOC41IGMgMC42MTA5NDI3LDEuODc0MDQyIDMuMTI1LDQgMTQuMzc1LDQgOC42ODE3NTQsMCAxNC4yMjkyNDcsLTAuODk0MDg3IDE1LjQwNjI1LC0zLjkzNzUgMC40MTE2OCwtMS4wNjQ0OTMgLTAuMDA1MywtMi42ODQ4MTggLTAuODEyNSwtNC4wMzEyNSBsIC00LjEyNSwtNi45MDYyNSBjIC0wLjEyMDI0LDAuMTgyNTYgLTAuMjQ4NjUzLDAuMzcyMTc2IC0wLjQzNzUsMC41MzEyNSAtMC40NDMxMjMsMC4zNzMyNjIgLTEuMTAxMzMxLDAuNzEwMTQyIC0xLjkzNzUsMC45Njg3NSAtMS42NzIzMzcsMC41MTcyMTcgLTQuMTQ3NTY3LDAuODEyNSAtNy41OTM3NSwwLjgxMjUgLTMuNDc4NDMsMCAtNS45NjAxMjMsLTAuMjk0OTk4IC03LjYyNSwtMC44MTI1IEMgMTUuNTQyNTYxLDI4Ljg2NjI1MSAxNC45MDY5NzQsMjguNTMwMjA4IDE0LjQ2ODc1LDI4LjE1NjI1IDE0LjI2OTQ5LDI3Ljk4NjIxMyAxNC4xMjMxNTksMjcuNzkwMzE2IDE0LDI3LjU5Mzc1IHoiLz4mI3hhOyAgICA8cGF0aCBzdHlsZT0iZm9udC1zaXplOm1lZGl1bTtmb250LXN0eWxlOm5vcm1hbDtmb250LXZhcmlhbnQ6bm9ybWFsO2ZvbnQtd2VpZ2h0Om5vcm1hbDtmb250LXN0cmV0Y2g6bm9ybWFsO3RleHQtaW5kZW50OjA7dGV4dC1hbGlnbjpzdGFydDt0ZXh0LWRlY29yYXRpb246bm9uZTtsaW5lLWhlaWdodDpub3JtYWw7bGV0dGVyLXNwYWNpbmc6bm9ybWFsO3dvcmQtc3BhY2luZzpub3JtYWw7dGV4dC10cmFuc2Zvcm06bm9uZTtkaXJlY3Rpb246bHRyO2Jsb2NrLXByb2dyZXNzaW9uOnRiO3dyaXRpbmctbW9kZTpsci10Yjt0ZXh0LWFuY2hvcjpzdGFydDtiYXNlbGluZS1zaGlmdDpiYXNlbGluZTtvcGFjaXR5OjAuNTtjb2xvcjojMDAwMDAwO2ZpbGw6I2QyMTYxNjtmaWxsLW9wYWNpdHk6MC42NjUwOTQyOTtmaWxsLXJ1bGU6bm9uemVybztzdHJva2U6bm9uZTtzdHJva2Utd2lkdGg6MC45Mzc3OTM3OTttYXJrZXI6bm9uZTt2aXNpYmlsaXR5OnZpc2libGU7ZGlzcGxheTppbmxpbmU7b3ZlcmZsb3c6dmlzaWJsZTtlbmFibGUtYmFja2dyb3VuZDphY2N1bXVsYXRlO2ZvbnQtZmFtaWx5OlNhbnM7LWlua3NjYXBlLWZvbnQtc3BlY2lmaWNhdGlvbjpTYW5zIiBpZD0icGF0aDg5NjUiIGQ9Im0gMjQsMjMuNzUwOTU4IGMgLTIuNzU5Mjg5LDAgLTUuMjQ1NjczLDAuMzEyNDQxIC03LjA3OTA1NywwLjgyNDc0NSAtMC45MTY2OTMsMC4yNTYxNTEgLTEuNjg3MTg0LDAuNTY2Nzk0IC0yLjIzMzY4MywwLjkyNzgzNyAtMC41NDY0OTksMC4zNjEwNDQgLTAuOTI3ODM4LDAuODAxMjY0IC0wLjkyNzgzOCwxLjM0MDIxIDAsMC40ODc3MDQgMC4yODM0MjgsMC45MzE4ODkgMC43MjE2NTIsMS4zMDU4NDUgMC40MzgyMjQsMC4zNzM5NTggMS4wNTc2LDAuNzAzNDUzIDEuODkwMDM5LDAuOTYyMjAyIDEuNjY0ODc3LDAuNTE3NTAyIDQuMTUwNDU3LDAuODI0NzQ1IDcuNjI4ODg3LDAuODI0NzQ1IDMuNDQ2MTgzLDAgNS45MjIxODUsLTAuMzA3NTI4IDcuNTk0NTIyLC0wLjgyNDc0NSAwLjgzNjE2OSwtMC4yNTg2MDggMS40ODEyODEsLTAuNTg4OTQgMS45MjQ0MDQsLTAuOTYyMjAyIDAuNDQzMTIyLC0wLjM3MzI2MSAwLjcyMTY1MiwtMC44MTU4NDcgMC43MjE2NTIsLTEuMzA1ODQ1IDAsLTAuNTM4OTQ2IC0wLjM4MTMzOSwtMC45NzkxNjYgLTAuOTI3ODM4LC0xLjM0MDIxIEMgMzIuNzY2MjQxLDI1LjE0MjQ5NyAzMS45OTU3NSwyNC44MzE4NTQgMzEuMDc5MDU3LDI0LjU3NTcwMyAyOS4yNDU2NzMsMjQuMDYzMzk5IDI2Ljc1OTI4OSwyMy43NTA5NTggMjQsMjMuNzUwOTU4IHoiLz4mI3hhOyAgICA8cGF0aCBzdHlsZT0iZm9udC1zaXplOm1lZGl1bTtmb250LXN0eWxlOm5vcm1hbDtmb250LXZhcmlhbnQ6bm9ybWFsO2ZvbnQtd2VpZ2h0Om5vcm1hbDtmb250LXN0cmV0Y2g6bm9ybWFsO3RleHQtaW5kZW50OjA7dGV4dC1hbGlnbjpzdGFydDt0ZXh0LWRlY29yYXRpb246bm9uZTtsaW5lLWhlaWdodDpub3JtYWw7bGV0dGVyLXNwYWNpbmc6bm9ybWFsO3dvcmQtc3BhY2luZzpub3JtYWw7dGV4dC10cmFuc2Zvcm06bm9uZTtkaXJlY3Rpb246bHRyO2Jsb2NrLXByb2dyZXNzaW9uOnRiO3dyaXRpbmctbW9kZTpsci10Yjt0ZXh0LWFuY2hvcjpzdGFydDtiYXNlbGluZS1zaGlmdDpiYXNlbGluZTtvcGFjaXR5OjAuODtjb2xvcjojMDAwMDAwO2ZpbGw6dXJsKCNyYWRpYWxHcmFkaWVudDY2MDIpO2ZpbGwtb3BhY2l0eToxO2ZpbGwtcnVsZTpub256ZXJvO3N0cm9rZTpub25lO3N0cm9rZS13aWR0aDowLjkzNzc5Mzc5O21hcmtlcjpub25lO3Zpc2liaWxpdHk6dmlzaWJsZTtkaXNwbGF5OmlubGluZTtvdmVyZmxvdzp2aXNpYmxlO2VuYWJsZS1iYWNrZ3JvdW5kOmFjY3VtdWxhdGU7Zm9udC1mYW1pbHk6U2FuczstaW5rc2NhcGUtZm9udC1zcGVjaWZpY2F0aW9uOlNhbnMiIGlkPSJwYXRoODk1NCIgZD0ibSAyNCwyNC42NDI1NTEgYyAyLjQ0MDcyNiwwIDQuNjUzNDMsMC4yNzk3NTggNi4yMzAyNzQsMC43MjAzNzUgMC43ODg0MjIsMC4yMjAzMDkgMS40MTk2OCwwLjQ4ODE0MyAxLjgzMDE0MiwwLjc1OTMxNCAwLjQxMDQ2MiwwLjI3MTE3MSAwLjU2NDYxOSwwLjUxNzU0IDAuNTY0NjE5LDAuNzIwMzc1IDAsMC4yNDY5MTUgLTAuMTE5NDcsMC40Nzk2NzggLTAuNDI4MzMxLDAuNzM5ODQ1IC0wLjMwODg2MiwwLjI2MDE2OCAtMC44MTM0NSwwLjUyMTc0OSAtMS41MTg2MywwLjczOTg0NiAtMS40MTAzNTgsMC40MzYxOTMgLTMuNjA5ODY2LDAuNzIwMzc1IC02LjY3ODA3NCwwLjcyMDM3NSAtMy4wOTc1NzgsMCAtNS4zMTQ1MzksLTAuMjg0NDM3IC02LjcxNzAxMywtMC43MjAzNzUgLTAuNzAxMjM3LC0wLjIxNzk2OSAtMS4xOTUwMTUsLTAuNDgwMzA0IC0xLjQ5OTE2LC0wLjczOTg0NiAtMC4zMDQxNDUsLTAuMjU5NTQxIC0wLjQwODg2MiwtMC40OTA4NjIgLTAuNDA4ODYyLC0wLjczOTg0NSAwLC0wLjIwMjgzNSAwLjE1NDE1NywtMC40NDkyMDQgMC41NjQ2MTksLTAuNzIwMzc1IDAuNDEwNDYyLC0wLjI3MTE3MSAxLjA0MTcyLC0wLjUzOTAwNSAxLjgzMDE0MiwtMC43NTkzMTQgQyAxOS4zNDY1NywyNC45MjIzMDkgMjEuNTU5Mjc0LDI0LjY0MjU1MSAyNCwyNC42NDI1NTEgeiIvPiYjeGE7ICA8L2c+JiN4YTsgIDxnIHN0eWxlPSJkaXNwbGF5OmlubGluZSIgaWQ9ImxheWVyMSI+JiN4YTsgICAgPHBhdGggc3R5bGU9ImZvbnQtc2l6ZTptZWRpdW07Zm9udC1zdHlsZTpub3JtYWw7Zm9udC12YXJpYW50Om5vcm1hbDtmb250LXdlaWdodDpub3JtYWw7Zm9udC1zdHJldGNoOm5vcm1hbDt0ZXh0LWluZGVudDowO3RleHQtYWxpZ246c3RhcnQ7dGV4dC1kZWNvcmF0aW9uOm5vbmU7bGluZS1oZWlnaHQ6bm9ybWFsO2xldHRlci1zcGFjaW5nOm5vcm1hbDt3b3JkLXNwYWNpbmc6bm9ybWFsO3RleHQtdHJhbnNmb3JtOm5vbmU7ZGlyZWN0aW9uOmx0cjtibG9jay1wcm9ncmVzc2lvbjp0Yjt3cml0aW5nLW1vZGU6bHItdGI7dGV4dC1hbmNob3I6c3RhcnQ7YmFzZWxpbmUtc2hpZnQ6YmFzZWxpbmU7b3BhY2l0eTowLjU7Y29sb3I6IzAwMDAwMDtmaWxsOnVybCgjbGluZWFyR3JhZGllbnQ1NjQxKTtmaWxsLW9wYWNpdHk6MTtmaWxsLXJ1bGU6bm9uemVybztzdHJva2U6bm9uZTtzdHJva2Utd2lkdGg6MC45Mzc3OTM3OTttYXJrZXI6bm9uZTt2aXNpYmlsaXR5OnZpc2libGU7ZGlzcGxheTppbmxpbmU7b3ZlcmZsb3c6dmlzaWJsZTtlbmFibGUtYmFja2dyb3VuZDphY2N1bXVsYXRlO2ZvbnQtZmFtaWx5OlNhbnM7LWlua3NjYXBlLWZvbnQtc3BlY2lmaWNhdGlvbjpTYW5zIiBpZD0icGF0aDg2ODciIGQ9Im0gMjQsMzMuNTMxMjUgYyAtMy45ODgzMzgsMCAtNy41OTk5ODcsMC40NDcwMDUgLTEwLjI1LDEuMTg3NSAtMS4zMjUwMDcsMC4zNzAyNDcgLTIuMzk3NTc5LDAuODIxODkgLTMuMTg3NSwxLjM0Mzc1IEMgOS43NzI1Nzg4LDM2LjU4NDM2IDkuMjE4NzUsMzcuMjIwOTk0IDkuMjE4NzUsMzggYyAwLDAuNzA0OTM4IDAuMzY2NTgxNiwxLjM2NTcyNCAxLDEuOTA2MjUgMC42MzM0MTgsMC41NDA1MjYgMS41NDY3NzUsMS4wMDA5OTYgMi43NSwxLjM3NSAyLjQwNjQ1LDAuNzQ4MDA4IDYuMDAzNDUsMS4xODc1IDExLjAzMTI1LDEuMTg3NSA0Ljk4MTE4OSwwIDguNTgyNzY2LC0wLjQzOTkwMyAxMSwtMS4xODc1IDEuMjA4NjE3LC0wLjM3Mzc5OSAyLjE0MDc1MSwtMC44MzU0NzkgMi43ODEyNSwtMS4zNzUgMC42NDA0OTksLTAuNTM5NTIxIDEsLTEuMTk3OTk2IDEsLTEuOTA2MjUgMCwtMC43NzkwMDYgLTAuNTUzODI5LC0xLjQxNTY0IC0xLjM0Mzc1LC0xLjkzNzUgQyAzNi42NDc1NzksMzUuNTQwNjQgMzUuNTc1MDA3LDM1LjA4ODk5NyAzNC4yNSwzNC43MTg3NSAzMS41OTk5ODcsMzMuOTc4MjU1IDI3Ljk4ODMzNywzMy41MzEyNSAyNCwzMy41MzEyNSB6IG0gMCwwLjkzNzUgYyAzLjkxNzUyNywwIDcuNDY5MDYyLDAuNDQ5MDI5IDEwLDEuMTU2MjUgMS4yNjU0NjksMC4zNTM2MTEgMi4yNzg2ODEsMC43ODM1MDMgMi45Mzc1LDEuMjE4NzUgMC42NTg4MTksMC40MzUyNDcgMC45MDYyNSwwLjgzMDY4NiAwLjkwNjI1LDEuMTU2MjUgMCwwLjM5NjMxNSAtMC4xOTE3NTgsMC43Njk5MTQgLTAuNjg3NSwxLjE4NzUgLTAuNDk1NzQyLDAuNDE3NTg2IC0xLjMwNTY0MSwwLjgzNzQ0MSAtMi40Mzc1LDEuMTg3NSBDIDMyLjQ1NTAzMiw0MS4wNzUxMTggMjguOTI0Njc2LDQxLjUzMTI1IDI0LDQxLjUzMTI1IDE5LjAyODE4NCw0MS41MzEyNSAxNS40Njk4MTMsNDEuMDc0NzA4IDEzLjIxODc1LDQwLjM3NSAxMi4wOTMyMTgsNDAuMDI1MTQ2IDExLjMwMDY3MywzOS42MDQwODEgMTAuODEyNSwzOS4xODc1IDEwLjMyNDMyNywzOC43NzA5MTkgMTAuMTU2MjUsMzguMzk5NjMyIDEwLjE1NjI1LDM4IGMgMCwtMC4zMjU1NjQgMC4yNDc0MzEsLTAuNzIxMDAzIDAuOTA2MjUsLTEuMTU2MjUgMC42NTg4MTksLTAuNDM1MjQ3IDEuNjcyMDMxLC0wLjg2NTEzOSAyLjkzNzUsLTEuMjE4NzUgMi41MzA5MzgsLTAuNzA3MjIxIDYuMDgyNDczLC0xLjE1NjI1IDEwLC0xLjE1NjI1IHoiLz4mI3hhOyAgICA8cGF0aCBzdHlsZT0iZmlsbDp1cmwoI2xpbmVhckdyYWRpZW50ODcyMik7ZmlsbC1vcGFjaXR5OjE7c3Ryb2tlOiM4ODhhODU7c3Ryb2tlLXdpZHRoOjEuNDQwNjg5MjE7c3Ryb2tlLWxpbmVjYXA6cm91bmQ7c3Ryb2tlLWxpbmVqb2luOnJvdW5kO3N0cm9rZS1taXRlcmxpbWl0OjQ7c3Ryb2tlLW9wYWNpdHk6MTtzdHJva2UtZGFzaGFycmF5Om5vbmU7ZGlzcGxheTppbmxpbmUiIGlkPSJwYXRoMzc4NS0wIiB0cmFuc2Zvcm09Im1hdHJpeCgwLjYyMjc0NDgxLDAsMCwwLjc3MzY1ODQ4LDguOTIxNTExOSwtMC41NzYwOTYzKSIgZD0ibSAzMi40MjU4OTcsOC41IGEgOC4yMTI5NDg4LDEuNSAwIDEgMSAtMTYuNDI1ODk4LDAgOC4yMTI5NDg4LDEuNSAwIDEgMSAxNi40MjU4OTgsMCB6Ii8+JiN4YTsgICAgPHBhdGggc3R5bGU9ImZpbGw6IzAwMDAwMDtmaWxsLW9wYWNpdHk6MC4wMzc3MzU4MjtzdHJva2U6bm9uZSIgaWQ9InBhdGg4NjM4IiBkPSJtIDEyLjIxOTY4OSw0MS4wODkyNDMgYyAtMS41MDI2MDIsLTAuNzk1NDk1IC0wLjkwNTk4LC0zLjIyNjE3NSAwLjMzMTQ1OCwtNC45OTM5NDIgMS4yMzc0MzcsLTEuNzY3NzY3IDguODY5MTY2LC0xNy4zMjQxMTYgOS4zMTExMDcsLTE4LjM4NDc3NiBsIDAsLTguNzQwMTgzMiAxLjkyODA4MiwwLjExOTg2ODUgMC4wNDQxOSw4Ljk2NDA2NDcgYyAwLDAgLTMuNjg3NzM2LDEzLjY1ODg4MyAtNS42MDQ0MjcsMjAuNjQ4NDgyIC0wLjMyMDMxMiwxLjE2ODA4MiAtMS4yODE2MzEsMi4yOTgwOTggMC4yNjUxNjUsMy42MjM5MjMgLTMuMjcwMzY5LC0wLjQ2NDAzOSAtNC4wODc5NjMsLTAuNTUyNDI3IC02LjI3NTU3NSwtMS4yMzc0MzcgeiIvPiYjeGE7ICAgIDxwYXRoIHN0eWxlPSJmaWxsOiMwMDAwMDA7ZmlsbC1vcGFjaXR5OjAuMDU2NjAzNzY7c3Ryb2tlOm5vbmUiIGlkPSJwYXRoODY0MCIgZD0ibSAzNy4wNzA0Miw0MC4zMzM4ODEgYyAxLjUwMDU4OSwtMC43OTg3ODkgMC44Mzk2ODksLTMuMzE0NTYzIC0wLjM5Nzc0OSwtNS4wODIzMyAtMS4yMzc0MzcsLTEuNzY3NzY3IC04Ljg2OTE2NiwtMTcuMzI0MTE2IC05LjMxMTEwNywtMTguMzg0Nzc2IGwgMCwtOC4wNjgzMDgyIC0wLjk0MzcwNywwLjE2Njc0MzUgLTAuMDI4NTcsOC4yNDUzMTQ3IGMgMCwwIDUuMTU2NDg2LDEzLjgxNTEzMyA3LjA3MzE3NywyMC44MDQ3MzIgMC4zMjAzMTIsMS4xNjgwODIgMS4yODE2MzEsMi4yOTgwOTggLTAuMjY1MTY1LDMuNjIzOTIzIDMuMjcwMzY5LC0wLjQ2NDAzOSAxLjg0OTU5OCwtMC4yMjgxNDUgMy44NzMxMjEsLTEuMzA1Mjk5IHoiLz4mI3hhOyAgICA8cGF0aCBzdHlsZT0ib3BhY2l0eTowLjU7ZmlsbDpub25lO3N0cm9rZTojZDNkN2NmO3N0cm9rZS13aWR0aDoxO3N0cm9rZS1saW5lY2FwOnJvdW5kO3N0cm9rZS1saW5lam9pbjpyb3VuZDtzdHJva2UtbWl0ZXJsaW1pdDo0O3N0cm9rZS1vcGFjaXR5OjE7c3Ryb2tlLWRhc2hhcnJheTpub25lIiBpZD0icGF0aDM4MzUiIGQ9Im0gMjguMjk0NDQ4LDkuMTAyMzg1IGMgLTEuNTgzMDUsMC4yNzEwNDM3IC0yLjA1NTU4LDAuNDk2MzIzNCAtNC4yOTAyMjcsMC40OTYzMjM0IC0yLjIzNDY0NiwwIC0yLjk1NDkyLC0wLjI4NjEwMzggLTQuMzE0Mjk1LC0wLjQ0OTQ0ODEiLz4mI3hhOyAgICA8cGF0aCBzdHlsZT0ib3BhY2l0eTowLjc1O2ZpbGw6bm9uZTtzdHJva2U6dXJsKCNyYWRpYWxHcmFkaWVudDg2ODMpO3N0cm9rZS13aWR0aDoyO3N0cm9rZS1saW5lY2FwOnJvdW5kO3N0cm9rZS1saW5lam9pbjpyb3VuZDtzdHJva2UtbWl0ZXJsaW1pdDo0O3N0cm9rZS1vcGFjaXR5OjE7c3Ryb2tlLWRhc2hhcnJheTpub25lIiBpZD0icGF0aDc3OTUiIGQ9Im0gMjguMDE4NTI4LDE3LjYzNDQzMiBjIC0wLjkzMzE3NiwwLjgyODQyNyAtMy4yNDUyMTgsMC45MTk4NDMgLTQuMDc0NjI3LDAuOTE5ODQzIC0wLjk0MjUyMywwIC0yLjI5MzExMSwwLjA2MzI2IC00LjA3NDYyOCwtMC44MzE0NTUiLz4mI3hhOyAgICA8cGF0aCBzdHlsZT0ib3BhY2l0eTowLjE7ZmlsbDpub25lO3N0cm9rZTojZmZmZmZmO3N0cm9rZS13aWR0aDoxLjk5OTk5OTg4O3N0cm9rZS1saW5lY2FwOnJvdW5kO3N0cm9rZS1saW5lam9pbjpyb3VuZDtzdHJva2UtbWl0ZXJsaW1pdDo0O3N0cm9rZS1vcGFjaXR5OjE7c3Ryb2tlLWRhc2hhcnJheTpub25lIiBpZD0icGF0aDg3MzYiIGQ9Im0gMzguNTc5NDg0LDM2LjMwODkzOCBjIC0zLjMyMzU4NSwxLjg5Njc4MyAtMTEuNjgzMTE2LDIuNjA2MDkxIC0xNC42MzcxMjYsMi42MDYwOTEgLTMuMzU2ODc1LDAgLTguMDQyMTA4LC0wLjM1NTE1OSAtMTQuMzg3MTMwMywtMi40MDM3MTYiLz4mI3hhOyAgICA8cGF0aCBzdHlsZT0ib3BhY2l0eTowLjU7ZmlsbDp1cmwoI2xpbmVhckdyYWRpZW50ODcxNCk7ZmlsbC1vcGFjaXR5OjE7c3Ryb2tlOm5vbmUiIGlkPSJwYXRoODcwNCIgZD0ibSAxOC45Mzc1LDYuODEyNDk5OSBjIC0wLjE1NjI1LDEuMjM0Mzc1IC0wLjA1MDkxLDEuNjM1MDc2NCAxLjI1LDEuODkwNjI1IDEuMzA2MDI4LDAuMjU2NTUyOSAyLjE3MTU3OCwwLjM1NTYwNTQgMy43NDk3MDMsMC4zODY4NTU0IDAuOTg5NjE3LDAuMDE5NTk2IDIuODAxODg0LC0wLjE0ODgzNyAzLjgzNTQ5OCwtMC4zODAzOTgxIEMgMjguNTc2MzU2LDguNTI5NTM4OCAyOC44MTE1NjksOC4zNjkyNDQ5IDI5LjAwNTUyNCw4LjA0ODc3MDUgMjkuMzA0Mjk1LDcuNTU1MTA3OSAyOS4xNzQ4ODEsNy4wMjM4MyAyOS4wOTg0ODQsNi44MDUwOCAyOC4wOTU2NDEsNy4zODQzMTU0IDI2LjIzNDM3LDcuNzAzMTI0OSAyMy44MTI0OTUsNy42NTYyNDk5IDIxLjM5MDYyLDcuNjA5Mzc0OSAxOS41NzgxMiw3LjI0OTk5OTkgMTguOTM3NSw2LjgxMjQ5OTkgeiIvPiYjeGE7ICAgIDxwYXRoIHN0eWxlPSJvcGFjaXR5OjAuMTtmaWxsOm5vbmU7c3Ryb2tlOiMyZTM0MzY7c3Ryb2tlLXdpZHRoOjEuOTk5OTk5ODg7c3Ryb2tlLWxpbmVjYXA6cm91bmQ7c3Ryb2tlLWxpbmVqb2luOnJvdW5kO3N0cm9rZS1taXRlcmxpbWl0OjQ7c3Ryb2tlLW9wYWNpdHk6MTtzdHJva2UtZGFzaGFycmF5Om5vbmUiIGlkPSJwYXRoOTAzMCIgZD0ibSAzOC41Nzk0ODQsMzguMzQxODcgYyAtMy4zMjM1ODUsMS44OTY3ODMgLTExLjY4MzExNiwyLjUxNzcwMyAtMTQuNjM3MTI2LDIuNTE3NzAzIC0zLjM1Njg3NSwwIC04LjA0MjEwOCwtMC4yNjY3NzEgLTE0LjM4NzEzMDMsLTIuMzE1MzI4Ii8+JiN4YTsgICAgPHBhdGggc3R5bGU9ImZpbGw6bm9uZTtzdHJva2U6Izg4OGE4NTtzdHJva2Utd2lkdGg6MC45OTk5OTk4OHB4O3N0cm9rZS1saW5lY2FwOmJ1dHQ7c3Ryb2tlLWxpbmVqb2luOm1pdGVyO3N0cm9rZS1vcGFjaXR5OjE7ZGlzcGxheTppbmxpbmUiIGlkPSJwYXRoODY4NSIgZD0ibSAxOS4yMjgzOTEsNS42MDIzODUzIGMgLTAuOTU0MzIzLDAuMjUgLTEuNDk2MDQsMy4wMzg1MTg1IDAuNDc3MTYsMy41IGwgMCw3Ljk5OTk5OTcgLTkuOTg5NDYwNSwxNi45MTc2OTcgQyA4LjUyMTc3NjEsMzYuMDQyNzE5IDcuMTkxODExMSwzOS4yMDM4ODMgMTEuMTQ0NTY2LDQxLjIwODYzMiAxMy42OTc3NTQsNDIuMjcxOTEyIDE4LjIzNTU2LDQzIDI0LDQzIGMgNS43NjQ0NDEsMCAxMC4zMDIyNDYsLTAuNzI4MDg4IDEyLjg1NTQzNCwtMS43OTEzNjggMy45NTI3NTUsLTIuMDA0NzQ5IDIuNjIyNzksLTUuMTY1OTEzIDEuNDI4NDc2LC03LjE4ODU1IGwgLTkuOTg5NDYyLC0xNi45MTc2OTcgMCwtOCBjIDIuMTI3ODgyLC0wLjU0OTg2OTkgMS40MzE0ODUsLTMuMjUgMC40NzcxNjIsLTMuNSIvPiYjeGE7ICA8L2c+JiN4YTs8L3N2Zz4=;" parent="1" vertex="1">
          <mxGeometry x="211" y="224" width="48" height="48" as="geometry" />
        </mxCell>
        <mxCell id="45CG2yu2ULFXQJwwx9nm-5" value="" style="endArrow=classic;html=1;rounded=0;" parent="1" edge="1">
          <mxGeometry width="50" height="50" relative="1" as="geometry">
            <mxPoint x="381" y="259.58000000000004" as="sourcePoint" />
            <mxPoint x="311" y="259.58000000000004" as="targetPoint" />
          </mxGeometry>
        </mxCell>
        <mxCell id="45CG2yu2ULFXQJwwx9nm-7" value="" style="shape=umlActor;verticalLabelPosition=bottom;verticalAlign=top;html=1;outlineConnect=0;" parent="1" vertex="1">
          <mxGeometry x="393" y="440" width="41" height="80" as="geometry" />
        </mxCell>
        <mxCell id="45CG2yu2ULFXQJwwx9nm-9" value="Edited Result" style="text;html=1;align=center;verticalAlign=middle;resizable=0;points=[];autosize=1;strokeColor=none;fillColor=none;" parent="1" vertex="1">
          <mxGeometry x="547" y="520" width="90" height="30" as="geometry" />
        </mxCell>
        <mxCell id="45CG2yu2ULFXQJwwx9nm-16" style="edgeStyle=orthogonalEdgeStyle;rounded=0;orthogonalLoop=1;jettySize=auto;html=1;exitX=0.5;exitY=0;exitDx=0;exitDy=0;exitPerimeter=0;entryX=0.5;entryY=1;entryDx=0;entryDy=0;" parent="1" source="45CG2yu2ULFXQJwwx9nm-10" target="45CG2yu2ULFXQJwwx9nm-14" edge="1">
          <mxGeometry relative="1" as="geometry" />
        </mxCell>
        <mxCell id="45CG2yu2ULFXQJwwx9nm-10" value="&lt;div&gt;&lt;br&gt;&lt;/div&gt;" style="shape=note;whiteSpace=wrap;html=1;backgroundOutline=1;darkOpacity=0.05;fillColor=#f5f5f5;strokeColor=#666666;gradientColor=#b3b3b3;" parent="1" vertex="1">
          <mxGeometry x="517" y="440" width="150" height="80" as="geometry" />
        </mxCell>
        <mxCell id="45CG2yu2ULFXQJwwx9nm-11" value="&lt;div&gt;&lt;b style=&quot;background-color: transparent; color: light-dark(rgb(0, 0, 0), rgb(255, 255, 255));&quot;&gt;Poison&lt;/b&gt;&lt;br&gt;&lt;/div&gt;" style="text;html=1;align=center;verticalAlign=middle;whiteSpace=wrap;rounded=0;" parent="1" vertex="1">
          <mxGeometry x="517" y="490" width="150" height="30" as="geometry" />
        </mxCell>
        <mxCell id="45CG2yu2ULFXQJwwx9nm-38" value="" style="shape=image;verticalLabelPosition=bottom;labelBackgroundColor=default;verticalAlign=top;aspect=fixed;imageAspect=0;image=data:image/svg+xml,PHN2ZyB4bWxuczp4bGluaz0iaHR0cDovL3d3dy53My5vcmcvMTk5OS94bGluayIgeG1sbnM9Imh0dHA6Ly93d3cudzMub3JnLzIwMDAvc3ZnIiBoZWlnaHQ9IjQ4IiB3aWR0aD0iNDgiIHZpZXdCb3g9IjAgMCA0OCA0OCI+JiN4YTsgIDxkZWZzPiYjeGE7ICAgIDxsaW5lYXJHcmFkaWVudCBpZD0iZSI+JiN4YTsgICAgICA8c3RvcCBzdG9wLWNvbG9yPSIjNzNkMjE2IiBvZmZzZXQ9IjAiLz4mI3hhOyAgICAgIDxzdG9wIHN0b3Atb3BhY2l0eT0iLjQ5ODAzOTIyIiBzdG9wLWNvbG9yPSIjODFlNzFlIiBvZmZzZXQ9Ii41Ii8+JiN4YTsgICAgICA8c3RvcCBzdG9wLWNvbG9yPSIjNzNkMjE2IiBvZmZzZXQ9IjEiLz4mI3hhOyAgICA8L2xpbmVhckdyYWRpZW50PiYjeGE7ICAgIDxsaW5lYXJHcmFkaWVudCBpZD0iZyI+JiN4YTsgICAgICA8c3RvcCBzdG9wLWNvbG9yPSIjNjZiOTEzIiBvZmZzZXQ9IjAiLz4mI3hhOyAgICAgIDxzdG9wIHN0b3AtY29sb3I9IiM3MmQxMTYiIG9mZnNldD0iMSIvPiYjeGE7ICAgIDwvbGluZWFyR3JhZGllbnQ+JiN4YTsgICAgPGxpbmVhckdyYWRpZW50IGlkPSJkIj4mI3hhOyAgICAgIDxzdG9wIHN0b3AtY29sb3I9IiNmZmYiIG9mZnNldD0iMCIvPiYjeGE7ICAgICAgPHN0b3Agc3RvcC1vcGFjaXR5PSIwIiBzdG9wLWNvbG9yPSIjZjJmMmYyIiBvZmZzZXQ9IjEiLz4mI3hhOyAgICA8L2xpbmVhckdyYWRpZW50PiYjeGE7ICAgIDxsaW5lYXJHcmFkaWVudCBpZD0iYSI+JiN4YTsgICAgICA8c3RvcCBzdG9wLWNvbG9yPSIjY2RjZGNkIiBvZmZzZXQ9IjAiLz4mI3hhOyAgICAgIDxzdG9wIHN0b3Atb3BhY2l0eT0iLjMxNjIzOTMzIiBzdG9wLWNvbG9yPSIjZmZmIiBvZmZzZXQ9Ii43MDgzMDY3MyIvPiYjeGE7ICAgICAgPHN0b3Agc3RvcC1jb2xvcj0iI2Q2ZDZkNiIgb2Zmc2V0PSIxIi8+JiN4YTsgICAgPC9saW5lYXJHcmFkaWVudD4mI3hhOyAgICA8bGluZWFyR3JhZGllbnQgaWQ9ImYiPiYjeGE7ICAgICAgPHN0b3Agc3RvcC1vcGFjaXR5PSIwIiBzdG9wLWNvbG9yPSIjZmZmIiBvZmZzZXQ9IjAiLz4mI3hhOyAgICAgIDxzdG9wIHN0b3Atb3BhY2l0eT0iMCIgc3RvcC1jb2xvcj0iI2ZmZiIgb2Zmc2V0PSIuNjE3NjMwNzgiLz4mI3hhOyAgICAgIDxzdG9wIHN0b3AtY29sb3I9IiNmZmYiIG9mZnNldD0iLjc0NTk3MDkiLz4mI3hhOyAgICAgIDxzdG9wIHN0b3Atb3BhY2l0eT0iMCIgc3RvcC1jb2xvcj0iI2ZmZiIgb2Zmc2V0PSIxIi8+JiN4YTsgICAgPC9saW5lYXJHcmFkaWVudD4mI3hhOyAgICA8bGluZWFyR3JhZGllbnQgaWQ9ImIiPiYjeGE7ICAgICAgPHN0b3Agc3RvcC1jb2xvcj0iI2RhZGFkNiIgb2Zmc2V0PSIwIi8+JiN4YTsgICAgICA8c3RvcCBzdG9wLW9wYWNpdHk9Ii40OTgwMzkyMiIgc3RvcC1jb2xvcj0iI2U0ZTRlMSIgb2Zmc2V0PSIuNSIvPiYjeGE7ICAgICAgPHN0b3Agc3RvcC1jb2xvcj0iI2RhZGFkNiIgb2Zmc2V0PSIxIi8+JiN4YTsgICAgPC9saW5lYXJHcmFkaWVudD4mI3hhOyAgICA8bGluZWFyR3JhZGllbnQgaWQ9ImMiPiYjeGE7ICAgICAgPHN0b3Agc3RvcC1jb2xvcj0iI2NkY2RjZCIgb2Zmc2V0PSIwIi8+JiN4YTsgICAgICA8c3RvcCBzdG9wLW9wYWNpdHk9Ii4zMTYyMzkzMyIgc3RvcC1jb2xvcj0iI2ZmZiIgb2Zmc2V0PSIuNSIvPiYjeGE7ICAgICAgPHN0b3Agc3RvcC1jb2xvcj0iI2Q2ZDZkNiIgb2Zmc2V0PSIxIi8+JiN4YTsgICAgPC9saW5lYXJHcmFkaWVudD4mI3hhOyAgICA8bGluZWFyR3JhZGllbnQgZ3JhZGllbnRVbml0cz0idXNlclNwYWNlT25Vc2UiIGdyYWRpZW50VHJhbnNmb3JtPSJ0cmFuc2xhdGUoMCAxKSIgeTI9IjYuODQzNzUiIHkxPSI3LjE4NzUiIHgyPSIyNy44NDM3NSIgeDE9IjI1IiBpZD0icCIgeGxpbms6aHJlZj0iI2EiLz4mI3hhOyAgICA8bGluZWFyR3JhZGllbnQgZ3JhZGllbnRVbml0cz0idXNlclNwYWNlT25Vc2UiIHkyPSI4Ljk1MzUyMjciIHkxPSI4LjI1MDQ2NzMiIHgyPSIyMy44NzEyODMiIHgxPSIxOS45NTk5ODgiIGlkPSJuIiB4bGluazpocmVmPSIjYiIvPiYjeGE7ICAgIDxsaW5lYXJHcmFkaWVudCBncmFkaWVudFVuaXRzPSJ1c2VyU3BhY2VPblVzZSIgZ3JhZGllbnRUcmFuc2Zvcm09InRyYW5zbGF0ZSgwIDEpIiB5Mj0iMjMuMzAxMTkxIiB5MT0iMjQuMDk2Njg3IiB4Mj0iMzEuNjAzMTA3IiB4MT0iMjAuOTkzMDg4IiBpZD0iaSIgeGxpbms6aHJlZj0iI2MiLz4mI3hhOyAgICA8bGluZWFyR3JhZGllbnQgZ3JhZGllbnRVbml0cz0idXNlclNwYWNlT25Vc2UiIHkyPSIzNS4wNTExMDUiIHkxPSIzOC45NDAxOTMiIHgyPSIyNS4xNDY0ODQiIHgxPSIyNS4yNzkwNjgiIGlkPSJtIiB4bGluazpocmVmPSIjZCIvPiYjeGE7ICAgIDxsaW5lYXJHcmFkaWVudCBncmFkaWVudFVuaXRzPSJ1c2VyU3BhY2VPblVzZSIgeTI9IjMxLjIwNjIxNSIgeTE9IjMyLjg4NTU5MyIgeDI9IjMzLjA1NzI0IiB4MT0iMjUuMzY3NDU2IiBpZD0iayIgeGxpbms6aHJlZj0iI2UiLz4mI3hhOyAgICA8cmFkaWFsR3JhZGllbnQgZ3JhZGllbnRVbml0cz0idXNlclNwYWNlT25Vc2UiIGdyYWRpZW50VHJhbnNmb3JtPSJtYXRyaXgoLjM0OTc5IC4wMDUzMSAtLjAwMzYgLjE0NDU0IDE1LjU4MDIxMiAxNy4wMDk0ODkpIiBmeT0iLS43MjM0MDQwNSIgZng9IjIzLjg4MTc5MiIgcj0iMTUuNDc1MTk1IiBjeT0iLS43MjM0MDQwNSIgY3g9IjIzLjg4MTc5MiIgaWQ9Im8iIHhsaW5rOmhyZWY9IiNmIi8+JiN4YTsgICAgPHJhZGlhbEdyYWRpZW50IGdyYWRpZW50VW5pdHM9InVzZXJTcGFjZU9uVXNlIiBncmFkaWVudFRyYW5zZm9ybT0ibWF0cml4KC0uMzc2NzEgLS4yNTcxOCAuMTUxMTQgLS4yMjEzOCAzMS4zODY1NCA1Mi45MjEwMDUpIiBmeT0iMzkuNTAyNTk4IiBmeD0iMjcuNjU4ODI3IiByPSIxNy4yNTQ2MTIiIGN5PSIzOS41MDI1OTgiIGN4PSIyNy42NTg4MjciIGlkPSJqIiB4bGluazpocmVmPSIjYiIvPiYjeGE7ICAgIDxyYWRpYWxHcmFkaWVudCBncmFkaWVudFVuaXRzPSJ1c2VyU3BhY2VPblVzZSIgZ3JhZGllbnRUcmFuc2Zvcm09Im1hdHJpeCguNDM0NzggLS4xMDg3IC4wNjE4NyAuMjQ3NDYgMTAuNTY0Mzg5IDIyLjU3MjYxNikiIGZ5PSIyNy45NDk2NjMiIGZ4PSIyMS43NSIgcj0iOC42MjUwMzUzIiBjeT0iMjcuOTQ5NjYzIiBjeD0iMjEuNzUiIGlkPSJsIiB4bGluazpocmVmPSIjZyIvPiYjeGE7ICAgIDxmaWx0ZXIgY29sb3ItaW50ZXJwb2xhdGlvbi1maWx0ZXJzPSJzUkdCIiB5PSItLjcwOTE1MDA4IiB4PSItLjA1Njg5ODU1IiBoZWlnaHQ9IjIuNDE4MzAwMiIgd2lkdGg9IjEuMTEzNzk3MSIgaWQ9ImgiPiYjeGE7ICAgICAgPGZlR2F1c3NpYW5CbHVyIHN0ZERldmlhdGlvbj0iLjk3OTgwNzI5Ii8+JiN4YTsgICAgPC9maWx0ZXI+JiN4YTsgIDwvZGVmcz4mI3hhOyAgPHBhdGggdHJhbnNmb3JtPSJtYXRyaXgoLjkxOTYyIDAgMCAyLjE1MjExIDIuMjM3NjQyMiAtNDcuOTgwNDMpIiBzdHlsZT0ibWFya2VyOm5vbmUiIG92ZXJmbG93PSJ2aXNpYmxlIiBvcGFjaXR5PSIuNCIgZmlsdGVyPSJ1cmwoI2gpIiBjb2xvcj0iIzAwMCIgZD0iTTQ0LjQwMTk2NiA0MS41NzAyMDZhMjAuNjY0MzAzIDEuNjU3OTk3IDAgMSAxLTQxLjMyODYwNTYgMCAyMC42NjQzMDMgMS42NTc5OTcgMCAxIDEgNDEuMzI4NjA1NiAweiIgZmlsbC1ydWxlPSJldmVub2RkIi8+JiN4YTsgIDxwYXRoIG9wYWNpdHk9Ii41IiBkPSJNMTkuMjI4MzkxIDUuNjAyMzg1M2MtLjk1NDMyMy4yNS0xLjQyOTc0OSAzLjMwMzY4MzUuNDc3MTYgMy41djcuOTk5OTk5N0w5LjcxNjA5MDUgMzQuMDIwMDgyYy0xLjE5NDMxNDQgMi4wMjI2MzctMi41MjQyNzk0IDUuMTgzODAxIDEuNDI4NDc1NSA3LjE4ODU1QzEzLjY5Nzc1NCA0Mi4yNzE5MTIgMTguMjM1NTYgNDMgMjQgNDNjNS43NjQ0NDEgMCAxMC4zMDIyNDYtLjcyODA4OCAxMi44NTU0MzQtMS43OTEzNjggMy45NTI3NTUtMi4wMDQ3NDkgMi42MjI3OS01LjE2NTkxMyAxLjQyODQ3Ni03LjE4ODU1bC05Ljk4OTQ2Mi0xNi45MTc2OTd2LThjMS45MDY5MTEtLjE5NjMxNjUgMS40MzE0ODUtMy4yNS40NzcxNjItMy41IiBmaWxsPSJ1cmwoI2kpIi8+JiN4YTsgIDxwYXRoIG9wYWNpdHk9Ii41IiBkPSJNMzguMzE0ODM1IDM3Ljk5OTk5OUMzOC4zMTQ4MzUgNDAuMjA5MTM4IDMzLjkwNTg2NSA0MiAyNCA0MmMtOS45OTk2MTYgMC0xNC4zMTQ4MzQ4LTEuNzkwODYyLTE0LjMxNDgzNDgtNC4wMDAwMDEgMC0yLjIwOTEzOSA2LjQwODk2OTgtNC4wMDAwMDEgMTQuMzE0ODM0OC00LjAwMDAwMSA3LjkwNTg2NCAwIDE0LjMxNDgzNSAxLjc5MDg2MiAxNC4zMTQ4MzUgNC4wMDAwMDF6IiBzdHJva2Utb3BhY2l0eT0iLjUiIHN0cm9rZS1saW5lam9pbj0icm91bmQiIHN0cm9rZS1saW5lY2FwPSJyb3VuZCIgc3Ryb2tlPSIjZmZmIiBmaWxsPSJ1cmwoI2opIi8+JiN4YTsgIDxwYXRoIG9wYWNpdHk9Ii44IiBkPSJtMTQgMjcuNTkzNzUtMy4yODEyNSA1LjY4NzVDOS4wNjk5NzI2IDM2LjE0OTM3NiA4LjY2NDc5OTMgMzcuMDg4MzUzIDkuMTI1IDM4LjVjLjYxMDk0MjcgMS44NzQwNDIgMy4xMjUgNCAxNC4zNzUgNCA4LjY4MTc1NCAwIDE0LjIyOTI0Ny0uODk0MDg3IDE1LjQwNjI1LTMuOTM3NS40MTE2OC0xLjA2NDQ5My0uMDA1My0yLjY4NDgxOC0uODEyNS00LjAzMTI1bC00LjEyNS02LjkwNjI1Yy0uMTIwMjQuMTgyNTYtLjI0ODY1My4zNzIxNzYtLjQzNzUuNTMxMjUtLjQ0MzEyMy4zNzMyNjItMS4xMDEzMzEuNzEwMTQyLTEuOTM3NS45Njg3NS0xLjY3MjMzNy41MTcyMTctNC4xNDc1NjcuODEyNS03LjU5Mzc1LjgxMjUtMy40Nzg0MyAwLTUuOTYwMTIzLS4yOTQ5OTgtNy42MjUtLjgxMjUtLjgzMjQzOS0uMjU4NzQ5LTEuNDY4MDI2LS41OTQ3OTItMS45MDYyNS0uOTY4NzUtLjE5OTI2LS4xNzAwMzctLjM0NTU5MS0uMzY1OTM0LS40Njg3NS0uNTYyNXoiIGZpbGw9InVybCgjaykiLz4mI3hhOyAgPHBhdGggc3R5bGU9InRleHQtaW5kZW50OjA7dGV4dC1hbGlnbjpzdGFydDtsaW5lLWhlaWdodDpub3JtYWw7dGV4dC10cmFuc2Zvcm06bm9uZTtibG9jay1wcm9ncmVzc2lvbjp0YjttYXJrZXI6bm9uZTstaW5rc2NhcGUtZm9udC1zcGVjaWZpY2F0aW9uOlNhbnMiIG92ZXJmbG93PSJ2aXNpYmxlIiBvcGFjaXR5PSIuNSIgZm9udC13ZWlnaHQ9IjQwMCIgZm9udC1mYW1pbHk9IlNhbnMiIGNvbG9yPSIjMDAwIiBkPSJNMjQgMjMuNzUwOTU4Yy0yLjc1OTI4OSAwLTUuMjQ1NjczLjMxMjQ0MS03LjA3OTA1Ny44MjQ3NDUtLjkxNjY5My4yNTYxNTEtMS42ODcxODQuNTY2Nzk0LTIuMjMzNjgzLjkyNzgzNy0uNTQ2NDk5LjM2MTA0NC0uOTI3ODM4LjgwMTI2NC0uOTI3ODM4IDEuMzQwMjEgMCAuNDg3NzA0LjI4MzQyOC45MzE4ODkuNzIxNjUyIDEuMzA1ODQ1LjQzODIyNC4zNzM5NTggMS4wNTc2LjcwMzQ1MyAxLjg5MDAzOS45NjIyMDIgMS42NjQ4NzcuNTE3NTAyIDQuMTUwNDU3LjgyNDc0NSA3LjYyODg4Ny44MjQ3NDUgMy40NDYxODMgMCA1LjkyMjE4NS0uMzA3NTI4IDcuNTk0NTIyLS44MjQ3NDUuODM2MTY5LS4yNTg2MDggMS40ODEyODEtLjU4ODk0IDEuOTI0NDA0LS45NjIyMDIuNDQzMTIyLS4zNzMyNjEuNzIxNjUyLS44MTU4NDcuNzIxNjUyLTEuMzA1ODQ1IDAtLjUzODk0Ni0uMzgxMzM5LS45NzkxNjYtLjkyNzgzOC0xLjM0MDIxLS41NDY0OTktLjM2MTA0My0xLjMxNjk5LS42NzE2ODYtMi4yMzM2ODMtLjkyNzgzNy0xLjgzMzM4NC0uNTEyMzA0LTQuMzE5NzY4LS44MjQ3NDUtNy4wNzkwNTctLjgyNDc0NXoiIGZpbGwtb3BhY2l0eT0iLjY2NTA5NDI5IiBmaWxsPSIjNzNkMjE2Ii8+JiN4YTsgIDxwYXRoIHN0eWxlPSJ0ZXh0LWluZGVudDowO3RleHQtYWxpZ246c3RhcnQ7bGluZS1oZWlnaHQ6bm9ybWFsO3RleHQtdHJhbnNmb3JtOm5vbmU7YmxvY2stcHJvZ3Jlc3Npb246dGI7bWFya2VyOm5vbmU7LWlua3NjYXBlLWZvbnQtc3BlY2lmaWNhdGlvbjpTYW5zIiBvdmVyZmxvdz0idmlzaWJsZSIgb3BhY2l0eT0iLjgiIGZvbnQtd2VpZ2h0PSI0MDAiIGZvbnQtZmFtaWx5PSJTYW5zIiBjb2xvcj0iIzAwMCIgZD0iTTI0IDI0LjY0MjU1MWMyLjQ0MDcyNiAwIDQuNjUzNDMuMjc5NzU4IDYuMjMwMjc0LjcyMDM3NS43ODg0MjIuMjIwMzA5IDEuNDE5NjguNDg4MTQzIDEuODMwMTQyLjc1OTMxNC40MTA0NjIuMjcxMTcxLjU2NDYxOS41MTc1NC41NjQ2MTkuNzIwMzc1IDAgLjI0NjkxNS0uMTE5NDcuNDc5Njc4LS40MjgzMzEuNzM5ODQ1LS4zMDg4NjIuMjYwMTY4LS44MTM0NS41MjE3NDktMS41MTg2My43Mzk4NDYtMS40MTAzNTguNDM2MTkzLTMuNjA5ODY2LjcyMDM3NS02LjY3ODA3NC43MjAzNzUtMy4wOTc1NzggMC01LjMxNDUzOS0uMjg0NDM3LTYuNzE3MDEzLS43MjAzNzUtLjcwMTIzNy0uMjE3OTY5LTEuMTk1MDE1LS40ODAzMDQtMS40OTkxNi0uNzM5ODQ2LS4zMDQxNDUtLjI1OTU0MS0uNDA4ODYyLS40OTA4NjItLjQwODg2Mi0uNzM5ODQ1IDAtLjIwMjgzNS4xNTQxNTctLjQ0OTIwNC41NjQ2MTktLjcyMDM3NXMxLjA0MTcyLS41MzkwMDUgMS44MzAxNDItLjc1OTMxNGMxLjU3Njg0NC0uNDQwNjE3IDMuNzg5NTQ4LS43MjAzNzUgNi4yMzAyNzQtLjcyMDM3NXoiIGZpbGw9InVybCgjbCkiLz4mI3hhOyAgPHBhdGggc3R5bGU9InRleHQtaW5kZW50OjA7dGV4dC1hbGlnbjpzdGFydDtsaW5lLWhlaWdodDpub3JtYWw7dGV4dC10cmFuc2Zvcm06bm9uZTtibG9jay1wcm9ncmVzc2lvbjp0YjttYXJrZXI6bm9uZTstaW5rc2NhcGUtZm9udC1zcGVjaWZpY2F0aW9uOlNhbnMiIG92ZXJmbG93PSJ2aXNpYmxlIiBvcGFjaXR5PSIuNSIgZm9udC13ZWlnaHQ9IjQwMCIgZm9udC1mYW1pbHk9IlNhbnMiIGNvbG9yPSIjMDAwIiBkPSJNMjQgMzMuNTMxMjVjLTMuOTg4MzM4IDAtNy41OTk5ODcuNDQ3MDA1LTEwLjI1IDEuMTg3NS0xLjMyNTAwNy4zNzAyNDctMi4zOTc1NzkuODIxODktMy4xODc1IDEuMzQzNzUtLjc4OTkyMTIuNTIxODYtMS4zNDM3NSAxLjE1ODQ5NC0xLjM0Mzc1IDEuOTM3NSAwIC43MDQ5MzguMzY2NTgxNiAxLjM2NTcyNCAxIDEuOTA2MjUuNjMzNDE4LjU0MDUyNiAxLjU0Njc3NSAxLjAwMDk5NiAyLjc1IDEuMzc1IDIuNDA2NDUuNzQ4MDA4IDYuMDAzNDUgMS4xODc1IDExLjAzMTI1IDEuMTg3NSA0Ljk4MTE4OSAwIDguNTgyNzY2LS40Mzk5MDMgMTEtMS4xODc1IDEuMjA4NjE3LS4zNzM3OTkgMi4xNDA3NTEtLjgzNTQ3OSAyLjc4MTI1LTEuMzc1LjY0MDQ5OS0uNTM5NTIxIDEtMS4xOTc5OTYgMS0xLjkwNjI1IDAtLjc3OTAwNi0uNTUzODI5LTEuNDE1NjQtMS4zNDM3NS0xLjkzNzVzLTEuODYyNDkzLS45NzM1MDMtMy4xODc1LTEuMzQzNzVjLTIuNjUwMDEzLS43NDA0OTUtNi4yNjE2NjMtMS4xODc1LTEwLjI1LTEuMTg3NXptMCAuOTM3NWMzLjkxNzUyNyAwIDcuNDY5MDYyLjQ0OTAyOSAxMCAxLjE1NjI1IDEuMjY1NDY5LjM1MzYxMSAyLjI3ODY4MS43ODM1MDMgMi45Mzc1IDEuMjE4NzUuNjU4ODE5LjQzNTI0Ny45MDYyNS44MzA2ODYuOTA2MjUgMS4xNTYyNSAwIC4zOTYzMTUtLjE5MTc1OC43Njk5MTQtLjY4NzUgMS4xODc1cy0xLjMwNTY0MS44Mzc0NDEtMi40Mzc1IDEuMTg3NWMtMi4yNjM3MTguNzAwMTE4LTUuNzk0MDc0IDEuMTU2MjUtMTAuNzE4NzUgMS4xNTYyNS00Ljk3MTgxNiAwLTguNTMwMTg3LS40NTY1NDItMTAuNzgxMjUtMS4xNTYyNS0xLjEyNTUzMi0uMzQ5ODU0LTEuOTE4MDc3LS43NzA5MTktMi40MDYyNS0xLjE4NzUtLjQ4ODE3My0uNDE2NTgxLS42NTYyNS0uNzg3ODY4LS42NTYyNS0xLjE4NzUgMC0uMzI1NTY0LjI0NzQzMS0uNzIxMDAzLjkwNjI1LTEuMTU2MjUuNjU4ODE5LS40MzUyNDcgMS42NzIwMzEtLjg2NTEzOSAyLjkzNzUtMS4yMTg3NSAyLjUzMDkzOC0uNzA3MjIxIDYuMDgyNDczLTEuMTU2MjUgMTAtMS4xNTYyNXoiIGZpbGw9InVybCgjbSkiLz4mI3hhOyAgPHBhdGggdHJhbnNmb3JtPSJtYXRyaXgoLjYyMjc0IDAgMCAuNzczNjYgOC45MjE1MTE5IC0uNTc2MDk2MykiIGQ9Ik0zMi40MjU4OTcgOC41YTguMjEyOTQ4OCAxLjUgMCAxIDEtMTYuNDI1ODk4IDAgOC4yMTI5NDg4IDEuNSAwIDEgMSAxNi40MjU4OTggMHoiIHN0cm9rZS13aWR0aD0iMS40NDA2ODkyMSIgc3Ryb2tlLWxpbmVqb2luPSJyb3VuZCIgc3Ryb2tlLWxpbmVjYXA9InJvdW5kIiBzdHJva2U9IiM4ODhhODUiIGZpbGw9InVybCgjbikiLz4mI3hhOyAgPHBhdGggZD0iTTEyLjIxOTY4OSA0MS4wODkyNDNjLTEuNTAyNjAyLS43OTU0OTUtLjkwNTk4LTMuMjI2MTc1LjMzMTQ1OC00Ljk5Mzk0MiAxLjIzNzQzNy0xLjc2Nzc2NyA4Ljg2OTE2Ni0xNy4zMjQxMTYgOS4zMTExMDctMTguMzg0Nzc2VjguOTcwMzQxOGwxLjkyODA4Mi4xMTk4Njg1LjA0NDE5IDguOTY0MDY0N3MtMy42ODc3MzYgMTMuNjU4ODgzLTUuNjA0NDI3IDIwLjY0ODQ4MmMtLjMyMDMxMiAxLjE2ODA4Mi0xLjI4MTYzMSAyLjI5ODA5OC4yNjUxNjUgMy42MjM5MjMtMy4yNzAzNjktLjQ2NDAzOS00LjA4Nzk2My0uNTUyNDI3LTYuMjc1NTc1LTEuMjM3NDM3eiIgZmlsbC1vcGFjaXR5PSIuMDM3NzM1ODIiLz4mI3hhOyAgPHBhdGggZD0iTTM3LjA3MDQyIDQwLjMzMzg4MWMxLjUwMDU4OS0uNzk4Nzg5LjgzOTY4OS0zLjMxNDU2My0uMzk3NzQ5LTUuMDgyMzMtMS4yMzc0MzctMS43Njc3NjctOC44NjkxNjYtMTcuMzI0MTE2LTkuMzExMTA3LTE4LjM4NDc3NlY4Ljc5ODQ2NjhsLS45NDM3MDcuMTY2NzQzNS0uMDI4NTcgOC4yNDUzMTQ3czUuMTU2NDg2IDEzLjgxNTEzMyA3LjA3MzE3NyAyMC44MDQ3MzJjLjMyMDMxMiAxLjE2ODA4MiAxLjI4MTYzMSAyLjI5ODA5OC0uMjY1MTY1IDMuNjIzOTIzIDMuMjcwMzY5LS40NjQwMzkgMS44NDk1OTgtLjIyODE0NSAzLjg3MzEyMS0xLjMwNTI5OXoiIGZpbGwtb3BhY2l0eT0iLjA1NjYwMzc2Ii8+JiN4YTsgIDxwYXRoIG9wYWNpdHk9Ii41IiBkPSJNMjguMjk0NDQ4IDkuMTAyMzg1Yy0xLjU4MzA1LjI3MTA0MzctMi4wNTU1OC40OTYzMjM0LTQuMjkwMjI3LjQ5NjMyMzQtMi4yMzQ2NDYgMC0yLjk1NDkyLS4yODYxMDM4LTQuMzE0Mjk1LS40NDk0NDgxIiBzdHJva2UtbGluZWpvaW49InJvdW5kIiBzdHJva2UtbGluZWNhcD0icm91bmQiIHN0cm9rZT0iI2QzZDdjZiIgZmlsbD0ibm9uZSIvPiYjeGE7ICA8cGF0aCBvcGFjaXR5PSIuNzUiIGQ9Ik0yOC4wMTg1MjggMTcuNjM0NDMyYy0uOTMzMTc2LjgyODQyNy0zLjI0NTIxOC45MTk4NDMtNC4wNzQ2MjcuOTE5ODQzLS45NDI1MjMgMC0yLjI5MzExMS4wNjMyNi00LjA3NDYyOC0uODMxNDU1IiBzdHJva2Utd2lkdGg9IjIiIHN0cm9rZS1saW5lam9pbj0icm91bmQiIHN0cm9rZS1saW5lY2FwPSJyb3VuZCIgc3Ryb2tlPSJ1cmwoI28pIiBmaWxsPSJub25lIi8+JiN4YTsgIDxwYXRoIG9wYWNpdHk9Ii4xIiBkPSJNMzguNTc5NDg0IDM2LjMwODkzOGMtMy4zMjM1ODUgMS44OTY3ODMtMTEuNjgzMTE2IDIuNjA2MDkxLTE0LjYzNzEyNiAyLjYwNjA5MS0zLjM1Njg3NSAwLTguMDQyMTA4LS4zNTUxNTktMTQuMzg3MTMwMy0yLjQwMzcxNiIgc3Ryb2tlLXdpZHRoPSIxLjk5OTk5OTg4IiBzdHJva2UtbGluZWpvaW49InJvdW5kIiBzdHJva2UtbGluZWNhcD0icm91bmQiIHN0cm9rZT0iI2ZmZiIgZmlsbD0ibm9uZSIvPiYjeGE7ICA8cGF0aCBvcGFjaXR5PSIuNSIgZD0iTTE4LjkzNzUgNi44MTI0OTk5Yy0uMTU2MjUgMS4yMzQzNzUtLjA1MDkxIDEuNjM1MDc2NCAxLjI1IDEuODkwNjI1IDEuMzA2MDI4LjI1NjU1MjkgMi4xNzE1NzguMzU1NjA1NCAzLjc0OTcwMy4zODY4NTU0Ljk4OTYxNy4wMTk1OTYgMi44MDE4ODQtLjE0ODgzNyAzLjgzNTQ5OC0uMzgwMzk4MS44MDM2NTUtLjE4MDA0MzQgMS4wMzg4NjgtLjM0MDMzNzMgMS4yMzI4MjMtLjY2MDgxMTcuMjk4NzcxLS40OTM2NjI2LjE2OTM1Ny0xLjAyNDk0MDUuMDkyOTYtMS4yNDM2OTA1LTEuMDAyODQzLjU3OTIzNTQtMi44NjQxMTQuODk4MDQ0OS01LjI4NTk4OS44NTExNjk5cy00LjIzNDM3NS0uNDA2MjUtNC44NzQ5OTUtLjg0Mzc1eiIgZmlsbD0idXJsKCNwKSIvPiYjeGE7ICA8cGF0aCBvcGFjaXR5PSIuMSIgZD0iTTM4LjU3OTQ4NCAzOC4zNDE4N2MtMy4zMjM1ODUgMS44OTY3ODMtMTEuNjgzMTE2IDIuNTE3NzAzLTE0LjYzNzEyNiAyLjUxNzcwMy0zLjM1Njg3NSAwLTguMDQyMTA4LS4yNjY3NzEtMTQuMzg3MTMwMy0yLjMxNTMyOCIgc3Ryb2tlLXdpZHRoPSIxLjk5OTk5OTg4IiBzdHJva2UtbGluZWpvaW49InJvdW5kIiBzdHJva2UtbGluZWNhcD0icm91bmQiIHN0cm9rZT0iIzJlMzQzNiIgZmlsbD0ibm9uZSIvPiYjeGE7ICA8cGF0aCBkPSJNMTkuMjI4MzkxIDUuNjAyMzg1M2MtLjk1NDMyMy4yNS0xLjQ5NjA0IDMuMDM4NTE4NS40NzcxNiAzLjV2Ny45OTk5OTk3TDkuNzE2MDkwNSAzNC4wMjAwODJjLTEuMTk0MzE0NCAyLjAyMjYzNy0yLjUyNDI3OTQgNS4xODM4MDEgMS40Mjg0NzU1IDcuMTg4NTVDMTMuNjk3NzU0IDQyLjI3MTkxMiAxOC4yMzU1NiA0MyAyNCA0M2M1Ljc2NDQ0MSAwIDEwLjMwMjI0Ni0uNzI4MDg4IDEyLjg1NTQzNC0xLjc5MTM2OCAzLjk1Mjc1NS0yLjAwNDc0OSAyLjYyMjc5LTUuMTY1OTEzIDEuNDI4NDc2LTcuMTg4NTVsLTkuOTg5NDYyLTE2LjkxNzY5N3YtOGMyLjEyNzg4Mi0uNTQ5ODY5OSAxLjQzMTQ4NS0zLjI1LjQ3NzE2Mi0zLjUiIHN0cm9rZS13aWR0aD0iLjk5OTk5OTg4IiBzdHJva2U9IiM4ODhhODUiIGZpbGw9Im5vbmUiLz4mI3hhOzwvc3ZnPg==;" parent="1" vertex="1">
          <mxGeometry x="568" y="444" width="48" height="48" as="geometry" />
        </mxCell>
        <mxCell id="45CG2yu2ULFXQJwwx9nm-21" style="edgeStyle=orthogonalEdgeStyle;rounded=0;orthogonalLoop=1;jettySize=auto;html=1;exitX=0.5;exitY=0;exitDx=0;exitDy=0;entryX=0.5;entryY=1;entryDx=0;entryDy=0;" parent="1" source="45CG2yu2ULFXQJwwx9nm-14" edge="1">
          <mxGeometry relative="1" as="geometry">
            <mxPoint x="592" y="300" as="targetPoint" />
          </mxGeometry>
        </mxCell>
        <mxCell id="45CG2yu2ULFXQJwwx9nm-14" value="&lt;div&gt;PDF&lt;/div&gt;&lt;div&gt;Generator&lt;/div&gt;" style="rounded=1;whiteSpace=wrap;html=1;fillColor=#dae8fc;strokeColor=#6c8ebf;gradientColor=#7ea6e0;" parent="1" vertex="1">
          <mxGeometry x="517" y="340" width="150" height="60" as="geometry" />
        </mxCell>
        <mxCell id="45CG2yu2ULFXQJwwx9nm-17" value="Final Document" style="text;html=1;align=center;verticalAlign=middle;resizable=0;points=[];autosize=1;strokeColor=none;fillColor=none;" parent="1" vertex="1">
          <mxGeometry x="537" y="190" width="110" height="30" as="geometry" />
        </mxCell>
        <mxCell id="45CG2yu2ULFXQJwwx9nm-22" value="ODT" style="rounded=0;whiteSpace=wrap;html=1;fillColor=#647687;fontColor=#ffffff;strokeColor=#314354;" parent="1" vertex="1">
          <mxGeometry x="160" y="220" width="40" height="20" as="geometry" />
        </mxCell>
        <mxCell id="45CG2yu2ULFXQJwwx9nm-23" value="ODT" style="rounded=0;whiteSpace=wrap;html=1;fillColor=#647687;fontColor=#ffffff;strokeColor=#314354;" parent="1" vertex="1">
          <mxGeometry x="160" y="440" width="40" height="20" as="geometry" />
        </mxCell>
        <mxCell id="45CG2yu2ULFXQJwwx9nm-24" value="ODT" style="rounded=0;whiteSpace=wrap;html=1;fillColor=#647687;fontColor=#ffffff;strokeColor=#314354;" parent="1" vertex="1">
          <mxGeometry x="517" y="440" width="40" height="20" as="geometry" />
        </mxCell>
        <mxCell id="45CG2yu2ULFXQJwwx9nm-28" value="" style="shape=umlActor;verticalLabelPosition=bottom;verticalAlign=top;html=1;outlineConnect=0;" parent="1" vertex="1">
          <mxGeometry x="393" y="220" width="41" height="80" as="geometry" />
        </mxCell>
        <mxCell id="45CG2yu2ULFXQJwwx9nm-29" value="Customer" style="text;html=1;align=center;verticalAlign=middle;resizable=0;points=[];autosize=1;strokeColor=none;fillColor=none;" parent="1" vertex="1">
          <mxGeometry x="374" y="190" width="80" height="30" as="geometry" />
        </mxCell>
        <mxCell id="45CG2yu2ULFXQJwwx9nm-40" value="&lt;div&gt;&lt;br&gt;&lt;/div&gt;" style="shape=note;whiteSpace=wrap;html=1;backgroundOutline=1;darkOpacity=0.05;fillColor=#f5f5f5;strokeColor=#666666;gradientColor=#b3b3b3;" parent="1" vertex="1">
          <mxGeometry x="517" y="220" width="150" height="80" as="geometry" />
        </mxCell>
        <mxCell id="45CG2yu2ULFXQJwwx9nm-41" value="&lt;div&gt;&lt;b style=&quot;background-color: transparent; color: light-dark(rgb(0, 0, 0), rgb(255, 255, 255));&quot;&gt;Poison&lt;/b&gt;&lt;br&gt;&lt;/div&gt;" style="text;html=1;align=center;verticalAlign=middle;whiteSpace=wrap;rounded=0;" parent="1" vertex="1">
          <mxGeometry x="517" y="270" width="150" height="30" as="geometry" />
        </mxCell>
        <mxCell id="45CG2yu2ULFXQJwwx9nm-42" value="" style="shape=image;verticalLabelPosition=bottom;labelBackgroundColor=default;verticalAlign=top;aspect=fixed;imageAspect=0;image=data:image/svg+xml,PHN2ZyB4bWxuczp4bGluaz0iaHR0cDovL3d3dy53My5vcmcvMTk5OS94bGluayIgeG1sbnM9Imh0dHA6Ly93d3cudzMub3JnLzIwMDAvc3ZnIiBoZWlnaHQ9IjQ4IiB3aWR0aD0iNDgiIHZpZXdCb3g9IjAgMCA0OCA0OCI+JiN4YTsgIDxkZWZzPiYjeGE7ICAgIDxsaW5lYXJHcmFkaWVudCBpZD0iZSI+JiN4YTsgICAgICA8c3RvcCBzdG9wLWNvbG9yPSIjNzNkMjE2IiBvZmZzZXQ9IjAiLz4mI3hhOyAgICAgIDxzdG9wIHN0b3Atb3BhY2l0eT0iLjQ5ODAzOTIyIiBzdG9wLWNvbG9yPSIjODFlNzFlIiBvZmZzZXQ9Ii41Ii8+JiN4YTsgICAgICA8c3RvcCBzdG9wLWNvbG9yPSIjNzNkMjE2IiBvZmZzZXQ9IjEiLz4mI3hhOyAgICA8L2xpbmVhckdyYWRpZW50PiYjeGE7ICAgIDxsaW5lYXJHcmFkaWVudCBpZD0iZyI+JiN4YTsgICAgICA8c3RvcCBzdG9wLWNvbG9yPSIjNjZiOTEzIiBvZmZzZXQ9IjAiLz4mI3hhOyAgICAgIDxzdG9wIHN0b3AtY29sb3I9IiM3MmQxMTYiIG9mZnNldD0iMSIvPiYjeGE7ICAgIDwvbGluZWFyR3JhZGllbnQ+JiN4YTsgICAgPGxpbmVhckdyYWRpZW50IGlkPSJkIj4mI3hhOyAgICAgIDxzdG9wIHN0b3AtY29sb3I9IiNmZmYiIG9mZnNldD0iMCIvPiYjeGE7ICAgICAgPHN0b3Agc3RvcC1vcGFjaXR5PSIwIiBzdG9wLWNvbG9yPSIjZjJmMmYyIiBvZmZzZXQ9IjEiLz4mI3hhOyAgICA8L2xpbmVhckdyYWRpZW50PiYjeGE7ICAgIDxsaW5lYXJHcmFkaWVudCBpZD0iYSI+JiN4YTsgICAgICA8c3RvcCBzdG9wLWNvbG9yPSIjY2RjZGNkIiBvZmZzZXQ9IjAiLz4mI3hhOyAgICAgIDxzdG9wIHN0b3Atb3BhY2l0eT0iLjMxNjIzOTMzIiBzdG9wLWNvbG9yPSIjZmZmIiBvZmZzZXQ9Ii43MDgzMDY3MyIvPiYjeGE7ICAgICAgPHN0b3Agc3RvcC1jb2xvcj0iI2Q2ZDZkNiIgb2Zmc2V0PSIxIi8+JiN4YTsgICAgPC9saW5lYXJHcmFkaWVudD4mI3hhOyAgICA8bGluZWFyR3JhZGllbnQgaWQ9ImYiPiYjeGE7ICAgICAgPHN0b3Agc3RvcC1vcGFjaXR5PSIwIiBzdG9wLWNvbG9yPSIjZmZmIiBvZmZzZXQ9IjAiLz4mI3hhOyAgICAgIDxzdG9wIHN0b3Atb3BhY2l0eT0iMCIgc3RvcC1jb2xvcj0iI2ZmZiIgb2Zmc2V0PSIuNjE3NjMwNzgiLz4mI3hhOyAgICAgIDxzdG9wIHN0b3AtY29sb3I9IiNmZmYiIG9mZnNldD0iLjc0NTk3MDkiLz4mI3hhOyAgICAgIDxzdG9wIHN0b3Atb3BhY2l0eT0iMCIgc3RvcC1jb2xvcj0iI2ZmZiIgb2Zmc2V0PSIxIi8+JiN4YTsgICAgPC9saW5lYXJHcmFkaWVudD4mI3hhOyAgICA8bGluZWFyR3JhZGllbnQgaWQ9ImIiPiYjeGE7ICAgICAgPHN0b3Agc3RvcC1jb2xvcj0iI2RhZGFkNiIgb2Zmc2V0PSIwIi8+JiN4YTsgICAgICA8c3RvcCBzdG9wLW9wYWNpdHk9Ii40OTgwMzkyMiIgc3RvcC1jb2xvcj0iI2U0ZTRlMSIgb2Zmc2V0PSIuNSIvPiYjeGE7ICAgICAgPHN0b3Agc3RvcC1jb2xvcj0iI2RhZGFkNiIgb2Zmc2V0PSIxIi8+JiN4YTsgICAgPC9saW5lYXJHcmFkaWVudD4mI3hhOyAgICA8bGluZWFyR3JhZGllbnQgaWQ9ImMiPiYjeGE7ICAgICAgPHN0b3Agc3RvcC1jb2xvcj0iI2NkY2RjZCIgb2Zmc2V0PSIwIi8+JiN4YTsgICAgICA8c3RvcCBzdG9wLW9wYWNpdHk9Ii4zMTYyMzkzMyIgc3RvcC1jb2xvcj0iI2ZmZiIgb2Zmc2V0PSIuNSIvPiYjeGE7ICAgICAgPHN0b3Agc3RvcC1jb2xvcj0iI2Q2ZDZkNiIgb2Zmc2V0PSIxIi8+JiN4YTsgICAgPC9saW5lYXJHcmFkaWVudD4mI3hhOyAgICA8bGluZWFyR3JhZGllbnQgZ3JhZGllbnRVbml0cz0idXNlclNwYWNlT25Vc2UiIGdyYWRpZW50VHJhbnNmb3JtPSJ0cmFuc2xhdGUoMCAxKSIgeTI9IjYuODQzNzUiIHkxPSI3LjE4NzUiIHgyPSIyNy44NDM3NSIgeDE9IjI1IiBpZD0icCIgeGxpbms6aHJlZj0iI2EiLz4mI3hhOyAgICA8bGluZWFyR3JhZGllbnQgZ3JhZGllbnRVbml0cz0idXNlclNwYWNlT25Vc2UiIHkyPSI4Ljk1MzUyMjciIHkxPSI4LjI1MDQ2NzMiIHgyPSIyMy44NzEyODMiIHgxPSIxOS45NTk5ODgiIGlkPSJuIiB4bGluazpocmVmPSIjYiIvPiYjeGE7ICAgIDxsaW5lYXJHcmFkaWVudCBncmFkaWVudFVuaXRzPSJ1c2VyU3BhY2VPblVzZSIgZ3JhZGllbnRUcmFuc2Zvcm09InRyYW5zbGF0ZSgwIDEpIiB5Mj0iMjMuMzAxMTkxIiB5MT0iMjQuMDk2Njg3IiB4Mj0iMzEuNjAzMTA3IiB4MT0iMjAuOTkzMDg4IiBpZD0iaSIgeGxpbms6aHJlZj0iI2MiLz4mI3hhOyAgICA8bGluZWFyR3JhZGllbnQgZ3JhZGllbnRVbml0cz0idXNlclNwYWNlT25Vc2UiIHkyPSIzNS4wNTExMDUiIHkxPSIzOC45NDAxOTMiIHgyPSIyNS4xNDY0ODQiIHgxPSIyNS4yNzkwNjgiIGlkPSJtIiB4bGluazpocmVmPSIjZCIvPiYjeGE7ICAgIDxsaW5lYXJHcmFkaWVudCBncmFkaWVudFVuaXRzPSJ1c2VyU3BhY2VPblVzZSIgeTI9IjMxLjIwNjIxNSIgeTE9IjMyLjg4NTU5MyIgeDI9IjMzLjA1NzI0IiB4MT0iMjUuMzY3NDU2IiBpZD0iayIgeGxpbms6aHJlZj0iI2UiLz4mI3hhOyAgICA8cmFkaWFsR3JhZGllbnQgZ3JhZGllbnRVbml0cz0idXNlclNwYWNlT25Vc2UiIGdyYWRpZW50VHJhbnNmb3JtPSJtYXRyaXgoLjM0OTc5IC4wMDUzMSAtLjAwMzYgLjE0NDU0IDE1LjU4MDIxMiAxNy4wMDk0ODkpIiBmeT0iLS43MjM0MDQwNSIgZng9IjIzLjg4MTc5MiIgcj0iMTUuNDc1MTk1IiBjeT0iLS43MjM0MDQwNSIgY3g9IjIzLjg4MTc5MiIgaWQ9Im8iIHhsaW5rOmhyZWY9IiNmIi8+JiN4YTsgICAgPHJhZGlhbEdyYWRpZW50IGdyYWRpZW50VW5pdHM9InVzZXJTcGFjZU9uVXNlIiBncmFkaWVudFRyYW5zZm9ybT0ibWF0cml4KC0uMzc2NzEgLS4yNTcxOCAuMTUxMTQgLS4yMjEzOCAzMS4zODY1NCA1Mi45MjEwMDUpIiBmeT0iMzkuNTAyNTk4IiBmeD0iMjcuNjU4ODI3IiByPSIxNy4yNTQ2MTIiIGN5PSIzOS41MDI1OTgiIGN4PSIyNy42NTg4MjciIGlkPSJqIiB4bGluazpocmVmPSIjYiIvPiYjeGE7ICAgIDxyYWRpYWxHcmFkaWVudCBncmFkaWVudFVuaXRzPSJ1c2VyU3BhY2VPblVzZSIgZ3JhZGllbnRUcmFuc2Zvcm09Im1hdHJpeCguNDM0NzggLS4xMDg3IC4wNjE4NyAuMjQ3NDYgMTAuNTY0Mzg5IDIyLjU3MjYxNikiIGZ5PSIyNy45NDk2NjMiIGZ4PSIyMS43NSIgcj0iOC42MjUwMzUzIiBjeT0iMjcuOTQ5NjYzIiBjeD0iMjEuNzUiIGlkPSJsIiB4bGluazpocmVmPSIjZyIvPiYjeGE7ICAgIDxmaWx0ZXIgY29sb3ItaW50ZXJwb2xhdGlvbi1maWx0ZXJzPSJzUkdCIiB5PSItLjcwOTE1MDA4IiB4PSItLjA1Njg5ODU1IiBoZWlnaHQ9IjIuNDE4MzAwMiIgd2lkdGg9IjEuMTEzNzk3MSIgaWQ9ImgiPiYjeGE7ICAgICAgPGZlR2F1c3NpYW5CbHVyIHN0ZERldmlhdGlvbj0iLjk3OTgwNzI5Ii8+JiN4YTsgICAgPC9maWx0ZXI+JiN4YTsgIDwvZGVmcz4mI3hhOyAgPHBhdGggdHJhbnNmb3JtPSJtYXRyaXgoLjkxOTYyIDAgMCAyLjE1MjExIDIuMjM3NjQyMiAtNDcuOTgwNDMpIiBzdHlsZT0ibWFya2VyOm5vbmUiIG92ZXJmbG93PSJ2aXNpYmxlIiBvcGFjaXR5PSIuNCIgZmlsdGVyPSJ1cmwoI2gpIiBjb2xvcj0iIzAwMCIgZD0iTTQ0LjQwMTk2NiA0MS41NzAyMDZhMjAuNjY0MzAzIDEuNjU3OTk3IDAgMSAxLTQxLjMyODYwNTYgMCAyMC42NjQzMDMgMS42NTc5OTcgMCAxIDEgNDEuMzI4NjA1NiAweiIgZmlsbC1ydWxlPSJldmVub2RkIi8+JiN4YTsgIDxwYXRoIG9wYWNpdHk9Ii41IiBkPSJNMTkuMjI4MzkxIDUuNjAyMzg1M2MtLjk1NDMyMy4yNS0xLjQyOTc0OSAzLjMwMzY4MzUuNDc3MTYgMy41djcuOTk5OTk5N0w5LjcxNjA5MDUgMzQuMDIwMDgyYy0xLjE5NDMxNDQgMi4wMjI2MzctMi41MjQyNzk0IDUuMTgzODAxIDEuNDI4NDc1NSA3LjE4ODU1QzEzLjY5Nzc1NCA0Mi4yNzE5MTIgMTguMjM1NTYgNDMgMjQgNDNjNS43NjQ0NDEgMCAxMC4zMDIyNDYtLjcyODA4OCAxMi44NTU0MzQtMS43OTEzNjggMy45NTI3NTUtMi4wMDQ3NDkgMi42MjI3OS01LjE2NTkxMyAxLjQyODQ3Ni03LjE4ODU1bC05Ljk4OTQ2Mi0xNi45MTc2OTd2LThjMS45MDY5MTEtLjE5NjMxNjUgMS40MzE0ODUtMy4yNS40NzcxNjItMy41IiBmaWxsPSJ1cmwoI2kpIi8+JiN4YTsgIDxwYXRoIG9wYWNpdHk9Ii41IiBkPSJNMzguMzE0ODM1IDM3Ljk5OTk5OUMzOC4zMTQ4MzUgNDAuMjA5MTM4IDMzLjkwNTg2NSA0MiAyNCA0MmMtOS45OTk2MTYgMC0xNC4zMTQ4MzQ4LTEuNzkwODYyLTE0LjMxNDgzNDgtNC4wMDAwMDEgMC0yLjIwOTEzOSA2LjQwODk2OTgtNC4wMDAwMDEgMTQuMzE0ODM0OC00LjAwMDAwMSA3LjkwNTg2NCAwIDE0LjMxNDgzNSAxLjc5MDg2MiAxNC4zMTQ4MzUgNC4wMDAwMDF6IiBzdHJva2Utb3BhY2l0eT0iLjUiIHN0cm9rZS1saW5lam9pbj0icm91bmQiIHN0cm9rZS1saW5lY2FwPSJyb3VuZCIgc3Ryb2tlPSIjZmZmIiBmaWxsPSJ1cmwoI2opIi8+JiN4YTsgIDxwYXRoIG9wYWNpdHk9Ii44IiBkPSJtMTQgMjcuNTkzNzUtMy4yODEyNSA1LjY4NzVDOS4wNjk5NzI2IDM2LjE0OTM3NiA4LjY2NDc5OTMgMzcuMDg4MzUzIDkuMTI1IDM4LjVjLjYxMDk0MjcgMS44NzQwNDIgMy4xMjUgNCAxNC4zNzUgNCA4LjY4MTc1NCAwIDE0LjIyOTI0Ny0uODk0MDg3IDE1LjQwNjI1LTMuOTM3NS40MTE2OC0xLjA2NDQ5My0uMDA1My0yLjY4NDgxOC0uODEyNS00LjAzMTI1bC00LjEyNS02LjkwNjI1Yy0uMTIwMjQuMTgyNTYtLjI0ODY1My4zNzIxNzYtLjQzNzUuNTMxMjUtLjQ0MzEyMy4zNzMyNjItMS4xMDEzMzEuNzEwMTQyLTEuOTM3NS45Njg3NS0xLjY3MjMzNy41MTcyMTctNC4xNDc1NjcuODEyNS03LjU5Mzc1LjgxMjUtMy40Nzg0MyAwLTUuOTYwMTIzLS4yOTQ5OTgtNy42MjUtLjgxMjUtLjgzMjQzOS0uMjU4NzQ5LTEuNDY4MDI2LS41OTQ3OTItMS45MDYyNS0uOTY4NzUtLjE5OTI2LS4xNzAwMzctLjM0NTU5MS0uMzY1OTM0LS40Njg3NS0uNTYyNXoiIGZpbGw9InVybCgjaykiLz4mI3hhOyAgPHBhdGggc3R5bGU9InRleHQtaW5kZW50OjA7dGV4dC1hbGlnbjpzdGFydDtsaW5lLWhlaWdodDpub3JtYWw7dGV4dC10cmFuc2Zvcm06bm9uZTtibG9jay1wcm9ncmVzc2lvbjp0YjttYXJrZXI6bm9uZTstaW5rc2NhcGUtZm9udC1zcGVjaWZpY2F0aW9uOlNhbnMiIG92ZXJmbG93PSJ2aXNpYmxlIiBvcGFjaXR5PSIuNSIgZm9udC13ZWlnaHQ9IjQwMCIgZm9udC1mYW1pbHk9IlNhbnMiIGNvbG9yPSIjMDAwIiBkPSJNMjQgMjMuNzUwOTU4Yy0yLjc1OTI4OSAwLTUuMjQ1NjczLjMxMjQ0MS03LjA3OTA1Ny44MjQ3NDUtLjkxNjY5My4yNTYxNTEtMS42ODcxODQuNTY2Nzk0LTIuMjMzNjgzLjkyNzgzNy0uNTQ2NDk5LjM2MTA0NC0uOTI3ODM4LjgwMTI2NC0uOTI3ODM4IDEuMzQwMjEgMCAuNDg3NzA0LjI4MzQyOC45MzE4ODkuNzIxNjUyIDEuMzA1ODQ1LjQzODIyNC4zNzM5NTggMS4wNTc2LjcwMzQ1MyAxLjg5MDAzOS45NjIyMDIgMS42NjQ4NzcuNTE3NTAyIDQuMTUwNDU3LjgyNDc0NSA3LjYyODg4Ny44MjQ3NDUgMy40NDYxODMgMCA1LjkyMjE4NS0uMzA3NTI4IDcuNTk0NTIyLS44MjQ3NDUuODM2MTY5LS4yNTg2MDggMS40ODEyODEtLjU4ODk0IDEuOTI0NDA0LS45NjIyMDIuNDQzMTIyLS4zNzMyNjEuNzIxNjUyLS44MTU4NDcuNzIxNjUyLTEuMzA1ODQ1IDAtLjUzODk0Ni0uMzgxMzM5LS45NzkxNjYtLjkyNzgzOC0xLjM0MDIxLS41NDY0OTktLjM2MTA0My0xLjMxNjk5LS42NzE2ODYtMi4yMzM2ODMtLjkyNzgzNy0xLjgzMzM4NC0uNTEyMzA0LTQuMzE5NzY4LS44MjQ3NDUtNy4wNzkwNTctLjgyNDc0NXoiIGZpbGwtb3BhY2l0eT0iLjY2NTA5NDI5IiBmaWxsPSIjNzNkMjE2Ii8+JiN4YTsgIDxwYXRoIHN0eWxlPSJ0ZXh0LWluZGVudDowO3RleHQtYWxpZ246c3RhcnQ7bGluZS1oZWlnaHQ6bm9ybWFsO3RleHQtdHJhbnNmb3JtOm5vbmU7YmxvY2stcHJvZ3Jlc3Npb246dGI7bWFya2VyOm5vbmU7LWlua3NjYXBlLWZvbnQtc3BlY2lmaWNhdGlvbjpTYW5zIiBvdmVyZmxvdz0idmlzaWJsZSIgb3BhY2l0eT0iLjgiIGZvbnQtd2VpZ2h0PSI0MDAiIGZvbnQtZmFtaWx5PSJTYW5zIiBjb2xvcj0iIzAwMCIgZD0iTTI0IDI0LjY0MjU1MWMyLjQ0MDcyNiAwIDQuNjUzNDMuMjc5NzU4IDYuMjMwMjc0LjcyMDM3NS43ODg0MjIuMjIwMzA5IDEuNDE5NjguNDg4MTQzIDEuODMwMTQyLjc1OTMxNC40MTA0NjIuMjcxMTcxLjU2NDYxOS41MTc1NC41NjQ2MTkuNzIwMzc1IDAgLjI0NjkxNS0uMTE5NDcuNDc5Njc4LS40MjgzMzEuNzM5ODQ1LS4zMDg4NjIuMjYwMTY4LS44MTM0NS41MjE3NDktMS41MTg2My43Mzk4NDYtMS40MTAzNTguNDM2MTkzLTMuNjA5ODY2LjcyMDM3NS02LjY3ODA3NC43MjAzNzUtMy4wOTc1NzggMC01LjMxNDUzOS0uMjg0NDM3LTYuNzE3MDEzLS43MjAzNzUtLjcwMTIzNy0uMjE3OTY5LTEuMTk1MDE1LS40ODAzMDQtMS40OTkxNi0uNzM5ODQ2LS4zMDQxNDUtLjI1OTU0MS0uNDA4ODYyLS40OTA4NjItLjQwODg2Mi0uNzM5ODQ1IDAtLjIwMjgzNS4xNTQxNTctLjQ0OTIwNC41NjQ2MTktLjcyMDM3NXMxLjA0MTcyLS41MzkwMDUgMS44MzAxNDItLjc1OTMxNGMxLjU3Njg0NC0uNDQwNjE3IDMuNzg5NTQ4LS43MjAzNzUgNi4yMzAyNzQtLjcyMDM3NXoiIGZpbGw9InVybCgjbCkiLz4mI3hhOyAgPHBhdGggc3R5bGU9InRleHQtaW5kZW50OjA7dGV4dC1hbGlnbjpzdGFydDtsaW5lLWhlaWdodDpub3JtYWw7dGV4dC10cmFuc2Zvcm06bm9uZTtibG9jay1wcm9ncmVzc2lvbjp0YjttYXJrZXI6bm9uZTstaW5rc2NhcGUtZm9udC1zcGVjaWZpY2F0aW9uOlNhbnMiIG92ZXJmbG93PSJ2aXNpYmxlIiBvcGFjaXR5PSIuNSIgZm9udC13ZWlnaHQ9IjQwMCIgZm9udC1mYW1pbHk9IlNhbnMiIGNvbG9yPSIjMDAwIiBkPSJNMjQgMzMuNTMxMjVjLTMuOTg4MzM4IDAtNy41OTk5ODcuNDQ3MDA1LTEwLjI1IDEuMTg3NS0xLjMyNTAwNy4zNzAyNDctMi4zOTc1NzkuODIxODktMy4xODc1IDEuMzQzNzUtLjc4OTkyMTIuNTIxODYtMS4zNDM3NSAxLjE1ODQ5NC0xLjM0Mzc1IDEuOTM3NSAwIC43MDQ5MzguMzY2NTgxNiAxLjM2NTcyNCAxIDEuOTA2MjUuNjMzNDE4LjU0MDUyNiAxLjU0Njc3NSAxLjAwMDk5NiAyLjc1IDEuMzc1IDIuNDA2NDUuNzQ4MDA4IDYuMDAzNDUgMS4xODc1IDExLjAzMTI1IDEuMTg3NSA0Ljk4MTE4OSAwIDguNTgyNzY2LS40Mzk5MDMgMTEtMS4xODc1IDEuMjA4NjE3LS4zNzM3OTkgMi4xNDA3NTEtLjgzNTQ3OSAyLjc4MTI1LTEuMzc1LjY0MDQ5OS0uNTM5NTIxIDEtMS4xOTc5OTYgMS0xLjkwNjI1IDAtLjc3OTAwNi0uNTUzODI5LTEuNDE1NjQtMS4zNDM3NS0xLjkzNzVzLTEuODYyNDkzLS45NzM1MDMtMy4xODc1LTEuMzQzNzVjLTIuNjUwMDEzLS43NDA0OTUtNi4yNjE2NjMtMS4xODc1LTEwLjI1LTEuMTg3NXptMCAuOTM3NWMzLjkxNzUyNyAwIDcuNDY5MDYyLjQ0OTAyOSAxMCAxLjE1NjI1IDEuMjY1NDY5LjM1MzYxMSAyLjI3ODY4MS43ODM1MDMgMi45Mzc1IDEuMjE4NzUuNjU4ODE5LjQzNTI0Ny45MDYyNS44MzA2ODYuOTA2MjUgMS4xNTYyNSAwIC4zOTYzMTUtLjE5MTc1OC43Njk5MTQtLjY4NzUgMS4xODc1cy0xLjMwNTY0MS44Mzc0NDEtMi40Mzc1IDEuMTg3NWMtMi4yNjM3MTguNzAwMTE4LTUuNzk0MDc0IDEuMTU2MjUtMTAuNzE4NzUgMS4xNTYyNS00Ljk3MTgxNiAwLTguNTMwMTg3LS40NTY1NDItMTAuNzgxMjUtMS4xNTYyNS0xLjEyNTUzMi0uMzQ5ODU0LTEuOTE4MDc3LS43NzA5MTktMi40MDYyNS0xLjE4NzUtLjQ4ODE3My0uNDE2NTgxLS42NTYyNS0uNzg3ODY4LS42NTYyNS0xLjE4NzUgMC0uMzI1NTY0LjI0NzQzMS0uNzIxMDAzLjkwNjI1LTEuMTU2MjUuNjU4ODE5LS40MzUyNDcgMS42NzIwMzEtLjg2NTEzOSAyLjkzNzUtMS4yMTg3NSAyLjUzMDkzOC0uNzA3MjIxIDYuMDgyNDczLTEuMTU2MjUgMTAtMS4xNTYyNXoiIGZpbGw9InVybCgjbSkiLz4mI3hhOyAgPHBhdGggdHJhbnNmb3JtPSJtYXRyaXgoLjYyMjc0IDAgMCAuNzczNjYgOC45MjE1MTE5IC0uNTc2MDk2MykiIGQ9Ik0zMi40MjU4OTcgOC41YTguMjEyOTQ4OCAxLjUgMCAxIDEtMTYuNDI1ODk4IDAgOC4yMTI5NDg4IDEuNSAwIDEgMSAxNi40MjU4OTggMHoiIHN0cm9rZS13aWR0aD0iMS40NDA2ODkyMSIgc3Ryb2tlLWxpbmVqb2luPSJyb3VuZCIgc3Ryb2tlLWxpbmVjYXA9InJvdW5kIiBzdHJva2U9IiM4ODhhODUiIGZpbGw9InVybCgjbikiLz4mI3hhOyAgPHBhdGggZD0iTTEyLjIxOTY4OSA0MS4wODkyNDNjLTEuNTAyNjAyLS43OTU0OTUtLjkwNTk4LTMuMjI2MTc1LjMzMTQ1OC00Ljk5Mzk0MiAxLjIzNzQzNy0xLjc2Nzc2NyA4Ljg2OTE2Ni0xNy4zMjQxMTYgOS4zMTExMDctMTguMzg0Nzc2VjguOTcwMzQxOGwxLjkyODA4Mi4xMTk4Njg1LjA0NDE5IDguOTY0MDY0N3MtMy42ODc3MzYgMTMuNjU4ODgzLTUuNjA0NDI3IDIwLjY0ODQ4MmMtLjMyMDMxMiAxLjE2ODA4Mi0xLjI4MTYzMSAyLjI5ODA5OC4yNjUxNjUgMy42MjM5MjMtMy4yNzAzNjktLjQ2NDAzOS00LjA4Nzk2My0uNTUyNDI3LTYuMjc1NTc1LTEuMjM3NDM3eiIgZmlsbC1vcGFjaXR5PSIuMDM3NzM1ODIiLz4mI3hhOyAgPHBhdGggZD0iTTM3LjA3MDQyIDQwLjMzMzg4MWMxLjUwMDU4OS0uNzk4Nzg5LjgzOTY4OS0zLjMxNDU2My0uMzk3NzQ5LTUuMDgyMzMtMS4yMzc0MzctMS43Njc3NjctOC44NjkxNjYtMTcuMzI0MTE2LTkuMzExMTA3LTE4LjM4NDc3NlY4Ljc5ODQ2NjhsLS45NDM3MDcuMTY2NzQzNS0uMDI4NTcgOC4yNDUzMTQ3czUuMTU2NDg2IDEzLjgxNTEzMyA3LjA3MzE3NyAyMC44MDQ3MzJjLjMyMDMxMiAxLjE2ODA4MiAxLjI4MTYzMSAyLjI5ODA5OC0uMjY1MTY1IDMuNjIzOTIzIDMuMjcwMzY5LS40NjQwMzkgMS44NDk1OTgtLjIyODE0NSAzLjg3MzEyMS0xLjMwNTI5OXoiIGZpbGwtb3BhY2l0eT0iLjA1NjYwMzc2Ii8+JiN4YTsgIDxwYXRoIG9wYWNpdHk9Ii41IiBkPSJNMjguMjk0NDQ4IDkuMTAyMzg1Yy0xLjU4MzA1LjI3MTA0MzctMi4wNTU1OC40OTYzMjM0LTQuMjkwMjI3LjQ5NjMyMzQtMi4yMzQ2NDYgMC0yLjk1NDkyLS4yODYxMDM4LTQuMzE0Mjk1LS40NDk0NDgxIiBzdHJva2UtbGluZWpvaW49InJvdW5kIiBzdHJva2UtbGluZWNhcD0icm91bmQiIHN0cm9rZT0iI2QzZDdjZiIgZmlsbD0ibm9uZSIvPiYjeGE7ICA8cGF0aCBvcGFjaXR5PSIuNzUiIGQ9Ik0yOC4wMTg1MjggMTcuNjM0NDMyYy0uOTMzMTc2LjgyODQyNy0zLjI0NTIxOC45MTk4NDMtNC4wNzQ2MjcuOTE5ODQzLS45NDI1MjMgMC0yLjI5MzExMS4wNjMyNi00LjA3NDYyOC0uODMxNDU1IiBzdHJva2Utd2lkdGg9IjIiIHN0cm9rZS1saW5lam9pbj0icm91bmQiIHN0cm9rZS1saW5lY2FwPSJyb3VuZCIgc3Ryb2tlPSJ1cmwoI28pIiBmaWxsPSJub25lIi8+JiN4YTsgIDxwYXRoIG9wYWNpdHk9Ii4xIiBkPSJNMzguNTc5NDg0IDM2LjMwODkzOGMtMy4zMjM1ODUgMS44OTY3ODMtMTEuNjgzMTE2IDIuNjA2MDkxLTE0LjYzNzEyNiAyLjYwNjA5MS0zLjM1Njg3NSAwLTguMDQyMTA4LS4zNTUxNTktMTQuMzg3MTMwMy0yLjQwMzcxNiIgc3Ryb2tlLXdpZHRoPSIxLjk5OTk5OTg4IiBzdHJva2UtbGluZWpvaW49InJvdW5kIiBzdHJva2UtbGluZWNhcD0icm91bmQiIHN0cm9rZT0iI2ZmZiIgZmlsbD0ibm9uZSIvPiYjeGE7ICA8cGF0aCBvcGFjaXR5PSIuNSIgZD0iTTE4LjkzNzUgNi44MTI0OTk5Yy0uMTU2MjUgMS4yMzQzNzUtLjA1MDkxIDEuNjM1MDc2NCAxLjI1IDEuODkwNjI1IDEuMzA2MDI4LjI1NjU1MjkgMi4xNzE1NzguMzU1NjA1NCAzLjc0OTcwMy4zODY4NTU0Ljk4OTYxNy4wMTk1OTYgMi44MDE4ODQtLjE0ODgzNyAzLjgzNTQ5OC0uMzgwMzk4MS44MDM2NTUtLjE4MDA0MzQgMS4wMzg4NjgtLjM0MDMzNzMgMS4yMzI4MjMtLjY2MDgxMTcuMjk4NzcxLS40OTM2NjI2LjE2OTM1Ny0xLjAyNDk0MDUuMDkyOTYtMS4yNDM2OTA1LTEuMDAyODQzLjU3OTIzNTQtMi44NjQxMTQuODk4MDQ0OS01LjI4NTk4OS44NTExNjk5cy00LjIzNDM3NS0uNDA2MjUtNC44NzQ5OTUtLjg0Mzc1eiIgZmlsbD0idXJsKCNwKSIvPiYjeGE7ICA8cGF0aCBvcGFjaXR5PSIuMSIgZD0iTTM4LjU3OTQ4NCAzOC4zNDE4N2MtMy4zMjM1ODUgMS44OTY3ODMtMTEuNjgzMTE2IDIuNTE3NzAzLTE0LjYzNzEyNiAyLjUxNzcwMy0zLjM1Njg3NSAwLTguMDQyMTA4LS4yNjY3NzEtMTQuMzg3MTMwMy0yLjMxNTMyOCIgc3Ryb2tlLXdpZHRoPSIxLjk5OTk5OTg4IiBzdHJva2UtbGluZWpvaW49InJvdW5kIiBzdHJva2UtbGluZWNhcD0icm91bmQiIHN0cm9rZT0iIzJlMzQzNiIgZmlsbD0ibm9uZSIvPiYjeGE7ICA8cGF0aCBkPSJNMTkuMjI4MzkxIDUuNjAyMzg1M2MtLjk1NDMyMy4yNS0xLjQ5NjA0IDMuMDM4NTE4NS40NzcxNiAzLjV2Ny45OTk5OTk3TDkuNzE2MDkwNSAzNC4wMjAwODJjLTEuMTk0MzE0NCAyLjAyMjYzNy0yLjUyNDI3OTQgNS4xODM4MDEgMS40Mjg0NzU1IDcuMTg4NTVDMTMuNjk3NzU0IDQyLjI3MTkxMiAxOC4yMzU1NiA0MyAyNCA0M2M1Ljc2NDQ0MSAwIDEwLjMwMjI0Ni0uNzI4MDg4IDEyLjg1NTQzNC0xLjc5MTM2OCAzLjk1Mjc1NS0yLjAwNDc0OSAyLjYyMjc5LTUuMTY1OTEzIDEuNDI4NDc2LTcuMTg4NTVsLTkuOTg5NDYyLTE2LjkxNzY5N3YtOGMyLjEyNzg4Mi0uNTQ5ODY5OSAxLjQzMTQ4NS0zLjI1LjQ3NzE2Mi0zLjUiIHN0cm9rZS13aWR0aD0iLjk5OTk5OTg4IiBzdHJva2U9IiM4ODhhODUiIGZpbGw9Im5vbmUiLz4mI3hhOzwvc3ZnPg==;" parent="1" vertex="1">
          <mxGeometry x="568" y="224" width="48" height="48" as="geometry" />
        </mxCell>
        <mxCell id="45CG2yu2ULFXQJwwx9nm-25" value="PDF" style="rounded=0;whiteSpace=wrap;html=1;fillColor=#e51400;fontColor=#ffffff;strokeColor=#B20000;" parent="1" vertex="1">
          <mxGeometry x="517" y="220" width="40" height="20" as="geometry" />
        </mxCell>
        <mxCell id="45CG2yu2ULFXQJwwx9nm-45" value="Customer" style="text;html=1;align=center;verticalAlign=middle;resizable=0;points=[];autosize=1;strokeColor=none;fillColor=none;" parent="1" vertex="1">
          <mxGeometry x="373.5" y="520" width="80" height="30" as="geometry" />
        </mxCell>
        <mxCell id="45CG2yu2ULFXQJwwx9nm-51" value="" style="shape=image;verticalLabelPosition=bottom;labelBackgroundColor=default;verticalAlign=top;aspect=fixed;imageAspect=0;image=data:image/svg+xml,PHN2ZyB4bWxuczp4bGluaz0iaHR0cDovL3d3dy53My5vcmcvMTk5OS94bGluayIgeG1sbnM9Imh0dHA6Ly93d3cudzMub3JnLzIwMDAvc3ZnIiB4bWw6c3BhY2U9InByZXNlcnZlIiBzdHlsZT0iZW5hYmxlLWJhY2tncm91bmQ6bmV3IDAgMCA1MDAgNTAwOyIgdmlld0JveD0iMCAwIDUwMCA1MDAiIHk9IjBweCIgeD0iMHB4IiBpZD0iTGF5ZXJfMSIgdmVyc2lvbj0iMS4xIj4mI3hhOzxzdHlsZSB0eXBlPSJ0ZXh0L2NzcyI+JiN4YTsJLnN0MHtmaWxsOnVybCgjU1ZHSURfMV8pO30mI3hhOzwvc3R5bGU+JiN4YTs8ZyBpZD0iTG9nb3R5cGVzIj4mI3hhOwk8Zz4mI3hhOwkJJiN4YTsJCQk8bGluZWFyR3JhZGllbnQgZ3JhZGllbnRUcmFuc2Zvcm09Im1hdHJpeCgwLjk5OTggMCAwIDAuOTk5OCA5LjY1MTg3M2UtMDIgLTU3OC45OSkiIHkyPSIxMDc5LjIwNTgiIHgyPSItOS42NTM4MDNlLTAyIiB5MT0iNTc5LjEwNTgiIHgxPSI1MDAuMDAzNSIgZ3JhZGllbnRVbml0cz0idXNlclNwYWNlT25Vc2UiIGlkPSJTVkdJRF8xXyI+JiN4YTsJCQk8c3RvcCBzdHlsZT0ic3RvcC1jb2xvcjojRTQ0ODU3IiBvZmZzZXQ9IjMuNDM1MTQ0ZS0wMyIvPiYjeGE7CQkJPHN0b3Agc3R5bGU9InN0b3AtY29sb3I6I0M3MTFFMSIgb2Zmc2V0PSIwLjQ2ODkiLz4mI3hhOwkJCTxzdG9wIHN0eWxlPSJzdG9wLWNvbG9yOiM3RjUyRkYiIG9mZnNldD0iMSIvPiYjeGE7CQk8L2xpbmVhckdyYWRpZW50PiYjeGE7CQk8cG9seWdvbiBwb2ludHM9IjUwMCw1MDAgMCw1MDAgMCwwIDUwMCwwIDI1MCwyNTAiIGNsYXNzPSJzdDAiLz4mI3hhOwk8L2c+JiN4YTs8L2c+JiN4YTs8L3N2Zz4=;" parent="1" vertex="1">
          <mxGeometry x="170" y="350" width="20" height="20" as="geometry" />
        </mxCell>
        <mxCell id="45CG2yu2ULFXQJwwx9nm-52" value="" style="shape=image;verticalLabelPosition=bottom;labelBackgroundColor=default;verticalAlign=top;aspect=fixed;imageAspect=0;image=data:image/svg+xml,PHN2ZyB4bWxuczp4bGluaz0iaHR0cDovL3d3dy53My5vcmcvMTk5OS94bGluayIgeG1sbnM9Imh0dHA6Ly93d3cudzMub3JnLzIwMDAvc3ZnIiB4bWw6c3BhY2U9InByZXNlcnZlIiBzdHlsZT0iZW5hYmxlLWJhY2tncm91bmQ6bmV3IDAgMCA1MDAgNTAwOyIgdmlld0JveD0iMCAwIDUwMCA1MDAiIHk9IjBweCIgeD0iMHB4IiBpZD0iTGF5ZXJfMSIgdmVyc2lvbj0iMS4xIj4mI3hhOzxzdHlsZSB0eXBlPSJ0ZXh0L2NzcyI+JiN4YTsJLnN0MHtmaWxsOnVybCgjU1ZHSURfMV8pO30mI3hhOzwvc3R5bGU+JiN4YTs8ZyBpZD0iTG9nb3R5cGVzIj4mI3hhOwk8Zz4mI3hhOwkJJiN4YTsJCQk8bGluZWFyR3JhZGllbnQgZ3JhZGllbnRUcmFuc2Zvcm09Im1hdHJpeCgwLjk5OTggMCAwIDAuOTk5OCA5LjY1MTg3M2UtMDIgLTU3OC45OSkiIHkyPSIxMDc5LjIwNTgiIHgyPSItOS42NTM4MDNlLTAyIiB5MT0iNTc5LjEwNTgiIHgxPSI1MDAuMDAzNSIgZ3JhZGllbnRVbml0cz0idXNlclNwYWNlT25Vc2UiIGlkPSJTVkdJRF8xXyI+JiN4YTsJCQk8c3RvcCBzdHlsZT0ic3RvcC1jb2xvcjojRTQ0ODU3IiBvZmZzZXQ9IjMuNDM1MTQ0ZS0wMyIvPiYjeGE7CQkJPHN0b3Agc3R5bGU9InN0b3AtY29sb3I6I0M3MTFFMSIgb2Zmc2V0PSIwLjQ2ODkiLz4mI3hhOwkJCTxzdG9wIHN0eWxlPSJzdG9wLWNvbG9yOiM3RjUyRkYiIG9mZnNldD0iMSIvPiYjeGE7CQk8L2xpbmVhckdyYWRpZW50PiYjeGE7CQk8cG9seWdvbiBwb2ludHM9IjUwMCw1MDAgMCw1MDAgMCwwIDUwMCwwIDI1MCwyNTAiIGNsYXNzPSJzdDAiLz4mI3hhOwk8L2c+JiN4YTs8L2c+JiN4YTs8L3N2Zz4=;" parent="1" vertex="1">
          <mxGeometry x="527" y="350" width="20" height="20" as="geometry" />
        </mxCell>
        <mxCell id="45CG2yu2ULFXQJwwx9nm-54" value="" style="endArrow=classic;html=1;rounded=0;" parent="1" edge="1">
          <mxGeometry width="50" height="50" relative="1" as="geometry">
            <mxPoint x="310" y="479.58000000000004" as="sourcePoint" />
            <mxPoint x="380" y="479.58000000000004" as="targetPoint" />
          </mxGeometry>
        </mxCell>
        <mxCell id="45CG2yu2ULFXQJwwx9nm-56" value="" style="endArrow=classic;html=1;rounded=0;" parent="1" edge="1">
          <mxGeometry width="50" height="50" relative="1" as="geometry">
            <mxPoint x="448" y="479.58000000000004" as="sourcePoint" />
            <mxPoint x="518" y="479.58000000000004" as="targetPoint" />
          </mxGeometry>
        </mxCell>
        <mxCell id="45CG2yu2ULFXQJwwx9nm-198" value="" style="shape=image;verticalLabelPosition=bottom;labelBackgroundColor=default;verticalAlign=top;aspect=fixed;imageAspect=0;image=data:image/png,iVBORw0KGgoAAAANSUhEUgAAAS0AAAEqCAYAAABA5gZWAAABhWlDQ1BJQ0MgcHJvZmlsZQAAKJF9kT1Iw0AcxV9TtSKVDhYRcchQdbEgKsVRqlgEC6Wt0KqDyaVf0KQhSXFxFFwLDn4sVh1cnHV1cBUEwQ8Qd8FJ0UVK/F9aaBHjwXE/3t173L0DhHqZqWbXJKBqlpGMRcVMdlX0vaIHgwgggnGJmXo8tZiG6/i6h4evd2Ge5X7uz9Gv5EwGeETiOaYbFvEGcWTT0jnvEwdZUVKIz4knDLog8SPX5Sa/cS44LPDMoJFOzhMHicVCB8sdzIqGSjxDHFJUjfKFTJMVzluc1XKVte7JX+jPaSsprtMcQQxLiCMBETKqKKEMC2FaNVJMJGk/6uIfdvwJcsnkKoGRYwEVqJAcP/gf/O7WzE9PNZP8UaD7xbY/RgHfLtCo2fb3sW03TgDvM3Cltf2VOjD7SXqtrYWOgMA2cHHd1uQ94HIHGHrSJUNyJC9NIZ8H3s/om7LAwC3Qt9bsrbWP0wcgTV0t3wAHh8BYgbLXXd7d29nbv2da/f0A6pdy19nR5vgAAAAGYktHRAD/AP8A/6C9p5MAAAAJcEhZcwAADdcAAA3XAUIom3gAAAAHdElNRQfpBhYPNzZTTG+ZAAAgAElEQVR42ux9eXwU15Xud6uqN3VrAcQONtjgBYz3DWODJMxmG4wB2ZjNHk/iJJPFk5kks+TNC0neLMlkkoyTmSTMJHHM4uSRzYmdmfGzQXHsGNvsmF1olxCS0NJ7d1Xd8/6oqu5SI1CrGrrBup9//GgXVVe3L7c+zvnOuecAAgICAgICAgICAgICAgICAgICAgICAgICAgICAgICAgICAgICAgICAgICAgICAgICAgICAgICAgICAgICAgICAgKXHkwsgYDA8EP1bPjcRUU3geRbGcd1JPFyCSjnnI1iDFECiAFRBpzhjNUxojqm49DmN8PHAJAgLQEBgUuKjRshnfp9yV2c+CNMwsMg3AxAdjBUFwFvS4T/J4N+8UJNpF2QloCAwEXD0xVlU3SoHyPGngYw7iIPrwP4PWP0QnxU5GfbtyMpSEtAQMARNlQU388Z/2uALQEg5eFHtjKw57nX9f2t/9UdFKQlICCQFdbOD8xgHBsBVBdoCmdB9NXE6Mh3t2+HLkhLQEBgQKy5v3SE7NK+QWBP58myGgwHOfgz23ZG9wjSEhAQ6If1lUUPEaQfAJh0mU1NA6N/KeqL/N2mPVAFaQkIDHeyWjjWT1r0+yBad5lP9S3mwsrNr4U7BGkJCAxTrHugaDwU+TcA3XmFTLmFgy+/GO6iIC0BgSvNwqoI3EQMrwK46gqbehiEpVtqwjWCtAQEhgnWVvrnM7CfAyi7WGNOH38dqm5bgDJvCcb4R0BhEmKREPxQ0BbqwIn2k9jTdAgNva0X48dFIdHyLW9E/p8gLQGBDz1hFT/DQN8H4MplHEmSsfDupZh/23yM9YwE4xwgAuJxgHNA04BEwrhZ143PnEOPx9CdCOM/Dr+Co90NuUwhDsISpxaXIC0BgcsfbH1V4KtE+GIug0wefw0+vfILGFcyFkzXDZIi6kdM0DQgaSa2q6rxmfM0oZnXw3oC/+fAT9Ea7XY6nR6mY87mN8NHBWkJCHyI8Okl8PTGAz8iYI3TMcaNnoy/Xv9ljPKNNEhKVdOWlEVMRMY13cwHTSQMArOsLqL+93AOJJOoT3Tj6ydfRZgP/QQPgRokF7tnqFFFQVoCApcpqheVjPQk+a8AzHXyvCzJ+OSav8Vd0+4BkmqadDTNdNLiaQKyrC7O01aXndwsa4wobY2Z43Gu42vtb+JIdOhnpwn4n+nzwg9t3Aie9fcSW0NA4PLDU1Wl10o63wHgDifPjx89Gd/6/Iu4qmQCoNmIySKpWCztDsbjxkOWVWURl6qmr1sklUz2dxl1HYyA+93jkZCAk4mzQ3X1pnU3eGIHG5JvC9ISELhCsWF+8WxO/HU4TGm4cdqt2Pjst6EktbRlZFlSdmJKJtPEZJGRrqcJzXIT1QwrzW51mRYbU1XMkstQKruwP9k1tAkzzLt5qus3BxvUM4K0BASuMKytCKwC8GsApU6er7pnCT698m8gJZJp0rFbSRYBWVaXnYzsVpfdGrML8XaXkXMgGjV+N8e8Ri9CrzuJBjU8JE8WYLeueDr545qawQsMCtISELhMsK6y+POM4QcA3E6eX7/0WayasxZM09LEZP+s68avgfQri9yAc/Ur+z2WHqaq57qVZiTytkQAR30hdGmJoUx/Uk+Tu/1gfXJ3Fi6lgIBAIVFdDdndFfhXBnzS6Rh/88zfY8aEmwxysacw2EV2K1JoEU2GNtVPZLesNE3rT26ZFpuqpl1MWyRSg4pPeA8jrvKhfI0ud9J7zY/e7goJS0tA4DLFM3PKi1lC/gUD1jp5XpIk/Mufb8KUkVP6W0aZqQ12bcoiHbvbZ3cT7USWmfJgt96s+wd4VlJ13FVSjNfVnqF8nSJN0YOH6pNvCUtLQOAyxIYq30RO8isAbnXyfJG3GN/5yx/DTabtYSeUZLK/a3i+rPdMN9HuGtqF+oGSUS0ii8X6E6ZlycXjeGt6Aj8Idw7la51NkG/K9prO84piktg6AgIFIKz5/ps5ybucEtaE0ZPxvc9vNgjLEsTtVpIV5bPEdPvnRKJ/NNEuslvX4/H+bl8mMVmfLSE+mUwTVjKZGuf+oxKu93uH8tVGeaTY+gtal2L7CAjkF+vm+xdwzt6Ew6J9t1x/J/7pY9+BpFN/MjofAVmfrYig3U3MFOJ13SAiS+OKx/u7mJmup53gLKvLnjqRSOJTLUVgQ/HpCJ+6kBcoNC0BgTxifWXxsyBsA1Dk5Pmlc1fgow99BoxT/wielWeVKZTbtSaL3DKvW0dz7EmkmQL9QCkSdpE/kzxNoksSQYpw4CoFJ9Ssi5eOvnWK5/UDDckmYWkJCBQObF1VYCOBfgBAcTLARx/7FB5/YENaX7IsIMvSsbuGFknpuvFn0Wh/crGnP9jdO8vtsxOQ5QLax7TusUjS+mxaY0SEOBF0InAiLPhAhixlb25xiVad788UsZcEBC4tnq6AV2OBn4DwuNMx/u4j/4Drxs7oTzSZlk5mbpXl0llWlz2dITPRNDOdwX6PpWvZLbmBIojmODoRVCIQAM38jAQwL+DBjmA8WxfxMQCfxQDdrEX0UEDgEuLJiuJymdGvAcxxZJ4xhm/++Q9QXjRm4OM4meRiT2ew3L6BiCbzoPRALmBmxQc7wdnTJSwLDIBKBM083pPkPNVDTCVCoozhi+NDWX93See3v/hmdJ+wtAQE8oQ1c0umS4z/DsA0J8973V48/5c/ho95+2es20lqIKKxpycMRDSZpHe+LPnzpUIMUNqGTJLiALj5mUwzKWlek/o4Jk9T0BzRsvr+usLmAdgnNC0BgTxgbUXJvZLM33ZKWOPKJ+B7n98CHzwGoVjZ61b0z64v2XWqzPQEuzZlT3mwk8757rfrXRap2SOI5rw4ERImYWlEKcLiABIAuKltxXXCQ13Zpz8wsDlC0xIQyAPWVwRWE+M/BuB18vzMa2fiC6u/AkkjIB49V7OyLCO71pSpX6nqBXWnc+633MdM/cruYmYeoDZdQUu/Uk1yAgDNJDDKcBlHdRBwdZYLQZg9oNsotpiAwMXDugr/c8Sw1Slhzb97Pv5q9VchqfzcPCuLXOwJoJYFFo32T3PIjCbaUxLs99vvyRzTbslZEUSbrpa0EVbSRljWdQ4gbhKW5T5qQR1Frqyl9InPzCkvFpaWgMAlQEUFlElS4HsgfMTpGKsXPIGH714NJJIDWzr2z5bFlKlHDRRNzDwobVlp9nvOp3dlnl/UtP76FRESJllZ5MUB6ABUm5uo2vSuW1U3/ojsKkDEXbFrAewXpCUgcDH1qyUjS1g8uR2EhU7H+OTKT+De6xYA0Vg6sjdQpYbzCeL2xNDz1X0fqDa89dmyuqzP9miibS4DpjOYZJS0rpskBZO8kuZn6/5JERnwZ7cuMmPXCNISELiIWD3XN5klkq8CmOV0jL9Z93nMmHRvOgHUThznO8A80OFo67rTdAZ79DGzO49JOAOlM2imbpWpa6k211CzffYHedakBbBy4R4KCFwkbJjvv5k4e4UIk508L8sS/vFj/4jx/qlpvWkwQXygcjKZLqPd6sqsrWWvizVQKsRA6QxERtqC6fql0hms6+afWTqW3X20P0umK6lEsj89SOABQVoCAhfDJazyL+ScbQdQ4uR5v9eLf/nkd+Enf9qSGki/ynQNz5cBn3nuMJP0BmrAmnk9s1aWroObgjsB0M3PltunmgSl2ywtu5ZldyX7PesZwkIRE0K8gECuWFdR/BEQfc/p+zOpfDS++sy3oSQBcO3Cgrhdp7ITjT21wdKm7C7g+Y7jWJac3arLzG4fIJ1B4xxWSqhGBM20sDSby2jXuLQM7Usz3dQkABYbQjVT6dxTO4K0BASyB1tXFfgSiL7kdIBbpt2Aj6/6Krp0QtgrI84YkpIEjTEQY2C6DokIsq5Dl2V44nEURSIY1dGB4mQS8kDa1EBZ7JkuYzbRx4zqDHqGO5i6nuEC2jWuVATRlgqR+mwSnTSUCvjEIoK0BAQcoHo2fB5vYDMIK52OsfKxT2DszQ9j74WKS8mG3sNMNy5SUoKeQACtY8cCRCjp6cHoM2cw/vhxSAPpVwO5j7qezr2yX7f3NjStsQulMyRM8rG7jPY0B25aUmQSVQIATPJLuZLmPdn/M0FhQVoCAkPE+oWBMaTiZQD3Oh3j2T/9KmjSbVCzqYZnitYkSZAsS4UxKJyjr6wMfaWlaJ40CZNPnMDY48ehDCSgZ1Z2yKwNP4CVdr50Bis6iExtyn6/7R67a6ibf2bPjI8PpTka4awgLQGBIeDJiuIbSKVXAVzj5HlJYvjMZ76PSFmWRUoty4YxSFaUTpKg6Dq4SXgEIO7z4cTNN+PUzJm4saYGo+vr++tawPnTGQbQzAZLZwD6H8dRbTqVahKV3a1MpT/Y3Urz18mrGJBtsQfGawVpCQhkiXVVxfeB6GUA5U6edytufPovX0DQl51pwUzXyk5YnDEoqgrOWOr/JV0Hl6TUr6MPPIBTt90Gf28vbnr1VbDzRR/t0UR7dQbTmjvH7TNdPgKQsFdtsNIZ7K4h0lnv/VxJmyammSTWFM+6gikSkucUEBWkJSAwKGFV+NeC6IcAPE6eH1Fcgj997gX0KVk+bpGFSVjc/KyoKrgkGTqRJEHSNIOsGAMYgysaRdLrRdLjQdzvhybLcIXD5zahGMDqshOK3e3jJunAdO/s11P3w5bagHTW+zn6VYYg7y6Vkci+F2Lb9td7+s6xXsX2FBA4h7CeA2ObnRLWtCnT8PRnt2RNWMwmdkumG2gRli5JBgFIEmTT4uKS8dq6w2GoPp8xhqZBlWXse+SR/uWTrYPPGSWYNVs5GZXzFDGpNvHdKjNjpT8kbBaTRV6qdY91HekjPRZRJThPWWx9E4dEOW8PdFE0thAQMPHsHXDdcKP/hwzsr+Gwqu/9d87F/au+gpgkZ01YZCcsk6TkZNIgJ5OklGQSuqKAS0bikisWQ9LnA2MMzDzEzGUZidJSdE6dipEnThgWl71WlnlQOmmSELe5dyndyeb26TaNK1NMJ5yb5qBnuImZ1ptKHHtvkJDQKUs9C98/WJ98T1haAgID4OmKsrJoSeC/GLGnnY6xcsmTuPnhLyAhSdkTlqlVSZyndCtFVUGy3I+wNEUBZwyMCO5IBEmvF4wxo+oCEXSTzJRYDMGJE7F37VpwezpDZrMJS6eyPlukY1pO1rGbeEZelv1ZS8tKmL9zm96VtBGWZaW5yxT0JbNPLCWNfn8+7U9AYFgj107PAPCxdV8Arp2bivBlQ1jcfAElzqHbCEs3SY9LEpREoh9hucJhJPx+MNMl5ETQZRkggisWg+b1giQJLJmEr7sb93/lK2Cq2s/qsacz2DWrzHSGwT4PlOaQKearpjXGAJyq8qApqmW7pLVbdoanD/QHwtISGN76VaX/llw6PTMGfOFT3wJNmzckwiLzXjYQYZmiu5JIQLUIi3O4IhEkAgHD0rAsLJOw3LEYtKKiFGFxlwuRMWNwfNkyQ3eyuXqpigw2wsq8Z8Dr1mdbAUDrulXdwR41TJiExQGw8fJQCAsgbDnfHwnSEhi+hFXhXwywP8Bhp2ePS8Lffu4n6Cm/DlmqNJAswuK8n0soq6pBQIyBZBlyIgHN5TKO9liE5fenstqJc2hm9rw7EkHS5wMBBmEpihGN5ByN99+PzhkzwIkQz9CgNKvyAucpnSphcwcTlvZlPWvdY1po9utqhgVmF+1VEPZdPzSqkWT2kiAtAQEb1lcGPgPGXgFQ7OT50mIfPvf5n6LDn30KFyMyrDHOwYgMC4vIiAqaFhYBkBMJ6C6XYaHoetrC4hySmSCqK0a2kjscRtJvFKeyCIsAEOdgnIPcbpyork5ZQLpJRik9ynYEx4ry2T/b0xasYz3cIiabHmZPTFVNrSxlgd3lQU98CFoW8PqLb4ROnO/PRfRQYFihuhry7eP8/wiw/+P0H+0pE8biqU/8GGddviERFjEG6DoYY9AZA4gga1oq54oYg6SqhoUFI5roiscNDcsiIc6hWYQViSAZCBgRRFUFN5+DrqejkrKMZCAA3+nTcLW2wkrr1AbQuCjjumpzAVWcexznnFZhtjOLVlSy5K4ivOXShrS+EsNHD9Yn64WlJTDs8exSFLm7Ar8Asb9yOsbsWbOw8k83oUdxOyIsMJY62qJYKQ5mmoOkqtBNS0nSNCixGBJFRWBm9Qau6ynC8gSDSJqCPEwNi8zD0XbCAhGUcBitCxakSGcgPYrbPttdw0w30XIl7RaYjnQ00bLAAGDcIyV4s0izTiZlt1ag9zbvCO+40D0iI15gWODpCv+4aEj6DWN0l9MxVi1Yign3fhRBWR4yYTFdT2W8w3TzdDMPi5kun2YRlq5DSSb7W1iaBt3lMggrFEKiuNhISrUsLDthEYEUBcQ5lEgEWiAAzedD5KqroDQ0pI/a2KykhK0Jhb1voWqv4DBASzB7JNK6LksMV//JSPy2IYKESkNaY5Lwvwa7R7iHAh96rJ0fmMGBHYxhppPnGQM+/vizCNy2BokhEBaIAOusoFUviwgy50Z+luUuAoaFZdbRUpJJJHw+g8zMxFDNIqxwGIliQ4ZjAxEWkCIsVzQKLRAAdB1yXx90VUXRsWPnVGFI2I7g9HMZgX4VSC1rbKCk04Rpibk8Eqb82Sj8ri6CYFQf4kLj51t2RP5psNuEpSXwocb6qkAVcfwCYGVOnpclhofvuxpXTb0RPLoPRFEQj4IYIMvFABRI8INJI6DCgygrQtDjNV5m04rSTc0qM2IoaRpIktL6lq5DVtU0YZn6lEVYbtPCAtE5hIVMCyseh+r3gzQNcjgM3edDz7x5KP31r8FNkhqwakMGYakZyajIsMxS9bGI4BuhYNRTI/DLA0HEEnyoSx3l0D6XzY2CtAQ+vBZWhf8pImwC4HbyvM8t4fHFs3DNDXdBw9F+fgkDwGEci7G/nkUEFCUYSCsCl25CWBmJPpcLZBGWefi538FnGImikqYh4fVC0nWDjGwWljcYRLykxNC3NK0/YZmkQbKcIizN5wPXNLjCYehmwil0HZEbboDvgw9SkT+y5VbZq4umWoLZyi4PaI2Zn8uu8UBb5MevdveBcxryWjPCF7btjDdm9Q+J2NoCH0KwdVWBjQzsW07/YS71y9jw2GxcNe0247jMUCcgqZBYK7xUi1ItiKJ4AFGXGxzGuUJdlg33kAhM08B0HZrHMyBhufv6kCgtPT9hcZ4iLDmRgO7zAaaFxb1e4+eoKsjjgTpiBNxvv51qqJq0l5AxSUy36VqqrTa8ynnaArNdHzc7gDO3u/H2kciQRHcbfrGlJvz5bG8WlpbAhwrV1XB7zhb/EETrnI4xsdyDNcsrUDzq6os0q9Nwu07j6vhIRPlNOF0UMHKwiCCZWpTmdhtivZm+oFqEFQwiOQhhQVFApmupeb2G1RaNGoQlSUZ00eMBMQZt1KiUwK5d6DgOzpPOYLvOGMOERcXY5+WoPxl1ujh1CilD6sotLC2BDw3W3F86wpVwvQJgmdMxbpxSgicfW4yisgkXfX4kxaDIjRjTHUNMLoNmEpcuSUaE0CSYlOje14dkaWmqFvyAFpaNsHSPB0zXwaJRkNudGo9MwgIA7nLBvXMn9EQi3SnHRkw6zm0VZi/iZ12XJGDs4hK8yVWc7lGdLkmvJNHin+wMNQrSEhh2WD+3dCpz6W8AcJzScNeNo/Ho0iVw+8ou6Vx1bxDFdBZytBQRrzedx5VMQnMb8psnGDRcQs1oMXY+lxCcpwgLqgoWj59LWOYBbKaqgNsN6ehRSB0d6XIyGekMA9V6t1tmzC1hxIIAdsSSCMZ0p8sQ5wwPb9kReW+oDwrSErjyLayqkrsZ428AmOLkeYkxLJ4zBZVVCyC7ivIzaSkBj9KC0cfPIqr4oSsKdJOw3MEgkiUlxpEdzs8hLGY2vYAp6KcIyzp3KMspDSt1iFtVAZcLpOtgfX3gH3xwTncce234VDqD7egOAEg+Cd75RdgZTiKpkdNvrwNYs3Vn+L+dPCw0LYEr28KqDKwg4lsA+Jw871YYVi2Yietn3QPG8vxvuEToG/Emijo0hEfcB7IsLJOw6DwWlnVOkXEO3e02LKhkElyWDcJKJkFud7/IJFcUQzMjglpSAjfSYjqZ7b4yE03tZWsAQCphSMzx4Z3eRC5OcoSBbdi8M/xLpyMI0hK4YrGuwv8cAd+Ew+NoAa+EJx++HZOn3YZ8l5YjriLcthvJ8BlwdwhS4nbI8QQSpaVG/pbdwuLcyJy3dC+zBDJXFMOC0rRzCMuyxJiug8z7SJJA0SjgciFur8IwQDqD3R0kAFKphM77fKjtS+bytdsY0aObayK7cxlEkJbAFYfqasiezsC3wfApp2OMLnVh7WNzMXLstXmfP9diCDbvgp4wejZIyU6UNvwd/J1L0XrvfecSFmDoWmaCKojAZRksmQSzrlsuoWVhmdYZlySjHDNjYKEQ4PVCCwbBMojJ3vrLqu0OU+9SRsuov82D9twIa7+m68t++masOdf1E6QlcGW5gwvH+qkz/BIYljod45oJATyxfAF8xaPzPn8t1o1Qy7vgen8Xi1EE8bJfwdU3E/GRI88hLALSPREVBcxsBcYlyQjlqSrI5UpZWOA8RWRcksDMnC24XKCysvS5Q1tFBntXaMBIhfBMduPAdAmRiOb8SzP8vMgffmrTbxG9GGsoqjwIXDnu4ANF46FGfw/GHBPW7deNwtrHHykIYSVDbQg2v30OYaUsMCWBsfu/n25lbxIW7IRlWVSm25ZJWGTW6iLGQKqasrAswoKug0ej59TW0qwuPGYWfBIE941uvDeVITL0IzkpLxiMvjZtbviJi0VYwtISuHIsrIrATcTwKoGucvSPPQPm3jEZlRVVkGRP3ucf7zmFyJkPLKo5LyITWzFy326cveX2lHBORIAsp0spWySWSVgW6VjXAYOwfD5AUVIlmikY7NdVR7VFDblZaVS5x49digZynNGABBF9ZOvOyBbsuLhrKUhL4LLHhgr/g5zh5wBKnTwvSwyPVd6AWXfcl/8IIQiRMwcR76nP+glP4jeQIteDe0xyVZRUHldK15Ikg4RcrvQ10/IiU8NCMAgeCBhuoklYUBSoHR3nFPGDaW3pEpC834/9ugY4zmjAac6k5dt2Bt+7FCsq3EOBy9slrCr+E87Y75wSltctYcOyO3DznffnnbBIVxFsentIhAUA6shujDj0R8MqkqQUYcGKHJrExBXFsL6stATGwG0WFpmERVYrMbOAII/H+zVfhUleXAE6HyjCEV3L5Wsf5EybvW3HpSEsQVoClzPYuqrARhD9CIDLyQAjAgo++kQFpl5/O/Kd0qCrEfQ1/h5qtMvZi+nZlU5xSCSMA9G6nrakFMX4bJ5XhNkDEQAQDoOKi1NCPCTJ0MIsgurpSaU5WCVnJL+Mhvu8aNVyISz2O/K6H9i2I954KddWuIcClx0+vQSennjghyCsdTrGpNFFWLPiQQTKxuV9/mqsG+EBIoRDQnEn/HvfRfiOe6ErinGcJ5OwzGsAQMmkkctlEhYxZlyT5dQ9KdJqbzeI1YwcekYr2H+DAlV3LLiDgOenzwt9duNG8Eu9voK0BC4rVC8qGdkT578EMM/pGDOmlGHFsoWX/AzhQEiEWhFp2wvKQcG24IkeQFCekyYsK1HUIixZNnSqZNKwtiIRwCQsJJNgpnjf3wTUwbu7U3lZ7ms92DMeqbwsJ1+ZiD62tSbyE+zMzxoL0hK4bLDmwdJr5KT+KgE3OB1j9s0TsfDB+ZBd3rzPP3b2BKKdRy6ednN1LaS+PvDiYoOwTKuJVDWlTzFVNUybcBgoKTFSIZJJMKszT6YV2NyMmKlx8Vle7C6lXKZ4lgErt9REfp/PdRakJXBZYG1Fyb1M118mYIyjF5wxPDz3Otx59xwwKb/bmkhH5PR+JILNF3VcBoK7/hhiM29PuXmkaSnCokTCcP1iMVBJien7mYRl1qc/h1hPnAAkhuBtbtT7ciKsDxRSlr5Q09uQ770iSEug4FhXGVgJ8M1weOjZpTCsXnI7ps/Iv+DO9SRCre9Ci569JOO7O99HVL4rlZNlEZblElI0ChYIGHlbViWH8xAW6Tpi+/eg7W4POpVcCIv9d0JWVm95vaevEPtFkJZAYQmrwv8ccjn07FOw4bEHMG7y9LzPXU+GEWrZBT0ZvmQ/o2hiHfricaPYn1kckKyM+HgcCARAnBuZ82Yt+kzh3bLKur7/HRzwHkc0h8wPAp5Plof+Yvt26IXaM4K0BAqC6mrInq7A8wD+zOkYY0Z6sX7lgygdOSHv81ejnQi1vgfS1Uv7g3wERMKg8tEp8knlbfn9BlnpOuB2n5eweDiMzu//C97z1EN3nuSkEfDc1p3hfy/03hGkJZB/wqoYHfB0RX8K4GGnY0ybXIonHl0Ij39E3uef6GtEuP0AQDw/L+npWiTLRxsalkVYXq9RvVTXwdxucE0DG6Ano9bZidP/+c/YU9zh2HNmQLcuYdW2N8I7L4f9I0hLIK9YvaBogqLFfguw252OcefM8Xho0Xwo+aoyakO06xhiXcfy+jPdZw8hkbzDiAbqOuDzGdFEzg2X8DyElWxuRuO2b+BwSQ7SE8NJIrZ02xuh45fLHhKkJZA3rJ3rn8U09goAx4eeF8+ZhntnPwAmufI6dyNCuA+JYEve1809MpYuVaMo4KpqGE2KYpDYAIQVO/wBjr38PBpLc6qB9ZrClSdeqOntvZz2kSAtgbxg3Xz/AnD2cwAlTp53yUD14jtww00FiBBqcYRadkGLF+bdlTxBww00O++AMSNny5b+YEforbdw6A8/QkdpTu7rpqJg+FOb9kC93PaSIC2BS471FcV/Spy+B4dnCP0+GeuXP4AJV12X97lriSBCLbvA1WjB1q871IFgYyNKpk41RHjzEDRznbucff/zP9h16CXESpx/ZWL4iwVQCwoAACAASURBVK07wt+5XPeTIC2BSwm2rirwJSL6ktMBysu82LDyQZSVFyBCGOkwIoRcK9gCNpxRcawlgTE3GvWzmCyDmwmkGf4run62DbvaX4Pmc2yJ9hCoeuuOyBuX86YSpCVwSWAeev4xCE86HeOaCSV4YsUi+AoQIYz3NiJyJn8RwnNcUg580BhH61mDMLlZCJAnEmBmq7EUX6kq2n/0A7yn7ga5HBNWLdOxbMubkaOX+94SpCVw0bFhfvGonhj9CgwPOB3j9hvG4eGHHoQr7xFCQrTzCGJnTxZs/ZIqYc+pOHrD6fxNNR4zLKwMwtIjETRv+ib2u085l/oIf3DpWPnjP4Q7r4T9JUhL4KLiqarSa3Wu/w4MjgQoxoDKu6/B3AfmQZLzHCHkmtnWq71g6xeKceypjSGW6H/Mhrlc57iE6tmzOPnjb+CE73QODjz+sygY/rPLUXAXpCWQDwtrts71lwE46hohM4bHFszCzbfdg+EWIQSAzj4d++ti0AY4IKN1nAZmzExbY62tOPDSN9Dq63H643QQ++KWnaGvXWn7TJCWwEXB2orAKs7pRTg89Ox1Mzy59F5MnTYr73PXEn0INe8C12IFWz9LcD9fWSstnJ5b9OhR7P7d8+j2OZ5viDG2dvPO0G+vxL0mSEsgZ6yr8D8H5vzQc1mJGxtWPojyMZPyPvdk5AzCre8XLEJIBBxtTqCx48LemaIYSxvavRvvvPV9RL2O51snA8t+siN0+Erdb0y8cgJOUVEBZSIC32EMH3c6xuQxAaxZtRj+4pF5n3+2bb0uFVSdsO9UHGeDFy6YIEtAWcnjcKsJvHXsp9Alx/N9m7mwYvNr4Y4red8J0hJwhGfmlBcnXYmfgdESp2PMvHYMVixdCJcn/xHCyJlDiPfUFWz9ogmOPbVxhGMXTqnwuBgmjlLQvHcsDtOJHF50+lG8PPKJ7duRvNL3niAtgSFjQ5VvIif5FQC3Oh1jzm1TseDBCkj5PkPIVTNCeKZg69cT1rH3VBxJ9cIWU3GRBJ+b4Y9Hw+DcsXVFYPjKlh3hjR+W/SdIS2BohDXffzPn7FUAjgQoxoCllbNwx533gLH8drDjWgzB5l3QE30FW7/mLhWHG88vuFsYXSojmtCx71ROx4fCHGzdtp2hlz9Me1CQlkDWWF/pX0Rg/xc5HHpevXQ2pl9fgAhhrBuhXNt65YiTbUnUtg3unU0apaD+TBz1Z3Ly5FrA+KNbdkT3ftj2oYgeCmSFtVXFHyWif3e6Z4qLXFi/shLjJkzJ+9yToTaET+8B8cJUCNY54UBdAmd6tUGt0KvHurD7RATdoZyimbt0iZa/9Eb0zIdxLwpLS2DQPbKuKvAlEBwfeh47yo/1qxaipGx03idf6AhhPEnYUxtDMHphwd2lMEwcJeOtD8KIJnkuL/TP4vHwn2x/B7EP7YYU76TA+fB0Bbw6C7xAwBNOx5g+ZTQef3QhPF5/nmdPiJw5iHhPfcHWrzeiY29tHIlBBPciD0NpQMJbh8PQ9ZwF9y8XjKEFaQkUEhvmF4/inF4GMMfpGHfNugoPLayCrLjzS1e6ilDru1CjXQVbv9PdGg42xMEHMZpGFctQuY7dJ3IS3ONg9MyWHZGXhoXpL15PgUysqyiZBon/DgRHfbkYAxbcPxNzZs/Oe4QwH229BkNdexLHWwYX0cePVNDcmUBde07BgTZG/NHNNdHdw0avEK+ogB1rK4vnMNCvAZQ7eV6WGKofuhszZt6S97mrsW6ECxgh5Bw41BhH29ksBPcxCvafiqGjL6fiCvs1XV/20zdjzcNpjwrSEkhbWJWBxwH8BIDXyfNFHgXrV1Vh4qQpeZ97ItSKSNteEBUmQphQDcG9L3Jhf1CRgfEjXXjnWAjROM/lzf15kT/81KbfIjrc9qkgLQHTJfQ/B8a+5XRPjCotwvrqhRg5akze516Itl52BKMce2tjiCUvrH/7PAxlfoa3j0Sg5SS409enzY387caN4MNxrwrSGuaoqIAyiQX+DcCzTseYMrEMq1csRlFRSV7nbrT12o9EsHDe0YVqYNlR5pehkY59tdFBs+EvZNAR0Ue21kS2DOc9K5JLhzGerigr06H9koBKp2PcfMMELH9oARSXJ69z53oSodZ3oUXPFmz9BquBZWH8CAXtPUkcb43n8uNOcyYt37Yz+N5w37fC0hq+hDVFY9qrAGY4HWPePTeiat6cYRch5AQcboyjpWvwrPWJoxQcboqhozcnwf2gJOtLX3w91iR2riCtYYm184vuYlz6LYCxjjYNA1Ysuhu33HJr3ueuRjuNtl56YUqaqzphb20c3aHBa2BNKndh17EwQrFcggPsd+6kZ/WP3u4KiZ0rSGtYYl1F8XIw2grAURErr1vBmscqMWXK1LzPPdHXiHB74dp6RRMcu0/GERkk6ud1M5QFJPzxSDgXwR0EPD99Xvizw1VwF6QlYEUInZdFDnix/vGFGD16XP4Jo8ARwq6gjv2n4lD1wWtgSYyw+0Qkl7M0CSL62NaayE/Erj0XQogfBqiuhuzuCnwTwGecjjFxbBnWrlqMQKAQEcJ9SARbCrZ+zZ0qDjdlVwOrM6jiREtOgnsXZ1i5bWfkTbFzhaU1LLF+4Vg/qZFtAJY5HePGaydg5bIH4XZ78zr3Qrf1IgJOtCZQ1z64fjZ+pILjzVG092q5vI2HFK4se6Gmt0HsXEFawxJPV/jHaUz6LUB3Oh3jvtunY2HVA5Dk/BrlWiKIUMsucLUwCd+aTthfF0dn34VFdEkyIoTvn4ggGM1JcP/vhKys3v56T5/YuYK0hiWeqgzM1MFeBehqRxuDAYvm3YL77rkn73NXIx1GhLBAbb2ybTrhUhhGlxqCe1LLTXBPlof/Yvt26GLnCtIallhb6Z/PwH4OoMzJ84os48nl8zB92rS8zz3e24BI+wEUqiRUtk0nAj4Jbpnw7vGcBHeNgOe27gz/u9i1grSGLdZXFD9NjDYBcNTmJlBkRAjHj813hJAQ7TyC2NmTBVu7bGtgjSyW0BPWcbwllsuL161LWLXtjfBOsWsFaQ3bv8tcyyKPGVWCDY8/hJKSPEcIuWa29Wov2OJl23Ri/EgZtafjaO1Sc3nrToLY0i07Q8fFthWkNSxRXQ2352zxD0G0zukY1149Dk8sXwCv15fXuRc6QjiUphMTRirYXRtGKJpTrudrCilPvFDT2yt2riCtYYk195eOkFz6LwFUOB3jzlnX4uFF8yDnPULYh1DzLnCtMD0YEiph98ksmk7IhuD+ztEwElpOWtumomD4U5v2QBU7V5DWsMT6uaVTIeu/I+AGp2NU3XcL5j1wN1iet0Iycgbh1vcLFiEMRjn21MYQTw7edMKtAO+fjORSUkYjhr/YuiP8HbFrBWkNX8KqLLmHwH8DwFHVPVmSsOrh+zFzxg15n3uh23q192g4WB+HnoXgHorpONyYkyXYQ6DqrTsjb4hdK0hrGBNWYAUBm+H00LPXjfUrH8TkSZPyPHNC5MwhxHvqCrZ2de1JnGhNDmo1jSlT0NAeR8vZnLo81+rElr5UEzomdu3Fgzh7eIVhXYX/OQIcH3oeOaIEG6oXY+SIsrzOm7hqRggL0/SYc+CDxjhas2g6MW6EgoP1EfSEc8j1JPxBB1vxUk2oS+xaYWkNS5iHnv+VAZ90OsbVE8fgyZWLUOTLd4QwhmDzLuiJwpxQSWpGDazBSEiWgPJSGe8dDw/aYHWQl+o/fMHwJ4XgLkhr+BJWxeiAV4q+RMQecTrGLTOuwbIlFXApeY4QxroRKmBbr1DMENxjicGbThS5gXdPRMG5Y8LSQeyLW2pCXxO7VpDW8HUHHygazxT5twS6w+kY8+6dhcq590DKc1nkZKgN4bY9BWvrlW3TiVK/hFhCxwe5Ce4hIrZma03oFbFrBWkNW6yvCNxEDK8CuMrJ85LE8MjCObjzlhl5n3uhI4TZNp0YVSKjuTOBlq6cBPc6krB06xvhI2LXXnoIIf4yxYYK/4Oc4ecASp0873a7sOax+bhmylV5nTcRR6R9HxJ9hWnrRQQcbU6gsWNwOWnsCBmHG6OD1nsfBG8zF1ZseS3cIXatsLSGLdZWFj/DQN+Hw0PPJcV+bHh8McaUj8ovYegqQq3vQo0WJmCm6oR9p+I4Gxy8BtaYMhnvn4ggluA5vDz0o3h55BPbtyMpdq0grWH795HroecJY0dh7arFKA748zrxQrf1yrbphMfFUORleP9EJBfBncDwlS07whvFlhWkNWzx6SXw9MYDPyJgjdMxZlw3BY89XAmP25XXuauxboQLGCHsDuvYWxuHOsi5wGKfBFXXcbA+J8E9zMHWbdsZelnsWkFawxbVi0pGepL8VwDmOh1j9l03YVHFvZCk/EYIE6FWRNr2FixC2Nyl4nDj4IJ7eYmM1rMJNHbk5Mm1gPFHt+yI7hW7VpDWsMVTVaXX6qS/CuB6R3+BjGFR5WzMvvMmsDz/bRayrddQmk6Ul8o41hxDdyinw9m7dImWv/RG5IzYtYK0hi3WVpTcyxj/DYDRTp53Ky6sXjEf06bmO0KoI3J6PxLBwkQIdW40nejozUJwL5Wx+0QE0WQugjt+Fo+H/2T7O4iJXStIa9hiXWVgJYxDz47O1BQHirC+ejHGjSnP67y5nkSo9V1o0bMFWbd4krCnNosaWAqD38uw50QEOuUsuH8ZhUo4ExCkdVkQVo6dnseOGYn1q5agpHh4RQh7Izr21GbRdMIrgYNj/6lc2o9RhJi0fuuO0K/EjhWkNWxRXQ3Z0xX4DoBPOB1j+jWTUb1sPrwed17nrkY7jbZeemHOAGfbdKIsIKGjV0XDmZwimW2M+KOba6K7xa4VpDV8CatidMDDoj8F2MNOx7j7thux5ME5kPMdIexrRLj9AEC8IGuXbdOJ8hIJtW0JdPTlRKz7NV1f9tM3Y81i1wrSGrZYvaBogqJLr4Bwm6O/JMawYN7dmHPPLXn/CytkhJBz4GBDHKe7B6+BVV4iY9+pCKKJnIh1e1Eg/PSm3yIqdq0grWGLtXP9sySZvUrAZCfPK4qCVUurMOO6KXmdtxEh3IdEsKUg65ZQDcG9LzJ404kSv5Hhrum5CO709WlzI3+7cSO42LWCtIYvYVX5FzJi2wE4aiToL/Jh7aolmDQ+zxHCArf1CkY59tbGEEsOXgOLQDhUH82l6USciD66tSayRezYKwOiysMlwrqK4o+A6HtO17h81AisX7UYI8qK8zpvLRFEqGUXuFoYDynbphOlRRK6QypOteckuJ/mTFq+bWfwPbFjhaU1rNc010PPU66aiNXLH0SRz5PXiauRDiNCWKC2XkOpgVXbFkdnboL7QUnWl774eqxJbFlBWsMWn14CT08i8AIIq52Oceus67F04f1wKXJe5x7vbUCk/QAKkUOZbdMJi7A+aIgiFHN+1pGAX0ou/4bNr52JiF0rSGvYYsP84lGc068B3O90jHlzbkflnDsg5fUQISHaeQSxsycLsm5JzaiBNVghPlkCSvwS9pzMSXAHAc9Pnxf+rBDcBWkNa6yrKJkGxl8FcJ2T52VZxrIl83DbzGl5nTdxzWzr1V6QdYvEOfbUZlcDS5YIB+qiudiBCYCe3bIz8qLYsYK0hjdhVRXfB6KXATgK8fm8RVi9YiGmTh6T13kXOkLYFdSx79TgTSdKiiT0RFScastJcO/iDCu37Qi/KXasIK1hjfVVgWoivAjA6+T5kSPLsHbFYoweVZLXeWuJPoSad4FrhSla0Nyp4nDT4IJ7mV9C45k4zvRpuezwQwpXlr1Q09sgdqwgrWHuEuZ26Hny5AlY/egCFPvzGyFMRs4g3Pp+QSKEQ2k6MbJYwuHGWE6CO8D+OyErq7e/3tMndqwgrWGLigook1jguwA+5nSMmTdOx/Ilc+Fx5TlCWMC2Xppu1MDq7Bu8BtYIv4Q9tREktdwE92R5+C+2b4cudq0grWGLZ+aUFyddiZ+B0RKnY9x3z+1YMPcOyFJ+I4SRM4cQ76kryLpFE4bgHo4NLri7FcLe2pwE9yQY+/iWHaEfix0rSGtYY0OVbyIn+RUAtzp5XpJkLFkwF3ffOj2vi05cNSOEhakS3BPWsffU4DWw/F6GUExHbVs8lx93FoRVW2rCNWLHCtIa1lhX6b8FYK8AmOTkeZfbgyeWL8B1Uyfkdd66GjGK9iVCBVm3li4VH2TRdKLUL6GlM4HTPWouO/mkxNgjL74ROiF2rCCt4U1YFf7FYOz/AnB0CLCkuBhrVi3BhDFleZ23FutGqIBtvbKtgVXml3C0JYpQNKdcz9cUUp54oaa3V+xYQVrDGusri58l0L/B4aHn8ePHY/VjD2JEsS+v806G2hBu21OQtl46JxyoS+BM7+A1sEb4GfadiiKh5RQY2NRC4U/W1EATO1aQ1rBel1wPPV9/3XSseOgB+Dz5LaRRyAhh1k0nZENw359bSRkNDJ/dsiP8XbFdBWkNazxdAa/GAj8B8LjTMe664zYsrrwTLjl/y0vEEWnfh0RfYaoE90aMLs8JdfAaWLGkjhMtOQnuPQSq3roz8obYscMPop5WP8Lyj9Mg/Qagu5w8L0kyFlTOwew7rs/roWfSVYRa34Ua7SrIumXbdKKkSELb2STaunPq8lyrE1v6Uk34mNixwtIa1lg7PzADnF5lYFOcPO9yubH8kQWYdd3EvM670G296tqTONGaHNTNGxGQcLwlht5IDjob4Q862IqXakJdYscK0hrWWF8VqCLCLwA4CvH5A8VYvWIRrh4/Mq/zVmPdCBcoQsg5cKgxjrazgwvuJUUSDtZHBnUdB9mo/+ELhj+5aQ9UsWMFaQ1vC6vC/xRjbBMAR40ER5ePxpMrF6K8LL+NUxOhVkTa9hYkQpht0wlFBrwuYH99DJw7JiwdxL64pSb0NfG6Cgx30rIihP/b6TpMnToF1UsrEfC58jrxQrb1CsU49pwcvOmE182QVDmOteRUSSJExNZsrQm9Il5VgWFNWtXVcLu7iv+TgdY7HePWW27CIw/eC7eSv8apRluv/UgECxMh7OzTsb9u8BpYfq+E9p4ETnfn5MnVkYSlW98IHxGvqcCwJq0195eOkFz6LwFUOFowJqFy7hw8cPcNeT30zPUkQq3vQoueLci6Zdt0orhIQt3pGHrCObmtbzMXVmx+LdwhXlGBYU1a6+eWTiVFfxWEG508ryhuPLx4Pm6fOTmvC2dECN+Bnsx/HwYi4EhzAk1Z1MAq8Us43BhFLIcuzwz0o3h55BPbtyMpXk+BYU1aa6pK7paI/wbAWCfP+4r8ePyxxbh20qi8zluNdhptvfT8B81UnbC3NrumE143w4H6aC6CO4HhK1t2hDeK11Jg2JPW2qrixxjRFgBFTp4fOaocqx9bhHGj8hwh7GtEuP0AQPlvHBNNcOw+OXjTCbfCwEnHkaacMtzDHGzdtp2hl8UrKTCox/Nh/4LrKvzPgchxWeSrJl+F6mVVKA2480saBYwQdgV17D8VhzpIq64iD0NXKImWzpyswBZJ58u2vBndJ15HgWFPWuuq/J8DsX92+vzMmTPw6ML74HXnO0K4D4lgS0HWLNumEwEfQ117Ar3hnIor/JG58NiLO6NCcBcQ7qFRaVQ6DrAh+3SMMdw3+17Mv+8mKHk89FzItl5EwInWBOraB7eaiosYjjbGEE3yXHbeTxOx8DPb30FMvIYCwtICwKH8E0BDJixFcWPxwircedPkvB561hJBhFp2gavRvK/VUJpOeFwM+2uj0Clnwf3LKET9HAFhaV2OMCOFu4b6/Xw+P1YuW4TrppTndb5qpMOIEBagrVe2TSdcMoOq6zjRmovgThFi0vqtO0K/Eq+egLC0bEQsEf/mUAmrbEQ5nli+ABPHFOd1svHeBkTaDxTE6Mi26YTXzdAdVtHSmVPqVBsHLdu2I7RHvHYCgrRsWFvhXwtgzlCemTDpKjy+tBIjS/LZOJUQ7TyC2NmTBVmnbGtgBbwMTR1JdIVyajqxT9P0R3/6ZqxZvHICwj204dmlKIqGA8cxhK45N9w4A8sX34eifEYIC9zWK9umEwEvw7FmIbgLCEvrkiEWDvzVUAhr1MhiPLr4VrilBMCKkEvB8mxRyAjhUJpOeBTgQH0Ueg4Z7gRs3Loj/FUIwV1AkNZAbqFvEgGfG8ozyx9dgMCY6UZYjMmQiMB0Dh7rAU9e/CieluhDqHkXuJZ/oyP7GlgMBI5DjbFcODwOoo9srYlsFa+YgCCt80Bi8jdoCMd0pk+bhKuvm2kzCzg4A0hR4Cq/Bi6mgEfOQg22ATz3QnvJ0GmET+8G8fwX7QtGOfbUxhAfpAaWx8XQE1bR0pWT4H6aJP7o1jei74vXS0CQ1nmwYX7xbM4p6+45jAFLly7GwJIeQUuGAMYg+4rhLb0TFAsi2VMHUp2VNS5kW6/2Hg0H6+PQB5GlfB6Glq4kzgZzOpJzQJL1ZS++HmsSr5bAJTNQrvQvsHEjJK7jXzGEoMID992MEWMGb1GvazEkoh3QZMAz4RZ4xtwISRlKhJEQOXMQkTOHCkJYDWdU7K8bnLACPoZTbfFcCesXzOWfIwhLQJDWIKh9s/gpsOxbfnncLjxQUTGg9XU+cC2ORLQTGtPhGn8TXKOmAuzCS0dcRahlF+I9dXlfE86Bg/VxHG2+8BlCxgCvGzhYH0U47txtJeD5afPCj29+7UxEvFIClxpXdMpDdcXogIfFTgAYn+0zK5dX4pZ77geIgUnMWAJm/i4xgMz/t64NtGiSDIkk6L0toAEEe12NGG29EqG8r0lSM2pgDVY5VJIAiRGONsVysQETAD27ZWfkRfEqCeQLV7Sm5UX0iwSWNWGNHlWKm26/G8wkKAIzPltmFmVH48R16NBBpWOgdzcC8TBkl3HMUYt1I1Sgtl6hmCG4xxIXpiG3AoRiOho7cppjF2dYuW1H5E3xGgkI0soC6+eWTiWm//lQnnl0+YOQFRfADMICGIgxg6cYAxEbkvnJwKCMnAK1rwWRlr2QXUWIdhwpSFuvbJtO+NwMrV1xdIVymCPDIYUry17Y2dsgXiEBQVpZgsv6Nxjgzfb+GddPxuRrrk+5fYxZllZamElT1tC8ZlfpJEieAIKHXy4IYWVbA8vnMQT3XPQrEPsv8rpWv/Bf3UHx+ggUAlekEL+uIlDBgBVZf0mJYcnDC9OEZGpWjMHQsVJWF4Zkadkhe8tQdvPjkP35qyFPBBxpSuCDxsEJy+sGjjRGchfcK0KPbBWEJVBAyFfahDduhNTT6NkOYEK2z1Q+cDtumHULmCSDMam/0G74hob+btFVKpQ4NPpisgve8uugdteDq5c2613VCXtq4zjdrQ1C2IBLInzQGIPuXHFPgrGPbt0Z/seaGnEkR0BYWkPCqd8Xf4RAd2R7v8/nwb1z7weZZEWMmcd27BaW4S4aNJVbQJW5fCietQKSJ3DJ1iCa4HjnaAxngxe2mlwKEEvo+CC3COFZEBZt2RH6sXhdBISlNUQ8M6e8WJe1XwLImhEeW1aJCVdNAWOSoWExyeBqi6hYmqaYzUV07igCkuyGq2wSEh1HL3onne6wjvdPxrM6ktPRm0Rbbl2eT0gSe3DzzrCogSUgLC1HLpEn8SUA47K9f/yYkZhx622wdCxJMoiKSQwMkmlVpTUuuohZa4p/LALXVl3U79/cpeK947FBi/b53Ax1Z2Lo6MupEuprCin3vPhG6IR4TQQuJ1wx0cOnqkqv1Un/1FCeWbZ8PpikmCkOpi3F0kR1ccSZ84/iGTsDie46JLtqc/sJQ2g64VEIx5pjSGg5fbtNLRT+ZE0NNPGKCAjScgida98CY1kf/LtpxlSMnzwFrEA5/8wkm8A1FejtawFX4w6/t9F0oqM3iwx3kKFfOecrDQyf3bIj/F3xaggI9zAHrK8KVIGxpVl/KcawaNG8/iSSB/ZilllEBOs/5vbDN/luR+PFk4Rdx2KDEpYiA8mkjiPNORFWD4EWC8ISEKSVI6qrIRPw7aE8U1VxGwIjRplWVn4i9IZlZWSoko28GAjecbMgeUuHNF5vRMfbR6MIRi8s5HvcDF1BFXVncjqSU6sTu2/rzsgb4pUQEKSVI7ydgY+DMCvb+4uKvLj73rvBiAzeAOAs62poSBGWSVTmVQAEJjEUTc66EAVOd2t4NwvB3etiaDoTR0ev8wghAa9zVb77pZrQMfE6CAjSyhFr7i8dQQwbh/LMI4vvg8uTPt3DCCCTRC6VzcVSxGV9pvQvkzzd5dPAXIMXVj3ZlsT+usG75LgU4HhrFH3RnI4NbfIHww9te6uvR7wKAlcKLmshXnbpXyYg686pE8eNwvUzboB1kNB+rpBMArs0VpbBXMwmKBkWV9pVZEyGd+yNiLUMnPLEOXCwYfAMd8YARSIcbYqDOxewdBD74paa0NfEKyAgLK2LhPVzAzcS8PGhPPPQkvshyTKYjajsfhAumb1FloQFIkoRlmGFpa0u7+gbBnw6oRJ2HY9mdSQnoeo43BTLhbBCRGy5ICwBYWldbBqQ2TcBcmV7/62zrsX4yZNgOYPMZC0ya/vZKetSaFsMlDblUlpaWowHANlXAqVoFLTo2dRzwSjH3toYYoNkuLtkhs5gMif9CkAdSVi69Y3QEbH1BQRpXUSsqyx5GOCLs3YjZRmVlbNTfpp5Bto8XkiXjKgGchOZpaARmRYY9bPu3COnpEirs0/D/rr4oDWwXArQ0hVHXyQn/ept5sKKLa+FO8S2FxDu4UVERQUUAh+S61L5wK0oKS22FSC1Iodk5i2RSSVkGENkE8pz/UW2sftZeecSFgAoJUZxioYzKvbUDk5YHrdRAys3wqIfJsrDVZsFYQkIS+viYzLzf5qAmdneX1zsw11332zQBQfAuJlISiDOwSQJ4AQm6f3EeLsklM47zcYeowH/lyxRCwQOMlIuTCKzPyIXsRKBAwAADgdJREFUlSMYJRxtvnBelVWM4nBjFJznKriHhX4lIEjrUqB6UclIJPn/GsozDy28By6XC8QBJpkEQQQwbhpCusFU3LArOU+TFGMA0cBnEO0J9BfWvE3h3Ty3QzYrjuhchmSMQfKVATh/4xpJAjRNx/GWnBJGwxxs3baa0MtimwsI0rpEcCf43xPDyGzvnzSxHNOvm2baSATiDEwiEHEwDrO7Dge42WSHEyARiGQzEbS/Qt+fqBgGizSSaboxEEgnKyks5TIyyy3NGEbyFJ//L0QGusMq2nMrKdMi6XzZljej+8QWFxCkdYmwdn5gBuP4yJCsrEWzTWvJsHSYFS4EgRiBmbWsCOmonqXKGzXiqZ9VZdzOzDEHsrgy2IcBxNPWFKWO7pg/M+Uy9od8niRTlwI0dyYQzCFhlAjvcJke27IzekZsbwFBWpcQjONbQ5nPrTdfi7Fjx9jT0FPERIybgjszPksSQLpBZCAAvJ+VRSZR9XcH2cBE1e8HIZW1SjaBn2y/pzPkbaTlKRqQsOra4oipORQNZPhpMh5+Zvs7iImtLSBI6xJiXUXxcoAWZj1pRUHl3DvtBo9h8aQaUzCDmBhgCFlk/G6mQKRrxJucx5j5u+lo0kCaFg14DdbPtnQsmJnxtqhipsBPspJBf4RjTXHozhNGCQxf2bIjvFFsaQFBWpcY1dVw4yx9fSiJ6vPn3oxAsd9GCKkSfyDi5lUJBMPiIqvzDnEQSUZL+5QYz0DcICTiaYtrQE2LMiwvZj+uk3YHyRTlrXOPLIOMJKtZGQN0zlHbFs9hBSlCTFq/dUfoV2I7CwjSygM8XcXPATQ92/vLiotw220z+xGWPUhn6FEmcREDJEOFJyvxlPU/yGyKYSBiqcJ951YOpAxpykoghc2iQkp0ZzxtdfWLItrMIkUyBfce54I7A5p1wrJtO0P7xVYWEKSVBzw53z8WnIaU4rB40T1wuRTA5p5hAD2KkSHGgzPDXWS2JqzETb5jKasqJb4zG3lZFMOYKWFR/z8ztSwrmdRKrSBbygOzeYeMAdG+Thw7chSNHXFEErk0vaB3ZcLyzTWRdrGNBQRp5Qkyx98DKMn2/qsnj8G0a6/G+RI8UxoTrO7RlgzOkWrUSv17GxIxM1WBpV3ADEsrLbKjf5GbAXWtdDQT3LDCuKai83Qz9u4/hgNHz0DNvQn19qJA5OlNv0VUbGEBQVp5wpoK/60AezprV4gxLH7wLiP3qR9JsXOcJsaon7uY/p+08A6TWCzeIdNyAjtfCZv082nSYqmUi0zCIk5Qo72oP1WLP753Es2dFyWgR2D09S07In8DiKapAoK08gqJsW9jCH0Xb7/5GowuLwPneirKZxlMKbeOWaVhUlJVmqTOIS6bocTSXiaZRhnZOCElyfO0kdZPr6I0YYF09Jxpwb59R7D7cDviyYvW9zAOoo9s2RnZKratgCCtPGNtRWAVgHnZ3u9WXJh736y0RUNpc4hSbh+Zrh7rZ/FciLjMeGPaLTyP/Zau2pAeL519anzkyRDqa+vwzvtH0HA6kkuDiYHQxog/urkmultsWQFBWnnG0xXwqoz+eSjFYirvvxFFPjdAOoB0D0OLMZgt7wq26N+FiIuli8ik81NTFUj7y2T2BhnUzxHVEeo6jQ8OHcc7+xoRiumXYskOSLK+7MXXY01iuwoIFIC0VAT+kgFTsr2/rNSPW26aYhAWSTZySneGto7upIu1W8TV31VEP4cvw3qykVumpWWvEsoA8GQEbY11eOe9ozjeHMqlCsNg+EVRILxBCO4CAgUirSfn+8cyji9kPTmXFwvmzoIiAcR5yuwxLCvJTOyUQMzIxbJJXQMSF/rlYFFKD7PijKljN8xKbrCIyrg32nMGxw4fxdt7G9EdurTNlwl4fvq88Gc3bgQX21RAoECkJXPp6wBlleLg8vjw1Od/Ap9/BHpjnTjdeRbhM0cx0n0a146zRHiWVs6ZlJXFNUDRhX5uoJVuZXEbT8Zwpq0Ru/ccxaHasxcjXWEwJAB6duvOyIvYKTaogEDBSGvt/KK7wGldtvffu+Bp+AKjoCf60BPhaDvdjYbGOBobg2hrqcdnVk3CLdePNsnKZB3Jlj81BFcxs3wMgZDsO4vjx05i195TaO9J5muZ/kgk/eXWmuAusTUFBApLWoxx6ZvIsrzzqHFTcct9jxmEFYygoa4eDQ2NaG1tRW1tHVqaW/Bnf38C//tj92DhfVOMKg7gRqI7k9JK+mCuIvqfLyQ1iZ72Ruw9cBz7jp+9mOkKF0KcwLYT8W9uq4mI4zgCAoORSV6srEr/GgaWVX4RYwwrnv0mxoy/Cr2hOOrr6tBQX4em5hacrD2FlpZm9PX1IalySIzhn/58Dh6pnAbGJOPwM5Ng7ynNJCPKmKrgMMDX5okQ6k+exNvvn0RzZ/xipyucD8dB7McJD/uP7f8T7BZbUUDgMrG0qmfDxyD9Q7YJ3DfeuRgjx0xEbyiKhro6NNQ3orWtHafq69Ha2opgXxBJs+YUJ8Lf/ds7mDmtHFMnlYIkyaiowGxdB7l15tDK7TIijqRrCHefxqGDJ/D+kY5Lla6QiSSAlyWiTS/WRN6AyGoXELj8SMvjC/wViK7O5l6vrxh3Va1DOKqiob4O9fVNaGxpQkNDM9pamhAM9iGRoYQnkjq+tXkPnv/reYDODUuLWZHE9FlDMvMa9EQYLQ0NeP9APU625NT0dChoA6PNxPl3t9bEWsS2ExC4TElrbYVvEog+l60X+tDT/4BEktDc0ojGplY0Njejvq4ep9ta0dvbh3hiYGto53st6DgbxpiRRo0tgj13iwGkIxrsxPGjDXj3cMclT1ewvE4CdkgMm5p5+Fc1O6GJ7SYgcJmTFpPkfwbBn82918yYB8VdhqamBjQ0NqKpqQnNTU0409GO7r5exBLnd990Tth1sB1L502xWVYMlIzhTHs79hxqwJGGMDQ9L1ZVLwEvkiz/67bX++rEFhMQuEJIa8P84tmc0xPZ3j/tzmVobW1CQ2Mj2lpbUd/QhKbGRoSCvYjFBjdSTjX1grgOBkIy0otT9a1491A7TufW1SZ7ggbbA2BTPB7aLGq0CwhcYaS1cSOkU7/n3x6gBOiAuO6uagRDEbQ0t6CpsQWtp1vQ2tyEULAX4Vh2pHO2N4Kzpxtx4EgLDp4KIa7mxaoKAXiJE31vW01YpCsICFyppHWqpngDMbo7u7tlFI26Fk3NzWhuakJbaxuaGuoQ7O3OmrAAoK6xA//5q568pitwTdq07a2+HrGNBATyh4uep1VdMTrgYbHjACZkc/+km6tB7hFoampBc0szWpsb0d3Thb5QdlnoLplh6jgFN0xyoaRIupRrJdIVBP5/e3cTE0cZx3H89+zMLBR2i1BtealGCiVNjYmJBw8aQ6lp4snEyMESaqIHDx68mxgPHjyY1Grsm7ZCaA0mRA8eVdINNempMW2jNTTYt6WUBbbLziIgzD4eSPpig50CAxS+nytPYHaeyT+/Z/NjF2sxacXN3x9IJtTAcsu2aNap1NBgWul0WoODaY3nwg2s5IaYGmtdba/xFPci7cgOyuiYcXXoxE+FDI8MsIaSVvvLFfXWCf6QVBpmfXnDG8r7BQ0NZXT1yl8az2WUzc8/sIyRqh9z1Fjr6akn3JDvmC3IvXWFFHUFYE0mLesEn4YdWEG8Vrn8hG4OZ3T92oB8f2zegeW5Rk9vdrXjSU8V0R4Bc1bqigXOgZN945d5PIA1PLTadiVflOzr4VbHNFnapNzwkK5fS6uQz2r01v1fWLqxLKamOk+NNa5cJ7pYRV0BWGdDa67ioM9tyONm3qmXn/d140ZahfFhZbKT9xwBa6vmUlVNpRPla/cldUv20IlThXM8CsA6GlqX+pLvGNnnw6ydKboa8l3dyl1VIXtnYJXGjRqqPTXVeSovjTJV6U9rTSd1BeDRtOjp0PZq1UYz9U+/pC1h1l/M1ilfmFJ2ZFBj+VlVJWPaXutpW7UnJ7q3q6aN9L2x5nBXyv+VbQfWcdIykzMfyoQbWMN5V9nchMZGbqoyIT23bUPUR0DqCgBJ6463WioaAhv8LqkkzPozAyUqMRPaudVRaTyyI+DtusLUpsIPPT0K2GaApCVJCmywP+zAkqQX6qcVi0X2P9oZGdthZt2j1BUAktZ92lsSLdaqd+VfAHUFgKH1AK2tckrGEr/J6tkVuu7bdYWTpyaoKwAcD/9ffDTxrrT8A2uurmCPTKvseE9qpMD2ASStB9r7UkVlzAv6JT2+TNd496cr/MKWASSthxKLBx/JLsvAGpTRMW9GBztOF0bYKgAPnbTebE7ucIw9L8mL6HqoKwBYuqTlSPsjGljDMrbTLXpHOlO5K2wLgEUnrX3N5a8Ujfl5af/4XF3BsX5XZ0pTbAeAJUlazc1yA2MOLFGH3ZfUHYvZg129hfNsAYAlH1pbVf6epGcWGasuqmiPUlcAEOnxcN/u5KZi0V6SVLmA3z9lZXqcmA539fpnuN0AIk9axaL9eAEDa0DWfO0F9puO0z51BQDLk7Tadid2mqLOhTxGUlcAsLJJyxT1WYiBRV0BwMoPrb27kq9Jds/8Ec2ctSp+UZaf6P7qrGa4lQBW7HjY2qp4yWjigqSm//woL+k7G9gvv+2buMDtA7AqklbJaPJ9yTbdNdqoKwBYnUmrfU9is51Rv+a+dPVHPl0BwKpOWsVZ87ax+iSQjnen/FFuEQAAAAAAAAAAAAAAAAAAAAAAAAAAAAAAAAAAAAAAAAAAAAAAAAAAAAAAAAAAAAAAAB4R/wIle5JPYIlDrgAAAABJRU5ErkJggg==;" parent="1" vertex="1">
          <mxGeometry x="333.12" y="211" width="38.38" height="38" as="geometry" />
        </mxCell>
        <mxCell id="45CG2yu2ULFXQJwwx9nm-199" value="" style="shape=image;verticalLabelPosition=bottom;labelBackgroundColor=default;verticalAlign=top;aspect=fixed;imageAspect=0;image=data:image/png,iVBORw0KGgoAAAANSUhEUgAAAS0AAAEqCAYAAABA5gZWAAABhWlDQ1BJQ0MgcHJvZmlsZQAAKJF9kT1Iw0AcxV9TtSKVDhYRcchQdbEgKsVRqlgEC6Wt0KqDyaVf0KQhSXFxFFwLDn4sVh1cnHV1cBUEwQ8Qd8FJ0UVK/F9aaBHjwXE/3t173L0DhHqZqWbXJKBqlpGMRcVMdlX0vaIHgwgggnGJmXo8tZiG6/i6h4evd2Ge5X7uz9Gv5EwGeETiOaYbFvEGcWTT0jnvEwdZUVKIz4knDLog8SPX5Sa/cS44LPDMoJFOzhMHicVCB8sdzIqGSjxDHFJUjfKFTJMVzluc1XKVte7JX+jPaSsprtMcQQxLiCMBETKqKKEMC2FaNVJMJGk/6uIfdvwJcsnkKoGRYwEVqJAcP/gf/O7WzE9PNZP8UaD7xbY/RgHfLtCo2fb3sW03TgDvM3Cltf2VOjD7SXqtrYWOgMA2cHHd1uQ94HIHGHrSJUNyJC9NIZ8H3s/om7LAwC3Qt9bsrbWP0wcgTV0t3wAHh8BYgbLXXd7d29nbv2da/f0A6pdy19nR5vgAAAAGYktHRAD/AP8A/6C9p5MAAAAJcEhZcwAADdcAAA3XAUIom3gAAAAHdElNRQfpBhYPNzZTTG+ZAAAgAElEQVR42ux9eXwU15Xud6uqN3VrAcQONtjgBYz3DWODJMxmG4wB2ZjNHk/iJJPFk5kks+TNC0neLMlkkoyTmSTMJHHM4uSRzYmdmfGzQXHsGNvsmF1olxCS0NJ7d1Xd8/6oqu5SI1CrGrrBup9//GgXVVe3L7c+zvnOuecAAgICAgICAgICAgICAgICAgICAgICAgICAgICAgICAgICAgICAgICAgICAgICAgICAgICAgICAgICAgICAgICAgKXHkwsgYDA8EP1bPjcRUU3geRbGcd1JPFyCSjnnI1iDFECiAFRBpzhjNUxojqm49DmN8PHAJAgLQEBgUuKjRshnfp9yV2c+CNMwsMg3AxAdjBUFwFvS4T/J4N+8UJNpF2QloCAwEXD0xVlU3SoHyPGngYw7iIPrwP4PWP0QnxU5GfbtyMpSEtAQMARNlQU388Z/2uALQEg5eFHtjKw57nX9f2t/9UdFKQlICCQFdbOD8xgHBsBVBdoCmdB9NXE6Mh3t2+HLkhLQEBgQKy5v3SE7NK+QWBP58myGgwHOfgz23ZG9wjSEhAQ6If1lUUPEaQfAJh0mU1NA6N/KeqL/N2mPVAFaQkIDHeyWjjWT1r0+yBad5lP9S3mwsrNr4U7BGkJCAxTrHugaDwU+TcA3XmFTLmFgy+/GO6iIC0BgSvNwqoI3EQMrwK46gqbehiEpVtqwjWCtAQEhgnWVvrnM7CfAyi7WGNOH38dqm5bgDJvCcb4R0BhEmKREPxQ0BbqwIn2k9jTdAgNva0X48dFIdHyLW9E/p8gLQGBDz1hFT/DQN8H4MplHEmSsfDupZh/23yM9YwE4xwgAuJxgHNA04BEwrhZ143PnEOPx9CdCOM/Dr+Co90NuUwhDsISpxaXIC0BgcsfbH1V4KtE+GIug0wefw0+vfILGFcyFkzXDZIi6kdM0DQgaSa2q6rxmfM0oZnXw3oC/+fAT9Ea7XY6nR6mY87mN8NHBWkJCHyI8Okl8PTGAz8iYI3TMcaNnoy/Xv9ljPKNNEhKVdOWlEVMRMY13cwHTSQMArOsLqL+93AOJJOoT3Tj6ydfRZgP/QQPgRokF7tnqFFFQVoCApcpqheVjPQk+a8AzHXyvCzJ+OSav8Vd0+4BkmqadDTNdNLiaQKyrC7O01aXndwsa4wobY2Z43Gu42vtb+JIdOhnpwn4n+nzwg9t3Aie9fcSW0NA4PLDU1Wl10o63wHgDifPjx89Gd/6/Iu4qmQCoNmIySKpWCztDsbjxkOWVWURl6qmr1sklUz2dxl1HYyA+93jkZCAk4mzQ3X1pnU3eGIHG5JvC9ISELhCsWF+8WxO/HU4TGm4cdqt2Pjst6EktbRlZFlSdmJKJtPEZJGRrqcJzXIT1QwrzW51mRYbU1XMkstQKruwP9k1tAkzzLt5qus3BxvUM4K0BASuMKytCKwC8GsApU6er7pnCT698m8gJZJp0rFbSRYBWVaXnYzsVpfdGrML8XaXkXMgGjV+N8e8Ri9CrzuJBjU8JE8WYLeueDr545qawQsMCtISELhMsK6y+POM4QcA3E6eX7/0WayasxZM09LEZP+s68avgfQri9yAc/Ur+z2WHqaq57qVZiTytkQAR30hdGmJoUx/Uk+Tu/1gfXJ3Fi6lgIBAIVFdDdndFfhXBnzS6Rh/88zfY8aEmwxysacw2EV2K1JoEU2GNtVPZLesNE3rT26ZFpuqpl1MWyRSg4pPeA8jrvKhfI0ud9J7zY/e7goJS0tA4DLFM3PKi1lC/gUD1jp5XpIk/Mufb8KUkVP6W0aZqQ12bcoiHbvbZ3cT7USWmfJgt96s+wd4VlJ13FVSjNfVnqF8nSJN0YOH6pNvCUtLQOAyxIYq30RO8isAbnXyfJG3GN/5yx/DTabtYSeUZLK/a3i+rPdMN9HuGtqF+oGSUS0ii8X6E6ZlycXjeGt6Aj8Idw7la51NkG/K9prO84piktg6AgIFIKz5/ps5ybucEtaE0ZPxvc9vNgjLEsTtVpIV5bPEdPvnRKJ/NNEuslvX4/H+bl8mMVmfLSE+mUwTVjKZGuf+oxKu93uH8tVGeaTY+gtal2L7CAjkF+vm+xdwzt6Ew6J9t1x/J/7pY9+BpFN/MjofAVmfrYig3U3MFOJ13SAiS+OKx/u7mJmup53gLKvLnjqRSOJTLUVgQ/HpCJ+6kBcoNC0BgTxifWXxsyBsA1Dk5Pmlc1fgow99BoxT/wielWeVKZTbtSaL3DKvW0dz7EmkmQL9QCkSdpE/kzxNoksSQYpw4CoFJ9Ssi5eOvnWK5/UDDckmYWkJCBQObF1VYCOBfgBAcTLARx/7FB5/YENaX7IsIMvSsbuGFknpuvFn0Wh/crGnP9jdO8vtsxOQ5QLax7TusUjS+mxaY0SEOBF0InAiLPhAhixlb25xiVad788UsZcEBC4tnq6AV2OBn4DwuNMx/u4j/4Drxs7oTzSZlk5mbpXl0llWlz2dITPRNDOdwX6PpWvZLbmBIojmODoRVCIQAM38jAQwL+DBjmA8WxfxMQCfxQDdrEX0UEDgEuLJiuJymdGvAcxxZJ4xhm/++Q9QXjRm4OM4meRiT2ew3L6BiCbzoPRALmBmxQc7wdnTJSwLDIBKBM083pPkPNVDTCVCoozhi+NDWX93See3v/hmdJ+wtAQE8oQ1c0umS4z/DsA0J8973V48/5c/ho95+2es20lqIKKxpycMRDSZpHe+LPnzpUIMUNqGTJLiALj5mUwzKWlek/o4Jk9T0BzRsvr+usLmAdgnNC0BgTxgbUXJvZLM33ZKWOPKJ+B7n98CHzwGoVjZ61b0z64v2XWqzPQEuzZlT3mwk8757rfrXRap2SOI5rw4ERImYWlEKcLiABIAuKltxXXCQ13Zpz8wsDlC0xIQyAPWVwRWE+M/BuB18vzMa2fiC6u/AkkjIB49V7OyLCO71pSpX6nqBXWnc+633MdM/cruYmYeoDZdQUu/Uk1yAgDNJDDKcBlHdRBwdZYLQZg9oNsotpiAwMXDugr/c8Sw1Slhzb97Pv5q9VchqfzcPCuLXOwJoJYFFo32T3PIjCbaUxLs99vvyRzTbslZEUSbrpa0EVbSRljWdQ4gbhKW5T5qQR1Frqyl9InPzCkvFpaWgMAlQEUFlElS4HsgfMTpGKsXPIGH714NJJIDWzr2z5bFlKlHDRRNzDwobVlp9nvOp3dlnl/UtP76FRESJllZ5MUB6ABUm5uo2vSuW1U3/ojsKkDEXbFrAewXpCUgcDH1qyUjS1g8uR2EhU7H+OTKT+De6xYA0Vg6sjdQpYbzCeL2xNDz1X0fqDa89dmyuqzP9miibS4DpjOYZJS0rpskBZO8kuZn6/5JERnwZ7cuMmPXCNISELiIWD3XN5klkq8CmOV0jL9Z93nMmHRvOgHUThznO8A80OFo67rTdAZ79DGzO49JOAOlM2imbpWpa6k211CzffYHedakBbBy4R4KCFwkbJjvv5k4e4UIk508L8sS/vFj/4jx/qlpvWkwQXygcjKZLqPd6sqsrWWvizVQKsRA6QxERtqC6fql0hms6+afWTqW3X20P0umK6lEsj89SOABQVoCAhfDJazyL+ScbQdQ4uR5v9eLf/nkd+Enf9qSGki/ynQNz5cBn3nuMJP0BmrAmnk9s1aWroObgjsB0M3PltunmgSl2ywtu5ZldyX7PesZwkIRE0K8gECuWFdR/BEQfc/p+zOpfDS++sy3oSQBcO3Cgrhdp7ITjT21wdKm7C7g+Y7jWJac3arLzG4fIJ1B4xxWSqhGBM20sDSby2jXuLQM7Usz3dQkABYbQjVT6dxTO4K0BASyB1tXFfgSiL7kdIBbpt2Aj6/6Krp0QtgrI84YkpIEjTEQY2C6DokIsq5Dl2V44nEURSIY1dGB4mQS8kDa1EBZ7JkuYzbRx4zqDHqGO5i6nuEC2jWuVATRlgqR+mwSnTSUCvjEIoK0BAQcoHo2fB5vYDMIK52OsfKxT2DszQ9j74WKS8mG3sNMNy5SUoKeQACtY8cCRCjp6cHoM2cw/vhxSAPpVwO5j7qezr2yX7f3NjStsQulMyRM8rG7jPY0B25aUmQSVQIATPJLuZLmPdn/M0FhQVoCAkPE+oWBMaTiZQD3Oh3j2T/9KmjSbVCzqYZnitYkSZAsS4UxKJyjr6wMfaWlaJ40CZNPnMDY48ehDCSgZ1Z2yKwNP4CVdr50Bis6iExtyn6/7R67a6ibf2bPjI8PpTka4awgLQGBIeDJiuIbSKVXAVzj5HlJYvjMZ76PSFmWRUoty4YxSFaUTpKg6Dq4SXgEIO7z4cTNN+PUzJm4saYGo+vr++tawPnTGQbQzAZLZwD6H8dRbTqVahKV3a1MpT/Y3Urz18mrGJBtsQfGawVpCQhkiXVVxfeB6GUA5U6edytufPovX0DQl51pwUzXyk5YnDEoqgrOWOr/JV0Hl6TUr6MPPIBTt90Gf28vbnr1VbDzRR/t0UR7dQbTmjvH7TNdPgKQsFdtsNIZ7K4h0lnv/VxJmyammSTWFM+6gikSkucUEBWkJSAwKGFV+NeC6IcAPE6eH1Fcgj997gX0KVk+bpGFSVjc/KyoKrgkGTqRJEHSNIOsGAMYgysaRdLrRdLjQdzvhybLcIXD5zahGMDqshOK3e3jJunAdO/s11P3w5bagHTW+zn6VYYg7y6Vkci+F2Lb9td7+s6xXsX2FBA4h7CeA2ObnRLWtCnT8PRnt2RNWMwmdkumG2gRli5JBgFIEmTT4uKS8dq6w2GoPp8xhqZBlWXse+SR/uWTrYPPGSWYNVs5GZXzFDGpNvHdKjNjpT8kbBaTRV6qdY91HekjPRZRJThPWWx9E4dEOW8PdFE0thAQMPHsHXDdcKP/hwzsr+Gwqu/9d87F/au+gpgkZ01YZCcsk6TkZNIgJ5OklGQSuqKAS0bikisWQ9LnA2MMzDzEzGUZidJSdE6dipEnThgWl71WlnlQOmmSELe5dyndyeb26TaNK1NMJ5yb5qBnuImZ1ptKHHtvkJDQKUs9C98/WJ98T1haAgID4OmKsrJoSeC/GLGnnY6xcsmTuPnhLyAhSdkTlqlVSZyndCtFVUGy3I+wNEUBZwyMCO5IBEmvF4wxo+oCEXSTzJRYDMGJE7F37VpwezpDZrMJS6eyPlukY1pO1rGbeEZelv1ZS8tKmL9zm96VtBGWZaW5yxT0JbNPLCWNfn8+7U9AYFgj107PAPCxdV8Arp2bivBlQ1jcfAElzqHbCEs3SY9LEpREoh9hucJhJPx+MNMl5ETQZRkggisWg+b1giQJLJmEr7sb93/lK2Cq2s/qsacz2DWrzHSGwT4PlOaQKearpjXGAJyq8qApqmW7pLVbdoanD/QHwtISGN76VaX/llw6PTMGfOFT3wJNmzckwiLzXjYQYZmiu5JIQLUIi3O4IhEkAgHD0rAsLJOw3LEYtKKiFGFxlwuRMWNwfNkyQ3eyuXqpigw2wsq8Z8Dr1mdbAUDrulXdwR41TJiExQGw8fJQCAsgbDnfHwnSEhi+hFXhXwywP8Bhp2ePS8Lffu4n6Cm/DlmqNJAswuK8n0soq6pBQIyBZBlyIgHN5TKO9liE5fenstqJc2hm9rw7EkHS5wMBBmEpihGN5ByN99+PzhkzwIkQz9CgNKvyAucpnSphcwcTlvZlPWvdY1po9utqhgVmF+1VEPZdPzSqkWT2kiAtAQEb1lcGPgPGXgFQ7OT50mIfPvf5n6LDn30KFyMyrDHOwYgMC4vIiAqaFhYBkBMJ6C6XYaHoetrC4hySmSCqK0a2kjscRtJvFKeyCIsAEOdgnIPcbpyork5ZQLpJRik9ynYEx4ry2T/b0xasYz3cIiabHmZPTFVNrSxlgd3lQU98CFoW8PqLb4ROnO/PRfRQYFihuhry7eP8/wiw/+P0H+0pE8biqU/8GGddviERFjEG6DoYY9AZA4gga1oq54oYg6SqhoUFI5roiscNDcsiIc6hWYQViSAZCBgRRFUFN5+DrqejkrKMZCAA3+nTcLW2wkrr1AbQuCjjumpzAVWcexznnFZhtjOLVlSy5K4ivOXShrS+EsNHD9Yn64WlJTDs8exSFLm7Ar8Asb9yOsbsWbOw8k83oUdxOyIsMJY62qJYKQ5mmoOkqtBNS0nSNCixGBJFRWBm9Qau6ynC8gSDSJqCPEwNi8zD0XbCAhGUcBitCxakSGcgPYrbPttdw0w30XIl7RaYjnQ00bLAAGDcIyV4s0izTiZlt1ag9zbvCO+40D0iI15gWODpCv+4aEj6DWN0l9MxVi1Yign3fhRBWR4yYTFdT2W8w3TzdDMPi5kun2YRlq5DSSb7W1iaBt3lMggrFEKiuNhISrUsLDthEYEUBcQ5lEgEWiAAzedD5KqroDQ0pI/a2KykhK0Jhb1voWqv4DBASzB7JNK6LksMV//JSPy2IYKESkNaY5Lwvwa7R7iHAh96rJ0fmMGBHYxhppPnGQM+/vizCNy2BokhEBaIAOusoFUviwgy50Z+luUuAoaFZdbRUpJJJHw+g8zMxFDNIqxwGIliQ4ZjAxEWkCIsVzQKLRAAdB1yXx90VUXRsWPnVGFI2I7g9HMZgX4VSC1rbKCk04Rpibk8Eqb82Sj8ri6CYFQf4kLj51t2RP5psNuEpSXwocb6qkAVcfwCYGVOnpclhofvuxpXTb0RPLoPRFEQj4IYIMvFABRI8INJI6DCgygrQtDjNV5m04rSTc0qM2IoaRpIktL6lq5DVtU0YZn6lEVYbtPCAtE5hIVMCyseh+r3gzQNcjgM3edDz7x5KP31r8FNkhqwakMGYakZyajIsMxS9bGI4BuhYNRTI/DLA0HEEnyoSx3l0D6XzY2CtAQ+vBZWhf8pImwC4HbyvM8t4fHFs3DNDXdBw9F+fgkDwGEci7G/nkUEFCUYSCsCl25CWBmJPpcLZBGWefi538FnGImikqYh4fVC0nWDjGwWljcYRLykxNC3NK0/YZmkQbKcIizN5wPXNLjCYehmwil0HZEbboDvgw9SkT+y5VbZq4umWoLZyi4PaI2Zn8uu8UBb5MevdveBcxryWjPCF7btjDdm9Q+J2NoCH0KwdVWBjQzsW07/YS71y9jw2GxcNe0247jMUCcgqZBYK7xUi1ItiKJ4AFGXGxzGuUJdlg33kAhM08B0HZrHMyBhufv6kCgtPT9hcZ4iLDmRgO7zAaaFxb1e4+eoKsjjgTpiBNxvv51qqJq0l5AxSUy36VqqrTa8ynnaArNdHzc7gDO3u/H2kciQRHcbfrGlJvz5bG8WlpbAhwrV1XB7zhb/EETrnI4xsdyDNcsrUDzq6os0q9Nwu07j6vhIRPlNOF0UMHKwiCCZWpTmdhtivZm+oFqEFQwiOQhhQVFApmupeb2G1RaNGoQlSUZ00eMBMQZt1KiUwK5d6DgOzpPOYLvOGMOERcXY5+WoPxl1ujh1CilD6sotLC2BDw3W3F86wpVwvQJgmdMxbpxSgicfW4yisgkXfX4kxaDIjRjTHUNMLoNmEpcuSUaE0CSYlOje14dkaWmqFvyAFpaNsHSPB0zXwaJRkNudGo9MwgIA7nLBvXMn9EQi3SnHRkw6zm0VZi/iZ12XJGDs4hK8yVWc7lGdLkmvJNHin+wMNQrSEhh2WD+3dCpz6W8AcJzScNeNo/Ho0iVw+8ou6Vx1bxDFdBZytBQRrzedx5VMQnMb8psnGDRcQs1oMXY+lxCcpwgLqgoWj59LWOYBbKaqgNsN6ehRSB0d6XIyGekMA9V6t1tmzC1hxIIAdsSSCMZ0p8sQ5wwPb9kReW+oDwrSErjyLayqkrsZ428AmOLkeYkxLJ4zBZVVCyC7ivIzaSkBj9KC0cfPIqr4oSsKdJOw3MEgkiUlxpEdzs8hLGY2vYAp6KcIyzp3KMspDSt1iFtVAZcLpOtgfX3gH3xwTncce234VDqD7egOAEg+Cd75RdgZTiKpkdNvrwNYs3Vn+L+dPCw0LYEr28KqDKwg4lsA+Jw871YYVi2Yietn3QPG8vxvuEToG/Emijo0hEfcB7IsLJOw6DwWlnVOkXEO3e02LKhkElyWDcJKJkFud7/IJFcUQzMjglpSAjfSYjqZ7b4yE03tZWsAQCphSMzx4Z3eRC5OcoSBbdi8M/xLpyMI0hK4YrGuwv8cAd+Ew+NoAa+EJx++HZOn3YZ8l5YjriLcthvJ8BlwdwhS4nbI8QQSpaVG/pbdwuLcyJy3dC+zBDJXFMOC0rRzCMuyxJiug8z7SJJA0SjgciFur8IwQDqD3R0kAFKphM77fKjtS+bytdsY0aObayK7cxlEkJbAFYfqasiezsC3wfApp2OMLnVh7WNzMXLstXmfP9diCDbvgp4wejZIyU6UNvwd/J1L0XrvfecSFmDoWmaCKojAZRksmQSzrlsuoWVhmdYZlySjHDNjYKEQ4PVCCwbBMojJ3vrLqu0OU+9SRsuov82D9twIa7+m68t++masOdf1E6QlcGW5gwvH+qkz/BIYljod45oJATyxfAF8xaPzPn8t1o1Qy7vgen8Xi1EE8bJfwdU3E/GRI88hLALSPREVBcxsBcYlyQjlqSrI5UpZWOA8RWRcksDMnC24XKCysvS5Q1tFBntXaMBIhfBMduPAdAmRiOb8SzP8vMgffmrTbxG9GGsoqjwIXDnu4ANF46FGfw/GHBPW7deNwtrHHykIYSVDbQg2v30OYaUsMCWBsfu/n25lbxIW7IRlWVSm25ZJWGTW6iLGQKqasrAswoKug0ej59TW0qwuPGYWfBIE941uvDeVITL0IzkpLxiMvjZtbviJi0VYwtISuHIsrIrATcTwKoGucvSPPQPm3jEZlRVVkGRP3ucf7zmFyJkPLKo5LyITWzFy326cveX2lHBORIAsp0spWySWSVgW6VjXAYOwfD5AUVIlmikY7NdVR7VFDblZaVS5x49digZynNGABBF9ZOvOyBbsuLhrKUhL4LLHhgr/g5zh5wBKnTwvSwyPVd6AWXfcl/8IIQiRMwcR76nP+glP4jeQIteDe0xyVZRUHldK15Ikg4RcrvQ10/IiU8NCMAgeCBhuoklYUBSoHR3nFPGDaW3pEpC834/9ugY4zmjAac6k5dt2Bt+7FCsq3EOBy9slrCr+E87Y75wSltctYcOyO3DznffnnbBIVxFsentIhAUA6shujDj0R8MqkqQUYcGKHJrExBXFsL6stATGwG0WFpmERVYrMbOAII/H+zVfhUleXAE6HyjCEV3L5Wsf5EybvW3HpSEsQVoClzPYuqrARhD9CIDLyQAjAgo++kQFpl5/O/Kd0qCrEfQ1/h5qtMvZi+nZlU5xSCSMA9G6nrakFMX4bJ5XhNkDEQAQDoOKi1NCPCTJ0MIsgurpSaU5WCVnJL+Mhvu8aNVyISz2O/K6H9i2I954KddWuIcClx0+vQSennjghyCsdTrGpNFFWLPiQQTKxuV9/mqsG+EBIoRDQnEn/HvfRfiOe6ErinGcJ5OwzGsAQMmkkctlEhYxZlyT5dQ9KdJqbzeI1YwcekYr2H+DAlV3LLiDgOenzwt9duNG8Eu9voK0BC4rVC8qGdkT578EMM/pGDOmlGHFsoWX/AzhQEiEWhFp2wvKQcG24IkeQFCekyYsK1HUIixZNnSqZNKwtiIRwCQsJJNgpnjf3wTUwbu7U3lZ7ms92DMeqbwsJ1+ZiD62tSbyE+zMzxoL0hK4bLDmwdJr5KT+KgE3OB1j9s0TsfDB+ZBd3rzPP3b2BKKdRy6ednN1LaS+PvDiYoOwTKuJVDWlTzFVNUybcBgoKTFSIZJJMKszT6YV2NyMmKlx8Vle7C6lXKZ4lgErt9REfp/PdRakJXBZYG1Fyb1M118mYIyjF5wxPDz3Otx59xwwKb/bmkhH5PR+JILNF3VcBoK7/hhiM29PuXmkaSnCokTCcP1iMVBJien7mYRl1qc/h1hPnAAkhuBtbtT7ciKsDxRSlr5Q09uQ770iSEug4FhXGVgJ8M1weOjZpTCsXnI7ps/Iv+DO9SRCre9Ci569JOO7O99HVL4rlZNlEZblElI0ChYIGHlbViWH8xAW6Tpi+/eg7W4POpVcCIv9d0JWVm95vaevEPtFkJZAYQmrwv8ccjn07FOw4bEHMG7y9LzPXU+GEWrZBT0ZvmQ/o2hiHfricaPYn1kckKyM+HgcCARAnBuZ82Yt+kzh3bLKur7/HRzwHkc0h8wPAp5Plof+Yvt26IXaM4K0BAqC6mrInq7A8wD+zOkYY0Z6sX7lgygdOSHv81ejnQi1vgfS1Uv7g3wERMKg8tEp8knlbfn9BlnpOuB2n5eweDiMzu//C97z1EN3nuSkEfDc1p3hfy/03hGkJZB/wqoYHfB0RX8K4GGnY0ybXIonHl0Ij39E3uef6GtEuP0AQDw/L+npWiTLRxsalkVYXq9RvVTXwdxucE0DG6Ano9bZidP/+c/YU9zh2HNmQLcuYdW2N8I7L4f9I0hLIK9YvaBogqLFfguw252OcefM8Xho0Xwo+aoyakO06xhiXcfy+jPdZw8hkbzDiAbqOuDzGdFEzg2X8DyElWxuRuO2b+BwSQ7SE8NJIrZ02xuh45fLHhKkJZA3rJ3rn8U09goAx4eeF8+ZhntnPwAmufI6dyNCuA+JYEve1809MpYuVaMo4KpqGE2KYpDYAIQVO/wBjr38PBpLc6qB9ZrClSdeqOntvZz2kSAtgbxg3Xz/AnD2cwAlTp53yUD14jtww00FiBBqcYRadkGLF+bdlTxBww00O++AMSNny5b+YEforbdw6A8/QkdpTu7rpqJg+FOb9kC93PaSIC2BS471FcV/Spy+B4dnCP0+GeuXP4AJV12X97lriSBCLbvA1WjB1q871IFgYyNKpk41RHjzEDRznbucff/zP9h16CXESpx/ZWL4iwVQCwoAACAASURBVK07wt+5XPeTIC2BSwm2rirwJSL6ktMBysu82LDyQZSVFyBCGOkwIoRcK9gCNpxRcawlgTE3GvWzmCyDmwmkGf4run62DbvaX4Pmc2yJ9hCoeuuOyBuX86YSpCVwSWAeev4xCE86HeOaCSV4YsUi+AoQIYz3NiJyJn8RwnNcUg580BhH61mDMLlZCJAnEmBmq7EUX6kq2n/0A7yn7ga5HBNWLdOxbMubkaOX+94SpCVw0bFhfvGonhj9CgwPOB3j9hvG4eGHHoQr7xFCQrTzCGJnTxZs/ZIqYc+pOHrD6fxNNR4zLKwMwtIjETRv+ib2u085l/oIf3DpWPnjP4Q7r4T9JUhL4KLiqarSa3Wu/w4MjgQoxoDKu6/B3AfmQZLzHCHkmtnWq71g6xeKceypjSGW6H/Mhrlc57iE6tmzOPnjb+CE73QODjz+sygY/rPLUXAXpCWQDwtrts71lwE46hohM4bHFszCzbfdg+EWIQSAzj4d++ti0AY4IKN1nAZmzExbY62tOPDSN9Dq63H643QQ++KWnaGvXWn7TJCWwEXB2orAKs7pRTg89Ox1Mzy59F5MnTYr73PXEn0INe8C12IFWz9LcD9fWSstnJ5b9OhR7P7d8+j2OZ5viDG2dvPO0G+vxL0mSEsgZ6yr8D8H5vzQc1mJGxtWPojyMZPyPvdk5AzCre8XLEJIBBxtTqCx48LemaIYSxvavRvvvPV9RL2O51snA8t+siN0+Erdb0y8cgJOUVEBZSIC32EMH3c6xuQxAaxZtRj+4pF5n3+2bb0uFVSdsO9UHGeDFy6YIEtAWcnjcKsJvHXsp9Alx/N9m7mwYvNr4Y4red8J0hJwhGfmlBcnXYmfgdESp2PMvHYMVixdCJcn/xHCyJlDiPfUFWz9ogmOPbVxhGMXTqnwuBgmjlLQvHcsDtOJHF50+lG8PPKJ7duRvNL3niAtgSFjQ5VvIif5FQC3Oh1jzm1TseDBCkj5PkPIVTNCeKZg69cT1rH3VBxJ9cIWU3GRBJ+b4Y9Hw+DcsXVFYPjKlh3hjR+W/SdIS2BohDXffzPn7FUAjgQoxoCllbNwx533gLH8drDjWgzB5l3QE30FW7/mLhWHG88vuFsYXSojmtCx71ROx4fCHGzdtp2hlz9Me1CQlkDWWF/pX0Rg/xc5HHpevXQ2pl9fgAhhrBuhXNt65YiTbUnUtg3unU0apaD+TBz1Z3Ly5FrA+KNbdkT3ftj2oYgeCmSFtVXFHyWif3e6Z4qLXFi/shLjJkzJ+9yToTaET+8B8cJUCNY54UBdAmd6tUGt0KvHurD7RATdoZyimbt0iZa/9Eb0zIdxLwpLS2DQPbKuKvAlEBwfeh47yo/1qxaipGx03idf6AhhPEnYUxtDMHphwd2lMEwcJeOtD8KIJnkuL/TP4vHwn2x/B7EP7YYU76TA+fB0Bbw6C7xAwBNOx5g+ZTQef3QhPF5/nmdPiJw5iHhPfcHWrzeiY29tHIlBBPciD0NpQMJbh8PQ9ZwF9y8XjKEFaQkUEhvmF4/inF4GMMfpGHfNugoPLayCrLjzS1e6ilDru1CjXQVbv9PdGg42xMEHMZpGFctQuY7dJ3IS3ONg9MyWHZGXhoXpL15PgUysqyiZBon/DgRHfbkYAxbcPxNzZs/Oe4QwH229BkNdexLHWwYX0cePVNDcmUBde07BgTZG/NHNNdHdw0avEK+ogB1rK4vnMNCvAZQ7eV6WGKofuhszZt6S97mrsW6ECxgh5Bw41BhH29ksBPcxCvafiqGjL6fiCvs1XV/20zdjzcNpjwrSEkhbWJWBxwH8BIDXyfNFHgXrV1Vh4qQpeZ97ItSKSNteEBUmQphQDcG9L3Jhf1CRgfEjXXjnWAjROM/lzf15kT/81KbfIjrc9qkgLQHTJfQ/B8a+5XRPjCotwvrqhRg5akze516Itl52BKMce2tjiCUvrH/7PAxlfoa3j0Sg5SS409enzY387caN4MNxrwrSGuaoqIAyiQX+DcCzTseYMrEMq1csRlFRSV7nbrT12o9EsHDe0YVqYNlR5pehkY59tdFBs+EvZNAR0Ue21kS2DOc9K5JLhzGerigr06H9koBKp2PcfMMELH9oARSXJ69z53oSodZ3oUXPFmz9BquBZWH8CAXtPUkcb43n8uNOcyYt37Yz+N5w37fC0hq+hDVFY9qrAGY4HWPePTeiat6cYRch5AQcboyjpWvwrPWJoxQcboqhozcnwf2gJOtLX3w91iR2riCtYYm184vuYlz6LYCxjjYNA1Ysuhu33HJr3ueuRjuNtl56YUqaqzphb20c3aHBa2BNKndh17EwQrFcggPsd+6kZ/WP3u4KiZ0rSGtYYl1F8XIw2grAURErr1vBmscqMWXK1LzPPdHXiHB74dp6RRMcu0/GERkk6ud1M5QFJPzxSDgXwR0EPD99Xvizw1VwF6QlYEUInZdFDnix/vGFGD16XP4Jo8ARwq6gjv2n4lD1wWtgSYyw+0Qkl7M0CSL62NaayE/Erj0XQogfBqiuhuzuCnwTwGecjjFxbBnWrlqMQKAQEcJ9SARbCrZ+zZ0qDjdlVwOrM6jiREtOgnsXZ1i5bWfkTbFzhaU1LLF+4Vg/qZFtAJY5HePGaydg5bIH4XZ78zr3Qrf1IgJOtCZQ1z64fjZ+pILjzVG092q5vI2HFK4se6Gmt0HsXEFawxJPV/jHaUz6LUB3Oh3jvtunY2HVA5Dk/BrlWiKIUMsucLUwCd+aTthfF0dn34VFdEkyIoTvn4ggGM1JcP/vhKys3v56T5/YuYK0hiWeqgzM1MFeBehqRxuDAYvm3YL77rkn73NXIx1GhLBAbb2ybTrhUhhGlxqCe1LLTXBPlof/Yvt26GLnCtIallhb6Z/PwH4OoMzJ84os48nl8zB92rS8zz3e24BI+wEUqiRUtk0nAj4Jbpnw7vGcBHeNgOe27gz/u9i1grSGLdZXFD9NjDYBcNTmJlBkRAjHj813hJAQ7TyC2NmTBVu7bGtgjSyW0BPWcbwllsuL161LWLXtjfBOsWsFaQ3bv8tcyyKPGVWCDY8/hJKSPEcIuWa29Wov2OJl23Ri/EgZtafjaO1Sc3nrToLY0i07Q8fFthWkNSxRXQ2352zxD0G0zukY1149Dk8sXwCv15fXuRc6QjiUphMTRirYXRtGKJpTrudrCilPvFDT2yt2riCtYYk195eOkFz6LwFUOB3jzlnX4uFF8yDnPULYh1DzLnCtMD0YEiph98ksmk7IhuD+ztEwElpOWtumomD4U5v2QBU7V5DWsMT6uaVTIeu/I+AGp2NU3XcL5j1wN1iet0Iycgbh1vcLFiEMRjn21MYQTw7edMKtAO+fjORSUkYjhr/YuiP8HbFrBWkNX8KqLLmHwH8DwFHVPVmSsOrh+zFzxg15n3uh23q192g4WB+HnoXgHorpONyYkyXYQ6DqrTsjb4hdK0hrGBNWYAUBm+H00LPXjfUrH8TkSZPyPHNC5MwhxHvqCrZ2de1JnGhNDmo1jSlT0NAeR8vZnLo81+rElr5UEzomdu3Fgzh7eIVhXYX/OQIcH3oeOaIEG6oXY+SIsrzOm7hqRggL0/SYc+CDxjhas2g6MW6EgoP1EfSEc8j1JPxBB1vxUk2oS+xaYWkNS5iHnv+VAZ90OsbVE8fgyZWLUOTLd4QwhmDzLuiJwpxQSWpGDazBSEiWgPJSGe8dDw/aYHWQl+o/fMHwJ4XgLkhr+BJWxeiAV4q+RMQecTrGLTOuwbIlFXApeY4QxroRKmBbr1DMENxjicGbThS5gXdPRMG5Y8LSQeyLW2pCXxO7VpDW8HUHHygazxT5twS6w+kY8+6dhcq590DKc1nkZKgN4bY9BWvrlW3TiVK/hFhCxwe5Ce4hIrZma03oFbFrBWkNW6yvCNxEDK8CuMrJ85LE8MjCObjzlhl5n3uhI4TZNp0YVSKjuTOBlq6cBPc6krB06xvhI2LXXnoIIf4yxYYK/4Oc4ecASp0873a7sOax+bhmylV5nTcRR6R9HxJ9hWnrRQQcbU6gsWNwOWnsCBmHG6OD1nsfBG8zF1ZseS3cIXatsLSGLdZWFj/DQN+Hw0PPJcV+bHh8McaUj8ovYegqQq3vQo0WJmCm6oR9p+I4Gxy8BtaYMhnvn4ggluA5vDz0o3h55BPbtyMpdq0grWH795HroecJY0dh7arFKA748zrxQrf1yrbphMfFUORleP9EJBfBncDwlS07whvFlhWkNWzx6SXw9MYDPyJgjdMxZlw3BY89XAmP25XXuauxboQLGCHsDuvYWxuHOsi5wGKfBFXXcbA+J8E9zMHWbdsZelnsWkFawxbVi0pGepL8VwDmOh1j9l03YVHFvZCk/EYIE6FWRNr2FixC2Nyl4nDj4IJ7eYmM1rMJNHbk5Mm1gPFHt+yI7hW7VpDWsMVTVaXX6qS/CuB6R3+BjGFR5WzMvvMmsDz/bRayrddQmk6Ul8o41hxDdyinw9m7dImWv/RG5IzYtYK0hi3WVpTcyxj/DYDRTp53Ky6sXjEf06bmO0KoI3J6PxLBwkQIdW40nejozUJwL5Wx+0QE0WQugjt+Fo+H/2T7O4iJXStIa9hiXWVgJYxDz47O1BQHirC+ejHGjSnP67y5nkSo9V1o0bMFWbd4krCnNosaWAqD38uw50QEOuUsuH8ZhUo4ExCkdVkQVo6dnseOGYn1q5agpHh4RQh7Izr21GbRdMIrgYNj/6lc2o9RhJi0fuuO0K/EjhWkNWxRXQ3Z0xX4DoBPOB1j+jWTUb1sPrwed17nrkY7jbZeemHOAGfbdKIsIKGjV0XDmZwimW2M+KOba6K7xa4VpDV8CatidMDDoj8F2MNOx7j7thux5ME5kPMdIexrRLj9AEC8IGuXbdOJ8hIJtW0JdPTlRKz7NV1f9tM3Y81i1wrSGrZYvaBogqJLr4Bwm6O/JMawYN7dmHPPLXn/CytkhJBz4GBDHKe7B6+BVV4iY9+pCKKJnIh1e1Eg/PSm3yIqdq0grWGLtXP9sySZvUrAZCfPK4qCVUurMOO6KXmdtxEh3IdEsKUg65ZQDcG9LzJ404kSv5Hhrum5CO709WlzI3+7cSO42LWCtIYvYVX5FzJi2wE4aiToL/Jh7aolmDQ+zxHCArf1CkY59tbGEEsOXgOLQDhUH82l6USciD66tSayRezYKwOiysMlwrqK4o+A6HtO17h81AisX7UYI8qK8zpvLRFEqGUXuFoYDynbphOlRRK6QypOteckuJ/mTFq+bWfwPbFjhaU1rNc010PPU66aiNXLH0SRz5PXiauRDiNCWKC2XkOpgVXbFkdnboL7QUnWl774eqxJbFlBWsMWn14CT08i8AIIq52Oceus67F04f1wKXJe5x7vbUCk/QAKkUOZbdMJi7A+aIgiFHN+1pGAX0ou/4bNr52JiF0rSGvYYsP84lGc068B3O90jHlzbkflnDsg5fUQISHaeQSxsycLsm5JzaiBNVghPlkCSvwS9pzMSXAHAc9Pnxf+rBDcBWkNa6yrKJkGxl8FcJ2T52VZxrIl83DbzGl5nTdxzWzr1V6QdYvEOfbUZlcDS5YIB+qiudiBCYCe3bIz8qLYsYK0hjdhVRXfB6KXATgK8fm8RVi9YiGmTh6T13kXOkLYFdSx79TgTSdKiiT0RFScastJcO/iDCu37Qi/KXasIK1hjfVVgWoivAjA6+T5kSPLsHbFYoweVZLXeWuJPoSad4FrhSla0Nyp4nDT4IJ7mV9C45k4zvRpuezwQwpXlr1Q09sgdqwgrWHuEuZ26Hny5AlY/egCFPvzGyFMRs4g3Pp+QSKEQ2k6MbJYwuHGWE6CO8D+OyErq7e/3tMndqwgrWGLigook1jguwA+5nSMmTdOx/Ilc+Fx5TlCWMC2Xppu1MDq7Bu8BtYIv4Q9tREktdwE92R5+C+2b4cudq0grWGLZ+aUFyddiZ+B0RKnY9x3z+1YMPcOyFJ+I4SRM4cQ76kryLpFE4bgHo4NLri7FcLe2pwE9yQY+/iWHaEfix0rSGtYY0OVbyIn+RUAtzp5XpJkLFkwF3ffOj2vi05cNSOEhakS3BPWsffU4DWw/F6GUExHbVs8lx93FoRVW2rCNWLHCtIa1lhX6b8FYK8AmOTkeZfbgyeWL8B1Uyfkdd66GjGK9iVCBVm3li4VH2TRdKLUL6GlM4HTPWouO/mkxNgjL74ROiF2rCCt4U1YFf7FYOz/AnB0CLCkuBhrVi3BhDFleZ23FutGqIBtvbKtgVXml3C0JYpQNKdcz9cUUp54oaa3V+xYQVrDGusri58l0L/B4aHn8ePHY/VjD2JEsS+v806G2hBu21OQtl46JxyoS+BM7+A1sEb4GfadiiKh5RQY2NRC4U/W1EATO1aQ1rBel1wPPV9/3XSseOgB+Dz5LaRRyAhh1k0nZENw359bSRkNDJ/dsiP8XbFdBWkNazxdAa/GAj8B8LjTMe664zYsrrwTLjl/y0vEEWnfh0RfYaoE90aMLs8JdfAaWLGkjhMtOQnuPQSq3roz8obYscMPop5WP8Lyj9Mg/Qagu5w8L0kyFlTOwew7rs/roWfSVYRa34Ua7SrIumXbdKKkSELb2STaunPq8lyrE1v6Uk34mNixwtIa1lg7PzADnF5lYFOcPO9yubH8kQWYdd3EvM670G296tqTONGaHNTNGxGQcLwlht5IDjob4Q862IqXakJdYscK0hrWWF8VqCLCLwA4CvH5A8VYvWIRrh4/Mq/zVmPdCBcoQsg5cKgxjrazgwvuJUUSDtZHBnUdB9mo/+ELhj+5aQ9UsWMFaQ1vC6vC/xRjbBMAR40ER5ePxpMrF6K8LL+NUxOhVkTa9hYkQpht0wlFBrwuYH99DJw7JiwdxL64pSb0NfG6Cgx30rIihP/b6TpMnToF1UsrEfC58jrxQrb1CsU49pwcvOmE182QVDmOteRUSSJExNZsrQm9Il5VgWFNWtXVcLu7iv+TgdY7HePWW27CIw/eC7eSv8apRluv/UgECxMh7OzTsb9u8BpYfq+E9p4ETnfn5MnVkYSlW98IHxGvqcCwJq0195eOkFz6LwFUOFowJqFy7hw8cPcNeT30zPUkQq3vQoueLci6Zdt0orhIQt3pGHrCObmtbzMXVmx+LdwhXlGBYU1a6+eWTiVFfxWEG508ryhuPLx4Pm6fOTmvC2dECN+Bnsx/HwYi4EhzAk1Z1MAq8Us43BhFLIcuzwz0o3h55BPbtyMpXk+BYU1aa6pK7paI/wbAWCfP+4r8ePyxxbh20qi8zluNdhptvfT8B81UnbC3NrumE143w4H6aC6CO4HhK1t2hDeK11Jg2JPW2qrixxjRFgBFTp4fOaocqx9bhHGj8hwh7GtEuP0AQPlvHBNNcOw+OXjTCbfCwEnHkaacMtzDHGzdtp2hl8UrKTCox/Nh/4LrKvzPgchxWeSrJl+F6mVVKA2480saBYwQdgV17D8VhzpIq64iD0NXKImWzpyswBZJ58u2vBndJ15HgWFPWuuq/J8DsX92+vzMmTPw6ML74HXnO0K4D4lgS0HWLNumEwEfQ117Ar3hnIor/JG58NiLO6NCcBcQ7qFRaVQ6DrAh+3SMMdw3+17Mv+8mKHk89FzItl5EwInWBOraB7eaiosYjjbGEE3yXHbeTxOx8DPb30FMvIYCwtICwKH8E0BDJixFcWPxwircedPkvB561hJBhFp2gavRvK/VUJpOeFwM+2uj0Clnwf3LKET9HAFhaV2OMCOFu4b6/Xw+P1YuW4TrppTndb5qpMOIEBagrVe2TSdcMoOq6zjRmovgThFi0vqtO0K/Eq+egLC0bEQsEf/mUAmrbEQ5nli+ABPHFOd1svHeBkTaDxTE6Mi26YTXzdAdVtHSmVPqVBsHLdu2I7RHvHYCgrRsWFvhXwtgzlCemTDpKjy+tBIjS/LZOJUQ7TyC2NmTBVmnbGtgBbwMTR1JdIVyajqxT9P0R3/6ZqxZvHICwj204dmlKIqGA8cxhK45N9w4A8sX34eifEYIC9zWK9umEwEvw7FmIbgLCEvrkiEWDvzVUAhr1MhiPLr4VrilBMCKkEvB8mxRyAjhUJpOeBTgQH0Ueg4Z7gRs3Loj/FUIwV1AkNZAbqFvEgGfG8ozyx9dgMCY6UZYjMmQiMB0Dh7rAU9e/CieluhDqHkXuJZ/oyP7GlgMBI5DjbFcODwOoo9srYlsFa+YgCCt80Bi8jdoCMd0pk+bhKuvm2kzCzg4A0hR4Cq/Bi6mgEfOQg22ATz3QnvJ0GmET+8G8fwX7QtGOfbUxhAfpAaWx8XQE1bR0pWT4H6aJP7o1jei74vXS0CQ1nmwYX7xbM4p6+45jAFLly7GwJIeQUuGAMYg+4rhLb0TFAsi2VMHUp2VNS5kW6/2Hg0H6+PQB5GlfB6Glq4kzgZzOpJzQJL1ZS++HmsSr5bAJTNQrvQvsHEjJK7jXzGEoMID992MEWMGb1GvazEkoh3QZMAz4RZ4xtwISRlKhJEQOXMQkTOHCkJYDWdU7K8bnLACPoZTbfFcCesXzOWfIwhLQJDWIKh9s/gpsOxbfnncLjxQUTGg9XU+cC2ORLQTGtPhGn8TXKOmAuzCS0dcRahlF+I9dXlfE86Bg/VxHG2+8BlCxgCvGzhYH0U47txtJeD5afPCj29+7UxEvFIClxpXdMpDdcXogIfFTgAYn+0zK5dX4pZ77geIgUnMWAJm/i4xgMz/t64NtGiSDIkk6L0toAEEe12NGG29EqG8r0lSM2pgDVY5VJIAiRGONsVysQETAD27ZWfkRfEqCeQLV7Sm5UX0iwSWNWGNHlWKm26/G8wkKAIzPltmFmVH48R16NBBpWOgdzcC8TBkl3HMUYt1I1Sgtl6hmCG4xxIXpiG3AoRiOho7cppjF2dYuW1H5E3xGgkI0soC6+eWTiWm//lQnnl0+YOQFRfADMICGIgxg6cYAxEbkvnJwKCMnAK1rwWRlr2QXUWIdhwpSFuvbJtO+NwMrV1xdIVymCPDIYUry17Y2dsgXiEBQVpZgsv6Nxjgzfb+GddPxuRrrk+5fYxZllZamElT1tC8ZlfpJEieAIKHXy4IYWVbA8vnMQT3XPQrEPsv8rpWv/Bf3UHx+ggUAlekEL+uIlDBgBVZf0mJYcnDC9OEZGpWjMHQsVJWF4Zkadkhe8tQdvPjkP35qyFPBBxpSuCDxsEJy+sGjjRGchfcK0KPbBWEJVBAyFfahDduhNTT6NkOYEK2z1Q+cDtumHULmCSDMam/0G74hob+btFVKpQ4NPpisgve8uugdteDq5c2613VCXtq4zjdrQ1C2IBLInzQGIPuXHFPgrGPbt0Z/seaGnEkR0BYWkPCqd8Xf4RAd2R7v8/nwb1z7weZZEWMmcd27BaW4S4aNJVbQJW5fCietQKSJ3DJ1iCa4HjnaAxngxe2mlwKEEvo+CC3COFZEBZt2RH6sXhdBISlNUQ8M6e8WJe1XwLImhEeW1aJCVdNAWOSoWExyeBqi6hYmqaYzUV07igCkuyGq2wSEh1HL3onne6wjvdPxrM6ktPRm0Rbbl2eT0gSe3DzzrCogSUgLC1HLpEn8SUA47K9f/yYkZhx622wdCxJMoiKSQwMkmlVpTUuuohZa4p/LALXVl3U79/cpeK947FBi/b53Ax1Z2Lo6MupEuprCin3vPhG6IR4TQQuJ1wx0cOnqkqv1Un/1FCeWbZ8PpikmCkOpi3F0kR1ccSZ84/iGTsDie46JLtqc/sJQ2g64VEIx5pjSGg5fbtNLRT+ZE0NNPGKCAjScgida98CY1kf/LtpxlSMnzwFrEA5/8wkm8A1FejtawFX4w6/t9F0oqM3iwx3kKFfOecrDQyf3bIj/F3xaggI9zAHrK8KVIGxpVl/KcawaNG8/iSSB/ZilllEBOs/5vbDN/luR+PFk4Rdx2KDEpYiA8mkjiPNORFWD4EWC8ISEKSVI6qrIRPw7aE8U1VxGwIjRplWVn4i9IZlZWSoko28GAjecbMgeUuHNF5vRMfbR6MIRi8s5HvcDF1BFXVncjqSU6sTu2/rzsgb4pUQEKSVI7ydgY+DMCvb+4uKvLj73rvBiAzeAOAs62poSBGWSVTmVQAEJjEUTc66EAVOd2t4NwvB3etiaDoTR0ev8wghAa9zVb77pZrQMfE6CAjSyhFr7i8dQQwbh/LMI4vvg8uTPt3DCCCTRC6VzcVSxGV9pvQvkzzd5dPAXIMXVj3ZlsT+usG75LgU4HhrFH3RnI4NbfIHww9te6uvR7wKAlcKLmshXnbpXyYg686pE8eNwvUzboB1kNB+rpBMArs0VpbBXMwmKBkWV9pVZEyGd+yNiLUMnPLEOXCwYfAMd8YARSIcbYqDOxewdBD74paa0NfEKyAgLK2LhPVzAzcS8PGhPPPQkvshyTKYjajsfhAumb1FloQFIkoRlmGFpa0u7+gbBnw6oRJ2HY9mdSQnoeo43BTLhbBCRGy5ICwBYWldbBqQ2TcBcmV7/62zrsX4yZNgOYPMZC0ya/vZKetSaFsMlDblUlpaWowHANlXAqVoFLTo2dRzwSjH3toYYoNkuLtkhs5gMif9CkAdSVi69Y3QEbH1BQRpXUSsqyx5GOCLs3YjZRmVlbNTfpp5Bto8XkiXjKgGchOZpaARmRYY9bPu3COnpEirs0/D/rr4oDWwXArQ0hVHXyQn/ept5sKKLa+FO8S2FxDu4UVERQUUAh+S61L5wK0oKS22FSC1Iodk5i2RSSVkGENkE8pz/UW2sftZeecSFgAoJUZxioYzKvbUDk5YHrdRAys3wqIfJsrDVZsFYQkIS+viYzLzf5qAmdneX1zsw11332zQBQfAuJlISiDOwSQJ4AQm6f3EeLsklM47zcYeowH/lyxRCwQOMlIuTCKzPyIXsRKBAwAADgdJREFUlSMYJRxtvnBelVWM4nBjFJznKriHhX4lIEjrUqB6UclIJPn/GsozDy28By6XC8QBJpkEQQQwbhpCusFU3LArOU+TFGMA0cBnEO0J9BfWvE3h3Ty3QzYrjuhchmSMQfKVATh/4xpJAjRNx/GWnBJGwxxs3baa0MtimwsI0rpEcCf43xPDyGzvnzSxHNOvm2baSATiDEwiEHEwDrO7Dge42WSHEyARiGQzEbS/Qt+fqBgGizSSaboxEEgnKyks5TIyyy3NGEbyFJ//L0QGusMq2nMrKdMi6XzZljej+8QWFxCkdYmwdn5gBuP4yJCsrEWzTWvJsHSYFS4EgRiBmbWsCOmonqXKGzXiqZ9VZdzOzDEHsrgy2IcBxNPWFKWO7pg/M+Uy9od8niRTlwI0dyYQzCFhlAjvcJke27IzekZsbwFBWpcQjONbQ5nPrTdfi7Fjx9jT0FPERIybgjszPksSQLpBZCAAvJ+VRSZR9XcH2cBE1e8HIZW1SjaBn2y/pzPkbaTlKRqQsOra4oipORQNZPhpMh5+Zvs7iImtLSBI6xJiXUXxcoAWZj1pRUHl3DvtBo9h8aQaUzCDmBhgCFlk/G6mQKRrxJucx5j5u+lo0kCaFg14DdbPtnQsmJnxtqhipsBPspJBf4RjTXHozhNGCQxf2bIjvFFsaQFBWpcY1dVw4yx9fSiJ6vPn3oxAsd9GCKkSfyDi5lUJBMPiIqvzDnEQSUZL+5QYz0DcICTiaYtrQE2LMiwvZj+uk3YHyRTlrXOPLIOMJKtZGQN0zlHbFs9hBSlCTFq/dUfoV2I7CwjSygM8XcXPATQ92/vLiotw220z+xGWPUhn6FEmcREDJEOFJyvxlPU/yGyKYSBiqcJ951YOpAxpykoghc2iQkp0ZzxtdfWLItrMIkUyBfce54I7A5p1wrJtO0P7xVYWEKSVBzw53z8WnIaU4rB40T1wuRTA5p5hAD2KkSHGgzPDXWS2JqzETb5jKasqJb4zG3lZFMOYKWFR/z8ztSwrmdRKrSBbygOzeYeMAdG+Thw7chSNHXFEErk0vaB3ZcLyzTWRdrGNBQRp5Qkyx98DKMn2/qsnj8G0a6/G+RI8UxoTrO7RlgzOkWrUSv17GxIxM1WBpV3ADEsrLbKjf5GbAXWtdDQT3LDCuKai83Qz9u4/hgNHz0DNvQn19qJA5OlNv0VUbGEBQVp5wpoK/60AezprV4gxLH7wLiP3qR9JsXOcJsaon7uY/p+08A6TWCzeIdNyAjtfCZv082nSYqmUi0zCIk5Qo72oP1WLP753Es2dFyWgR2D09S07In8DiKapAoK08gqJsW9jCH0Xb7/5GowuLwPneirKZxlMKbeOWaVhUlJVmqTOIS6bocTSXiaZRhnZOCElyfO0kdZPr6I0YYF09Jxpwb59R7D7cDviyYvW9zAOoo9s2RnZKratgCCtPGNtRWAVgHnZ3u9WXJh736y0RUNpc4hSbh+Zrh7rZ/FciLjMeGPaLTyP/Zau2pAeL519anzkyRDqa+vwzvtH0HA6kkuDiYHQxog/urkmultsWQFBWnnG0xXwqoz+eSjFYirvvxFFPjdAOoB0D0OLMZgt7wq26N+FiIuli8ik81NTFUj7y2T2BhnUzxHVEeo6jQ8OHcc7+xoRiumXYskOSLK+7MXXY01iuwoIFIC0VAT+kgFTsr2/rNSPW26aYhAWSTZySneGto7upIu1W8TV31VEP4cvw3qykVumpWWvEsoA8GQEbY11eOe9ozjeHMqlCsNg+EVRILxBCO4CAgUirSfn+8cyji9kPTmXFwvmzoIiAcR5yuwxLCvJTOyUQMzIxbJJXQMSF/rlYFFKD7PijKljN8xKbrCIyrg32nMGxw4fxdt7G9EdurTNlwl4fvq88Gc3bgQX21RAoECkJXPp6wBlleLg8vjw1Od/Ap9/BHpjnTjdeRbhM0cx0n0a146zRHiWVs6ZlJXFNUDRhX5uoJVuZXEbT8Zwpq0Ru/ccxaHasxcjXWEwJAB6duvOyIvYKTaogEDBSGvt/KK7wGldtvffu+Bp+AKjoCf60BPhaDvdjYbGOBobg2hrqcdnVk3CLdePNsnKZB3Jlj81BFcxs3wMgZDsO4vjx05i195TaO9J5muZ/kgk/eXWmuAusTUFBApLWoxx6ZvIsrzzqHFTcct9jxmEFYygoa4eDQ2NaG1tRW1tHVqaW/Bnf38C//tj92DhfVOMKg7gRqI7k9JK+mCuIvqfLyQ1iZ72Ruw9cBz7jp+9mOkKF0KcwLYT8W9uq4mI4zgCAoORSV6srEr/GgaWVX4RYwwrnv0mxoy/Cr2hOOrr6tBQX4em5hacrD2FlpZm9PX1IalySIzhn/58Dh6pnAbGJOPwM5Ng7ynNJCPKmKrgMMDX5okQ6k+exNvvn0RzZ/xipyucD8dB7McJD/uP7f8T7BZbUUDgMrG0qmfDxyD9Q7YJ3DfeuRgjx0xEbyiKhro6NNQ3orWtHafq69Ha2opgXxBJs+YUJ8Lf/ds7mDmtHFMnlYIkyaiowGxdB7l15tDK7TIijqRrCHefxqGDJ/D+kY5Lla6QiSSAlyWiTS/WRN6AyGoXELj8SMvjC/wViK7O5l6vrxh3Va1DOKqiob4O9fVNaGxpQkNDM9pamhAM9iGRoYQnkjq+tXkPnv/reYDODUuLWZHE9FlDMvMa9EQYLQ0NeP9APU625NT0dChoA6PNxPl3t9bEWsS2ExC4TElrbYVvEog+l60X+tDT/4BEktDc0ojGplY0Njejvq4ep9ta0dvbh3hiYGto53st6DgbxpiRRo0tgj13iwGkIxrsxPGjDXj3cMclT1ewvE4CdkgMm5p5+Fc1O6GJ7SYgcJmTFpPkfwbBn82918yYB8VdhqamBjQ0NqKpqQnNTU0409GO7r5exBLnd990Tth1sB1L502xWVYMlIzhTHs79hxqwJGGMDQ9L1ZVLwEvkiz/67bX++rEFhMQuEJIa8P84tmc0xPZ3j/tzmVobW1CQ2Mj2lpbUd/QhKbGRoSCvYjFBjdSTjX1grgOBkIy0otT9a1491A7TufW1SZ7ggbbA2BTPB7aLGq0CwhcYaS1cSOkU7/n3x6gBOiAuO6uagRDEbQ0t6CpsQWtp1vQ2tyEULAX4Vh2pHO2N4Kzpxtx4EgLDp4KIa7mxaoKAXiJE31vW01YpCsICFyppHWqpngDMbo7u7tlFI26Fk3NzWhuakJbaxuaGuoQ7O3OmrAAoK6xA//5q568pitwTdq07a2+HrGNBATyh4uep1VdMTrgYbHjACZkc/+km6tB7hFoampBc0szWpsb0d3Thb5QdlnoLplh6jgFN0xyoaRIupRrJdIVBP5/e3cTE0cZx3H89+zMLBR2i1BtealGCiVNjYmJBw8aQ6lp4snEyMESaqIHDx68mxgPHjyY1Grsm7ZCaA0mRA8eVdINNempMW2jNTTYt6WUBbbLziIgzD4eSPpig50CAxS+nytPYHaeyT+/Z/NjF2sxacXN3x9IJtTAcsu2aNap1NBgWul0WoODaY3nwg2s5IaYGmtdba/xFPci7cgOyuiYcXXoxE+FDI8MsIaSVvvLFfXWCf6QVBpmfXnDG8r7BQ0NZXT1yl8az2WUzc8/sIyRqh9z1Fjr6akn3JDvmC3IvXWFFHUFYE0mLesEn4YdWEG8Vrn8hG4OZ3T92oB8f2zegeW5Rk9vdrXjSU8V0R4Bc1bqigXOgZN945d5PIA1PLTadiVflOzr4VbHNFnapNzwkK5fS6uQz2r01v1fWLqxLKamOk+NNa5cJ7pYRV0BWGdDa67ioM9tyONm3qmXn/d140ZahfFhZbKT9xwBa6vmUlVNpRPla/cldUv20IlThXM8CsA6GlqX+pLvGNnnw6ydKboa8l3dyl1VIXtnYJXGjRqqPTXVeSovjTJV6U9rTSd1BeDRtOjp0PZq1UYz9U+/pC1h1l/M1ilfmFJ2ZFBj+VlVJWPaXutpW7UnJ7q3q6aN9L2x5nBXyv+VbQfWcdIykzMfyoQbWMN5V9nchMZGbqoyIT23bUPUR0DqCgBJ6463WioaAhv8LqkkzPozAyUqMRPaudVRaTyyI+DtusLUpsIPPT0K2GaApCVJCmywP+zAkqQX6qcVi0X2P9oZGdthZt2j1BUAktZ92lsSLdaqd+VfAHUFgKH1AK2tckrGEr/J6tkVuu7bdYWTpyaoKwAcD/9ffDTxrrT8A2uurmCPTKvseE9qpMD2ASStB9r7UkVlzAv6JT2+TNd496cr/MKWASSthxKLBx/JLsvAGpTRMW9GBztOF0bYKgAPnbTebE7ucIw9L8mL6HqoKwBYuqTlSPsjGljDMrbTLXpHOlO5K2wLgEUnrX3N5a8Ujfl5af/4XF3BsX5XZ0pTbAeAJUlazc1yA2MOLFGH3ZfUHYvZg129hfNsAYAlH1pbVf6epGcWGasuqmiPUlcAEOnxcN/u5KZi0V6SVLmA3z9lZXqcmA539fpnuN0AIk9axaL9eAEDa0DWfO0F9puO0z51BQDLk7Tadid2mqLOhTxGUlcAsLJJyxT1WYiBRV0BwMoPrb27kq9Jds/8Ec2ctSp+UZaf6P7qrGa4lQBW7HjY2qp4yWjigqSm//woL+k7G9gvv+2buMDtA7AqklbJaPJ9yTbdNdqoKwBYnUmrfU9is51Rv+a+dPVHPl0BwKpOWsVZ87ax+iSQjnen/FFuEQAAAAAAAAAAAAAAAAAAAAAAAAAAAAAAAAAAAAAAAAAAAAAAAAAAAAAAAAAAAAAAAB4R/wIle5JPYIlDrgAAAABJRU5ErkJggg==;" parent="1" vertex="1">
          <mxGeometry x="457.56" y="431" width="38.38" height="38" as="geometry" />
        </mxCell>
      </root>
    </mxGraphModel>
  </diagram>
</mxfile>
